<svg xmlns="http://www.w3.org/2000/svg" width="1200" height="800"><rect width="1200" height="800" x="0" y="0" fill="#FFFFFF" id="background"/><g transform="translate(10,10)" id="viz"><g id="arcs"><path d="M1085.2671458351908,650A6.586300564638805,6.586300564638805 0,0,0 1072.0945447059132,650" fill="none" stroke="gray" stroke-width="0.00030697247587842594" opacity="0.5"/><path d="M1085.2671458351908,650A82.40451211920339,82.40451211920339 0,0,0 920.458121596784,650" fill="none" stroke="gray" stroke-width="0.0006139449517568519" opacity="0.5"/><path d="M1085.2671458351908,650A174.92211539407094,174.92211539407094 0,0,0 735.422915047049,650" fill="none" stroke="gray" stroke-width="0.0291462287623516" opacity="0.5"/><path d="M1085.2671458351908,650A258.72820549794875,258.72820549794875 0,0,0 567.8107348392933,650" fill="none" stroke="gray" stroke-width="0.05584475594072523" opacity="0.5"/><path d="M1085.2671458351908,650A253.0600622549955,253.0600622549955 0,0,0 579.1470213251998,650" fill="none" stroke="gray" stroke-width="0.00014540801488978073" opacity="0.5"/><path d="M1085.2671458351908,650A248.18562819961693,248.18562819961693 0,0,0 588.895889435957,650" fill="none" stroke="gray" stroke-width="0.00016156446098864526" opacity="0.5"/><path d="M1085.2671458351908,650A11.564437361926139,11.564437361926139 0,0,0 1062.1382711113386,650" fill="none" stroke="gray" stroke-width="0.0010905601116733554" opacity="0.5"/><path d="M1085.2671458351908,650A25.41995716440431,25.41995716440431 0,0,0 1034.4272315063822,650" fill="none" stroke="gray" stroke-width="0.0008966827584869811" opacity="0.5"/><path d="M1085.2671458351908,650A43.670231773989485,43.670231773989485 0,0,1 1172.6076093831698,650" fill="none" stroke="gray" stroke-width="0.0037402172718871375" opacity="0.5"/><path d="M598.4869574575733,650A75.09229440862896,75.09229440862896 0,0,1 748.6715462748313,650" fill="none" stroke="gray" stroke-width="0.0004846933829659358" opacity="0.5"/><path d="M1098.909820890017,650A6.821337527413107,6.821337527413107 0,0,0 1085.2671458351908,650" fill="none" stroke="gray" stroke-width="0.000008078223049432263" opacity="0.5"/><path d="M1098.909820890017,650A82.79333857642172,82.79333857642172 0,0,0 933.3231437371736,650" fill="none" stroke="gray" stroke-width="0.005889024603036119" opacity="0.5"/><path d="M1098.909820890017,650A13.407638092051911,13.407638092051911 0,0,0 1072.0945447059132,650" fill="none" stroke="gray" stroke-width="0.045738898905885464" opacity="0.5"/><path d="M1098.909820890017,650A24.738558881604717,24.738558881604717 0,0,0 1049.4327031268076,650" fill="none" stroke="gray" stroke-width="0.0024557798070274075" opacity="0.5"/><path d="M1098.909820890017,650A28.152224093007703,28.152224093007703 0,0,1 1155.2142690760325,650" fill="none" stroke="gray" stroke-width="0.1821073822033515" opacity="0.5"/><path d="M1098.909820890017,650A6.924534380836235,6.924534380836235 0,0,1 1112.7588896516895,650" fill="none" stroke="gray" stroke-width="0.000339285368076155" opacity="0.5"/><path d="M1098.909820890017,650A76.46211717347512,76.46211717347512 0,0,0 945.9855865430668,650" fill="none" stroke="gray" stroke-width="0.00016156446098864526" opacity="0.5"/><path d="M1098.909820890017,650A70.85790688431473,70.85790688431473 0,0,0 957.1940071213876,650" fill="none" stroke="gray" stroke-width="0.00007270400744489037" opacity="0.5"/><path d="M1098.909820890017,650A56.22172270036168,56.22172270036168 0,0,0 986.4663754892937,650" fill="none" stroke="gray" stroke-width="0.45557138887273246" opacity="0.5"/><path d="M1098.909820890017,650A32.241294691817416,32.241294691817416 0,0,0 1034.4272315063822,650" fill="none" stroke="gray" stroke-width="0.000339285368076155" opacity="0.5"/><path d="M1098.909820890017,650A36.84889424657638,36.84889424657638 0,0,1 1172.6076093831698,650" fill="none" stroke="gray" stroke-width="0.0018903041935671493" opacity="0.5"/><path d="M1072.0945447059132,650A231.8679429359829,231.8679429359829 0,0,0 608.3586588339474,650" fill="none" stroke="gray" stroke-width="0.02325720415931548" opacity="0.5"/><path d="M1072.0945447059132,650A535.3442351376447,535.3442351376447 0,0,0 1.406074430623942,650" fill="none" stroke="gray" stroke-width="0.010097778811790328" opacity="0.5"/><path d="M1072.0945447059132,650A226.52960702871565,226.52960702871565 0,0,0 619.0353306484819,650" fill="none" stroke="gray" stroke-width="0.013627962284392227" opacity="0.5"/><path d="M1072.0945447059132,650A122.24412768957268,122.24412768957268 0,0,0 827.6062893267679,650" fill="none" stroke="gray" stroke-width="0.010081622365691463" opacity="0.5"/><path d="M1072.0945447059132,650A42.81408460830977,42.81408460830977 0,0,0 986.4663754892937,650" fill="none" stroke="gray" stroke-width="0.0016237228329358847" opacity="0.5"/><path d="M1072.0945447059132,650A50.25653233862829,50.25653233862829 0,0,1 1172.6076093831698,650" fill="none" stroke="gray" stroke-width="0.0014379237027989425" opacity="0.5"/><path d="M1014.1440151780056,650A79.2317971025821,79.2317971025821 0,0,1 1172.6076093831698,650" fill="none" stroke="gray" stroke-width="0.0006058667287074196" opacity="0.5"/><path d="M1023.0010644141611,650A197.3378085361802,197.3378085361802 0,0,0 628.3254473418007,650" fill="none" stroke="gray" stroke-width="0.00002423466914829679" opacity="0.5"/><path d="M1023.0010644141611,650A131.8468781861837,131.8468781861837 0,0,0 759.3073080417937,650" fill="none" stroke="gray" stroke-width="0" opacity="0.5"/><path d="M1023.0010644141611,650A192.83729325931745,192.83729325931745 0,0,0 637.3264778955262,650" fill="none" stroke="gray" stroke-width="0" opacity="0.5"/><path d="M1155.2142690760325,650A156.0757832210532,156.0757832210532 0,0,0 843.062702633926,650" fill="none" stroke="gray" stroke-width="0.00002423466914829679" opacity="0.5"/><path d="M1155.2142690760325,650A192.3624967978829,192.3624967978829 0,0,0 770.4892754802667,650" fill="none" stroke="gray" stroke-width="0.0002181120223346711" opacity="0.5"/><path d="M1155.2142690760325,650A187.55406488587977,187.55406488587977 0,0,0 780.1061393042729,650" fill="none" stroke="gray" stroke-width="0.000008078223049432263" opacity="0.5"/><path d="M1155.2142690760325,650A254.09588928823877,254.09588928823877 0,0,0 647.0224904995549,650" fill="none" stroke="gray" stroke-width="0.000008078223049432263" opacity="0.5"/><path d="M1155.2142690760325,650A249.28702158425347,249.28702158425347 0,0,0 656.6402259075255,650" fill="none" stroke="gray" stroke-width="0" opacity="0.5"/><path d="M1155.2142690760325,650A110.94556266942942,110.94556266942942 0,0,0 933.3231437371736,650" fill="none" stroke="gray" stroke-width="0.000040391115247161315" opacity="0.5"/><path d="M1155.2142690760325,650A41.559862185059615,41.559862185059615 0,0,0 1072.0945447059132,650" fill="none" stroke="gray" stroke-width="0.00002423466914829679" opacity="0.5"/><path d="M1155.2142690760325,650A70.53512694901343,70.53512694901343 0,0,0 1014.1440151780056,650" fill="none" stroke="gray" stroke-width="0.000008078223049432263" opacity="0.5"/><path d="M1155.2142690760325,650A150.7066734635202,150.7066734635202 0,0,0 853.8009221489921,650" fill="none" stroke="gray" stroke-width="0.000016156446098864526" opacity="0.5"/><path d="M1155.2142690760325,650A117.3780737396242,117.3780737396242 0,0,0 920.458121596784,650" fill="none" stroke="gray" stroke-width="0.018975745943116386" opacity="0.5"/><path d="M1155.2142690760325,650A52.89078297461242,52.89078297461242 0,0,0 1049.4327031268076,650" fill="none" stroke="gray" stroke-width="0.0006220231748062841" opacity="0.5"/><path d="M1155.2142690760325,650A244.4472435052101,244.4472435052101 0,0,0 666.3197820656122,650" fill="none" stroke="gray" stroke-width="0.00009693867659318716" opacity="0.5"/><path d="M1155.2142690760325,650A144.0010153213658,144.0010153213658 0,0,0 867.2122384333009,650" fill="none" stroke="gray" stroke-width="0.00002423466914829679" opacity="0.5"/><path d="M1155.2142690760325,650A572.5540248406106,572.5540248406106 0,0,0 10.106219394811268,650" fill="none" stroke="gray" stroke-width="0.000056547561346025834" opacity="0.5"/><path d="M1155.2142690760325,650A209.89567701449175,209.89567701449175 0,0,0 735.422915047049,650" fill="none" stroke="gray" stroke-width="0.00004846933829659358" opacity="0.5"/><path d="M1155.2142690760325,650A181.73153277551114,181.73153277551114 0,0,0 791.7512035250102,650" fill="none" stroke="gray" stroke-width="0.00015348623793921297" opacity="0.5"/><path d="M1155.2142690760325,650A138.1426396390906,138.1426396390906 0,0,0 878.9289897978513,650" fill="none" stroke="gray" stroke-width="0" opacity="0.5"/><path d="M1155.2142690760325,650A133.2471782551346,133.2471782551346 0,0,0 888.7199125657633,650" fill="none" stroke="gray" stroke-width="0" opacity="0.5"/><path d="M1155.2142690760325,650A175.77186869616116,175.77186869616116 0,0,0 803.6705316837101,650" fill="none" stroke="gray" stroke-width="0" opacity="0.5"/><path d="M1155.2142690760325,650A568.4069895738289,568.4069895738289 0,0,0 18.40028992837465,650" fill="none" stroke="gray" stroke-width="0" opacity="0.5"/><path d="M1155.2142690760325,650A21.22768971217147,21.22768971217147 0,0,0 1112.7588896516895,650" fill="none" stroke="gray" stroke-width="0.5002439623360928" opacity="0.5"/><path d="M1155.2142690760325,650A12.775115500319885,12.775115500319885 0,0,0 1129.6640380753927,650" fill="none" stroke="gray" stroke-width="0.00015348623793921297" opacity="0.5"/><path d="M1155.2142690760325,650A171.3470163509474,171.3470163509474 0,0,0 812.5202363741377,650" fill="none" stroke="gray" stroke-width="0.000016156446098864526" opacity="0.5"/><path d="M1155.2142690760325,650A104.61434126648282,104.61434126648282 0,0,0 945.9855865430668,650" fill="none" stroke="gray" stroke-width="0.000016156446098864526" opacity="0.5"/><path d="M1155.2142690760325,650A127.79480752592451,127.79480752592451 0,0,0 899.6246540241834,650" fill="none" stroke="gray" stroke-width="0.000016156446098864526" opacity="0.5"/><path d="M1155.2142690760325,650A122.49430170691267,122.49430170691267 0,0,0 910.2256656622071,650" fill="none" stroke="gray" stroke-width="0.000008078223049432263" opacity="0.5"/><path d="M1155.2142690760325,650A238.22285680695302,238.22285680695302 0,0,0 678.7685554621264,650" fill="none" stroke="gray" stroke-width="0.0001050168996426194" opacity="0.5"/><path d="M1155.2142690760325,650A99.01013097732243,99.01013097732243 0,0,0 957.1940071213876,650" fill="none" stroke="gray" stroke-width="0.019694707794515855" opacity="0.5"/><path d="M1155.2142690760325,650A5.937981177992924,5.937981177992924 0,0,0 1143.3383067200466,650" fill="none" stroke="gray" stroke-width="0.00018579913013694202" opacity="0.5"/><path d="M1155.2142690760325,650A60.39351878482512,60.39351878482512 0,0,0 1034.4272315063822,650" fill="none" stroke="gray" stroke-width="0.0007189618513994713" opacity="0.5"/><path d="M1155.2142690760325,650A8.696670153568675,8.696670153568675 0,0,1 1172.6076093831698,650" fill="none" stroke="gray" stroke-width="0.1910984444573696" opacity="0.5"/><path d="M1112.7588896516895,650A134.84809350888173,134.84809350888173 0,0,0 843.062702633926,650" fill="none" stroke="gray" stroke-width="0.00007270400744489037" opacity="0.5"/><path d="M1112.7588896516895,650A129.47898375134872,129.47898375134872 0,0,0 853.8009221489921,650" fill="none" stroke="gray" stroke-width="0.08251097022690113" opacity="0.5"/><path d="M1112.7588896516895,650A31.663093262440952,31.663093262440952 0,0,0 1049.4327031268076,650" fill="none" stroke="gray" stroke-width="0.00002423466914829679" opacity="0.5"/><path d="M1112.7588896516895,650A122.77332560919433,122.77332560919433 0,0,0 867.2122384333009,650" fill="none" stroke="gray" stroke-width="0.5420002972786082" opacity="0.5"/><path d="M1112.7588896516895,650A8.452574211851584,8.452574211851584 0,0,1 1129.6640380753927,650" fill="none" stroke="gray" stroke-width="0.00016156446098864526" opacity="0.5"/><path d="M1112.7588896516895,650A83.38665155431136,83.38665155431136 0,0,0 945.9855865430668,650" fill="none" stroke="gray" stroke-width="0.0006058667287074196" opacity="0.5"/><path d="M1112.7588896516895,650A77.78244126515096,77.78244126515096 0,0,0 957.1940071213876,650" fill="none" stroke="gray" stroke-width="0.00474999515306617" opacity="0.5"/><path d="M1112.7588896516895,650A15.289708534178544,15.289708534178544 0,0,1 1143.3383067200466,650" fill="none" stroke="gray" stroke-width="0.0010501689964261941" opacity="0.5"/><path d="M1112.7588896516895,650A63.146257081197916,63.146257081197916 0,0,0 986.4663754892937,650" fill="none" stroke="gray" stroke-width="0.562349341140128" opacity="0.5"/><path d="M1112.7588896516895,650A39.16582907265365,39.16582907265365 0,0,0 1034.4272315063822,650" fill="none" stroke="gray" stroke-width="0.0006704925131028779" opacity="0.5"/><path d="M1112.7588896516895,650A29.924359865740144,29.924359865740144 0,0,1 1172.6076093831698,650" fill="none" stroke="gray" stroke-width="0.12218312362266297" opacity="0.5"/><path d="M1129.6640380753927,650A174.77894938555988,174.77894938555988 0,0,0 780.1061393042729,650" fill="none" stroke="gray" stroke-width="0.005170062751636648" opacity="0.5"/><path d="M1129.6640380753927,650A98.17044716910954,98.17044716910954 0,0,0 933.3231437371736,650" fill="none" stroke="gray" stroke-width="0.6682386888720862" opacity="0.5"/><path d="M1129.6640380753927,650A57.76001144869355,57.76001144869355 0,0,0 1014.1440151780056,650" fill="none" stroke="gray" stroke-width="0.008078223049432263" opacity="0.5"/><path d="M1129.6640380753927,650A104.60295823930431,104.60295823930431 0,0,0 920.458121596784,650" fill="none" stroke="gray" stroke-width="0.010307812611075568" opacity="0.5"/><path d="M1129.6640380753927,650A40.115667474292536,40.115667474292536 0,0,0 1049.4327031268076,650" fill="none" stroke="gray" stroke-width="0.2770830505955266" opacity="0.5"/><path d="M1129.6640380753927,650A125.3675241387707,125.3675241387707 0,0,0 878.9289897978513,650" fill="none" stroke="gray" stroke-width="0.003029333643537098" opacity="0.5"/><path d="M1129.6640380753927,650A120.47206275481471,120.47206275481471 0,0,0 888.7199125657633,650" fill="none" stroke="gray" stroke-width="0.0005816320595591229" opacity="0.5"/><path d="M1129.6640380753927,650A551.1069996584392,551.1069996584392 0,0,0 27.450038758514143,650" fill="none" stroke="gray" stroke-width="0.03783839676354072" opacity="0.5"/><path d="M1129.6640380753927,650A219.1454769656358,219.1454769656358 0,0,0 691.3730841441211,650" fill="none" stroke="gray" stroke-width="0.0012036552343654072" opacity="0.5"/><path d="M1129.6640380753927,650A115.01969202560463,115.01969202560463 0,0,0 899.6246540241834,650" fill="none" stroke="gray" stroke-width="0.11235192617150391" opacity="0.5"/><path d="M1129.6640380753927,650A109.71918620659278,109.71918620659278 0,0,0 910.2256656622071,650" fill="none" stroke="gray" stroke-width="0.012707044856756949" opacity="0.5"/><path d="M1129.6640380753927,650A71.5988312930495,71.5988312930495 0,0,0 986.4663754892937,650" fill="none" stroke="gray" stroke-width="20" opacity="0.5"/><path d="M1129.6640380753927,650A21.47178565388856,21.47178565388856 0,0,1 1172.6076093831698,650" fill="none" stroke="gray" stroke-width="0.3058980722128515" opacity="0.5"/><path d="M812.5202363741377,650A387.9527967960299,387.9527967960299 0,0,0 36.614642782077894,650" fill="none" stroke="gray" stroke-width="0.0008078223049432263" opacity="0.5"/><path d="M812.5202363741377,650A180.04368650451607,180.04368650451607 0,0,1 1172.6076093831698,650" fill="none" stroke="gray" stroke-width="1.7337159179769546" opacity="0.5"/><path d="M1143.3383067200466,650A29.035580442427886,29.035580442427886 0,0,0 1085.2671458351908,650" fill="none" stroke="gray" stroke-width="0.0000646257843954581" opacity="0.5"/><path d="M1143.3383067200466,650A150.13780204306028,150.13780204306028 0,0,0 843.062702633926,650" fill="none" stroke="gray" stroke-width="0.006809942030671397" opacity="0.5"/><path d="M1143.3383067200466,650A186.42451561988997,186.42451561988997 0,0,0 770.4892754802667,650" fill="none" stroke="gray" stroke-width="0.0014379237027989425" opacity="0.5"/><path d="M1143.3383067200466,650A22.21424291501478,22.21424291501478 0,0,0 1098.909820890017,650" fill="none" stroke="gray" stroke-width="0.03471212444341043" opacity="0.5"/><path d="M1143.3383067200466,650A221.36549756154358,221.36549756154358 0,0,0 700.6073115969594,650" fill="none" stroke="gray" stroke-width="0.000008078223049432263" opacity="0.5"/><path d="M1143.3383067200466,650A105.0075814914365,105.0075814914365 0,0,0 933.3231437371736,650" fill="none" stroke="gray" stroke-width="0.042289497663777896" opacity="0.5"/><path d="M1143.3383067200466,650A35.62188100706669,35.62188100706669 0,0,0 1072.0945447059132,650" fill="none" stroke="gray" stroke-width="0.00013732979184034847" opacity="0.5"/><path d="M1143.3383067200466,650A64.59714577102051,64.59714577102051 0,0,0 1014.1440151780056,650" fill="none" stroke="gray" stroke-width="0.00008886045354375489" opacity="0.5"/><path d="M1143.3383067200466,650A144.76869228552727,144.76869228552727 0,0,0 853.8009221489921,650" fill="none" stroke="gray" stroke-width="0.0003635200372244518" opacity="0.5"/><path d="M1143.3383067200466,650A111.44009256163127,111.44009256163127 0,0,0 920.458121596784,650" fill="none" stroke="gray" stroke-width="0.023087561475277407" opacity="0.5"/><path d="M1143.3383067200466,650A46.9528017966195,46.9528017966195 0,0,0 1049.4327031268076,650" fill="none" stroke="gray" stroke-width="0.07354414264203132" opacity="0.5"/><path d="M1143.3383067200466,650A138.06303414337287,138.06303414337287 0,0,0 867.2122384333009,650" fill="none" stroke="gray" stroke-width="0.00033120714502672276" opacity="0.5"/><path d="M1143.3383067200466,650A175.79355159751822,175.79355159751822 0,0,0 791.7512035250102,650" fill="none" stroke="gray" stroke-width="0.007706624789158378" opacity="0.5"/><path d="M1143.3383067200466,650A157.86600869663937,157.86600869663937 0,0,0 827.6062893267679,650" fill="none" stroke="gray" stroke-width="0.004758073376115603" opacity="0.5"/><path d="M1143.3383067200466,650A132.20465846109767,132.20465846109767 0,0,0 878.9289897978513,650" fill="none" stroke="gray" stroke-width="0.001324828580106891" opacity="0.5"/><path d="M1143.3383067200466,650A127.30919707714168,127.30919707714168 0,0,0 888.7199125657633,650" fill="none" stroke="gray" stroke-width="0.0007755094127454972" opacity="0.5"/><path d="M1143.3383067200466,650A169.83388751816824,169.83388751816824 0,0,0 803.6705316837101,650" fill="none" stroke="gray" stroke-width="0.0002423466914829679" opacity="0.5"/><path d="M1143.3383067200466,650A60.16862115294276,60.16862115294276 0,0,0 1023.0010644141611,650" fill="none" stroke="gray" stroke-width="0.00017772090708750979" opacity="0.5"/><path d="M1143.3383067200466,650A5.937981177992924,5.937981177992924 0,0,1 1155.2142690760325,650" fill="none" stroke="gray" stroke-width="0.01646341857474295" opacity="0.5"/><path d="M1143.3383067200466,650A217.09414848647884,217.09414848647884 0,0,0 709.1500097470889,650" fill="none" stroke="gray" stroke-width="0.0008562916432398198" opacity="0.5"/><path d="M1143.3383067200466,650A6.8371343223269605,6.8371343223269605 0,0,0 1129.6640380753927,650" fill="none" stroke="gray" stroke-width="0.0063171704246560295" opacity="0.5"/><path d="M1143.3383067200466,650A98.6763600884899,98.6763600884899 0,0,0 945.9855865430668,650" fill="none" stroke="gray" stroke-width="0.0002342684684335356" opacity="0.5"/><path d="M1143.3383067200466,650A211.58406362613334,211.58406362613334 0,0,0 720.1701794677799,650" fill="none" stroke="gray" stroke-width="0.0012117334574148393" opacity="0.5"/><path d="M1143.3383067200466,650A121.85682634793159,121.85682634793159 0,0,0 899.6246540241834,650" fill="none" stroke="gray" stroke-width="0.00020195557623580658" opacity="0.5"/><path d="M1143.3383067200466,650A116.55632052891974,116.55632052891974 0,0,0 910.2256656622071,650" fill="none" stroke="gray" stroke-width="0.0007593529666466327" opacity="0.5"/><path d="M1143.3383067200466,650A93.07214979932951,93.07214979932951 0,0,0 957.1940071213876,650" fill="none" stroke="gray" stroke-width="0.0013490632492551878" opacity="0.5"/><path d="M1143.3383067200466,650A54.455537606832195,54.455537606832195 0,0,0 1034.4272315063822,650" fill="none" stroke="gray" stroke-width="0.003263602111970634" opacity="0.5"/><path d="M1143.3383067200466,650A14.6346513315616,14.6346513315616 0,0,1 1172.6076093831698,650" fill="none" stroke="gray" stroke-width="0.14164356294874528" opacity="0.5"/><path d="M1062.1382711113386,650A18.385774889339245,18.385774889339245 0,0,1 1098.909820890017,650" fill="none" stroke="gray" stroke-width="0.000040391115247161315" opacity="0.5"/><path d="M1062.1382711113386,650A216.90641188476894,216.90641188476894 0,0,0 628.3254473418007,650" fill="none" stroke="gray" stroke-width="0" opacity="0.5"/><path d="M1062.1382711113386,650A117.26599089228534,117.26599089228534 0,0,0 827.6062893267679,650" fill="none" stroke="gray" stroke-width="0.4137423499227722" opacity="0.5"/><path d="M1062.1382711113386,650A151.41548153477243,151.41548153477243 0,0,0 759.3073080417937,650" fill="none" stroke="gray" stroke-width="0.016075663868370203" opacity="0.5"/><path d="M1062.1382711113386,650A156.73336241825365,156.73336241825365 0,0,0 748.6715462748313,650" fill="none" stroke="gray" stroke-width="0.00012117334574148395" opacity="0.5"/><path d="M1062.1382711113386,650A55.234669135915624,55.234669135915624 0,0,1 1172.6076093831698,650" fill="none" stroke="gray" stroke-width="0.00009693867659318716" opacity="0.5"/><path d="M1172.6076093831698,650A563.7737285955949,563.7737285955949 0,0,0 45.06015219198006,650" fill="none" stroke="gray" stroke-width="0.00027465958368069694" opacity="0.5"/><path d="M1172.6076093831698,650A559.5590004007337,559.5590004007337 0,0,0 53.48960858170242,650" fill="none" stroke="gray" stroke-width="0.0005977885056579874" opacity="0.5"/><path d="M1172.6076093831698,650A555.2624728654207,555.2624728654207 0,0,0 62.08266365232841,650" fill="none" stroke="gray" stroke-width="0.0032555238889212016" opacity="0.5"/><path d="M1172.6076093831698,650A43.670231773989485,43.670231773989485 0,0,0 1085.2671458351908,650" fill="none" stroke="gray" stroke-width="0.931104066900612" opacity="0.5"/><path d="M1172.6076093831698,650A164.77245337462188,164.77245337462188 0,0,0 843.062702633926,650" fill="none" stroke="gray" stroke-width="0.0022457460077421687" opacity="0.5"/><path d="M1172.6076093831698,650A550.9962998376393,550.9962998376393 0,0,0 70.61500970789113,650" fill="none" stroke="gray" stroke-width="0.00008886045354375489" opacity="0.5"/><path d="M1172.6076093831698,650A545.5005022192038,545.5005022192038 0,0,0 81.60660494476227,650" fill="none" stroke="gray" stroke-width="0.4430582213691619" opacity="0.5"/><path d="M1172.6076093831698,650A539.8081107453753,539.8081107453753 0,0,0 92.99138789241927,650" fill="none" stroke="gray" stroke-width="0.01139029449969949" opacity="0.5"/><path d="M1172.6076093831698,650A201.05916695145157,201.05916695145157 0,0,0 770.4892754802667,650" fill="none" stroke="gray" stroke-width="0.06684729573405197" opacity="0.5"/><path d="M1172.6076093831698,650A535.2587319527107,535.2587319527107 0,0,0 102.09014547774846,650" fill="none" stroke="gray" stroke-width="0.009984683689098276" opacity="0.5"/><path d="M1172.6076093831698,650A282.1244752746112,282.1244752746112 0,0,0 608.3586588339474,650" fill="none" stroke="gray" stroke-width="0.09787575046692129" opacity="0.5"/><path d="M1172.6076093831698,650A530.8794118527419,530.8794118527419 0,0,0 110.84878567768604,650" fill="none" stroke="gray" stroke-width="0.0005089280521142325" opacity="0.5"/><path d="M1172.6076093831698,650A526.6675322000744,526.6675322000744 0,0,0 119.27254498302095,650" fill="none" stroke="gray" stroke-width="0.00029081602977956147" opacity="0.5"/><path d="M1172.6076093831698,650A196.25073503944844,196.25073503944844 0,0,0 780.1061393042729,650" fill="none" stroke="gray" stroke-width="0.0001696426840380775" opacity="0.5"/><path d="M1172.6076093831698,650A522.2638282987732,522.2638282987732 0,0,0 128.07995278562336,650" fill="none" stroke="gray" stroke-width="0.013805683191479737" opacity="0.5"/><path d="M1172.6076093831698,650A36.84889424657638,36.84889424657638 0,0,0 1098.909820890017,650" fill="none" stroke="gray" stroke-width="0.09928943950057194" opacity="0.5"/><path d="M1172.6076093831698,650A517.8543816378008,517.8543816378008 0,0,0 136.8988461075682,650" fill="none" stroke="gray" stroke-width="0.00039583292942218086" opacity="0.5"/><path d="M1172.6076093831698,650A513.4417611435624,513.4417611435624 0,0,0 145.72408709604505,650" fill="none" stroke="gray" stroke-width="0.01417728145175362" opacity="0.5"/><path d="M1172.6076093831698,650A236.00014889310518,236.00014889310518 0,0,0 700.6073115969594,650" fill="none" stroke="gray" stroke-width="0.00008078223049432263" opacity="0.5"/><path d="M1172.6076093831698,650A508.73467944615703,508.73467944615703 0,0,0 155.1382504908557,650" fill="none" stroke="gray" stroke-width="0.027433645475871963" opacity="0.5"/><path d="M1172.6076093831698,650A504.17038189919145,504.17038189919145 0,0,0 164.2668455847869,650" fill="none" stroke="gray" stroke-width="0.002342684684335356" opacity="0.5"/><path d="M1172.6076093831698,650A262.79255944180744,262.79255944180744 0,0,0 647.0224904995549,650" fill="none" stroke="gray" stroke-width="0.03128695787045115" opacity="0.5"/><path d="M1172.6076093831698,650A257.98369173782214,257.98369173782214 0,0,0 656.6402259075255,650" fill="none" stroke="gray" stroke-width="0.025018256784091718" opacity="0.5"/><path d="M1172.6076093831698,650A119.6422328229981,119.6422328229981 0,0,0 933.3231437371736,650" fill="none" stroke="gray" stroke-width="0.017796325377899273" opacity="0.5"/><path d="M1172.6076093831698,650A499.7835778053183,499.7835778053183 0,0,0 173.04045377253317,650" fill="none" stroke="gray" stroke-width="0.006050589064024764" opacity="0.5"/><path d="M1172.6076093831698,650A50.25653233862829,50.25653233862829 0,0,0 1072.0945447059132,650" fill="none" stroke="gray" stroke-width="0.016188758991062254" opacity="0.5"/><path d="M1172.6076093831698,650A495.2872724645527,495.2872724645527 0,0,0 182.03306445406443,650" fill="none" stroke="gray" stroke-width="0.010525924633410236" opacity="0.5"/><path d="M1172.6076093831698,650A490.18268658263986,490.18268658263986 0,0,0 192.24223621789008,650" fill="none" stroke="gray" stroke-width="0.14351771069621358" opacity="0.5"/><path d="M1172.6076093831698,650A485.2390980122114,485.2390980122114 0,0,0 202.12941335874697,650" fill="none" stroke="gray" stroke-width="0.0005250844982130971" opacity="0.5"/><path d="M1172.6076093831698,650A79.2317971025821,79.2317971025821 0,0,0 1014.1440151780056,650" fill="none" stroke="gray" stroke-width="0.002318450015187059" opacity="0.5"/><path d="M1172.6076093831698,650A159.40334361708886,159.40334361708886 0,0,0 853.8009221489921,650" fill="none" stroke="gray" stroke-width="0.18407039040436352" opacity="0.5"/><path d="M1172.6076093831698,650A126.07474389319287,126.07474389319287 0,0,0 920.458121596784,650" fill="none" stroke="gray" stroke-width="0.026407711148594068" opacity="0.5"/><path d="M1172.6076093831698,650A481.04947153136067,481.04947153136067 0,0,0 210.50866632044844,650" fill="none" stroke="gray" stroke-width="0.00003231289219772905" opacity="0.5"/><path d="M1172.6076093831698,650A476.5142880936805,476.5142880936805 0,0,0 219.57903319580882,650" fill="none" stroke="gray" stroke-width="0.03761220651815661" opacity="0.5"/><path d="M1172.6076093831698,650A61.587453128181096,61.587453128181096 0,0,0 1049.4327031268076,650" fill="none" stroke="gray" stroke-width="0.5114242230365071" opacity="0.5"/><path d="M1172.6076093831698,650A253.14391365877879,253.14391365877879 0,0,0 666.3197820656122,650" fill="none" stroke="gray" stroke-width="0.03684477532846055" opacity="0.5"/><path d="M1172.6076093831698,650A471.9765233444328,471.9765233444328 0,0,0 228.6545626943042,650" fill="none" stroke="gray" stroke-width="0.00004846933829659358" opacity="0.5"/><path d="M1172.6076093831698,650A467.7633978820595,467.7633978820595 0,0,0 237.08081361905073,650" fill="none" stroke="gray" stroke-width="0.00110671655777222" opacity="0.5"/><path d="M1172.6076093831698,650A463.2599188158647,463.2599188158647 0,0,0 246.0877717514404,650" fill="none" stroke="gray" stroke-width="0.022699806768904655" opacity="0.5"/><path d="M1172.6076093831698,650A152.69768547493447,152.69768547493447 0,0,0 867.2122384333009,650" fill="none" stroke="gray" stroke-width="0.030931516056276132" opacity="0.5"/><path d="M1172.6076093831698,650A276.78613936734394,276.78613936734394 0,0,0 619.0353306484819,650" fill="none" stroke="gray" stroke-width="0.048412790735247554" opacity="0.5"/><path d="M1172.6076093831698,650A218.59234716806043,218.59234716806043 0,0,0 735.422915047049,650" fill="none" stroke="gray" stroke-width="1.196287894944325" opacity="0.5"/><path d="M1172.6076093831698,650A190.42820292907982,190.42820292907982 0,0,0 791.7512035250102,650" fill="none" stroke="gray" stroke-width="0.5752744980192197" opacity="0.5"/><path d="M1172.6076093831698,650A458.64114927083546,458.64114927083546 0,0,0 255.3253108414989,650" fill="none" stroke="gray" stroke-width="0.008159005279926586" opacity="0.5"/><path d="M1172.6076093831698,650A454.30243569470025,454.30243569470025 0,0,0 264.0027379937693,650" fill="none" stroke="gray" stroke-width="0.00014540801488978073" opacity="0.5"/><path d="M1172.6076093831698,650A302.39843727193823,302.39843727193823 0,0,0 567.8107348392933,650" fill="none" stroke="gray" stroke-width="0.3949604813328422" opacity="0.5"/><path d="M1172.6076093831698,650A449.62648633034485,449.62648633034485 0,0,0 273.35463672248017,650" fill="none" stroke="gray" stroke-width="0.06616872499789966" opacity="0.5"/><path d="M1172.6076093831698,650A443.42124346640344,443.42124346640344 0,0,0 285.7651224503629,650" fill="none" stroke="gray" stroke-width="0.5912693796570956" opacity="0.5"/><path d="M1172.6076093831698,650A172.50066002820097,172.50066002820097 0,0,0 827.6062893267679,650" fill="none" stroke="gray" stroke-width="2.408126369258807" opacity="0.5"/><path d="M1172.6076093831698,650A436.8584166051885,436.8584166051885 0,0,0 298.8907761727928,650" fill="none" stroke="gray" stroke-width="0.1885376477506996" opacity="0.5"/><path d="M1172.6076093831698,650A431.73789146786044,431.73789146786044 0,0,0 309.13182644744893,650" fill="none" stroke="gray" stroke-width="0.0030374118665865307" opacity="0.5"/><path d="M1172.6076093831698,650A426.84057363159513,426.84057363159513 0,0,0 318.9264621199795,650" fill="none" stroke="gray" stroke-width="0.10480686584333418" opacity="0.5"/><path d="M1172.6076093831698,650A146.83930979265926,146.83930979265926 0,0,0 878.9289897978513,650" fill="none" stroke="gray" stroke-width="0.005121593413340054" opacity="0.5"/><path d="M1172.6076093831698,650A141.94384840870327,141.94384840870327 0,0,0 888.7199125657633,650" fill="none" stroke="gray" stroke-width="0.0773732203674622" opacity="0.5"/><path d="M1172.6076093831698,650A184.46853884972984,184.46853884972984 0,0,0 803.6705316837101,650" fill="none" stroke="gray" stroke-width="0.019638160233169832" opacity="0.5"/><path d="M1172.6076093831698,650A74.80327248450436,74.80327248450436 0,0,0 1023.0010644141611,650" fill="none" stroke="gray" stroke-width="0.0017933655169739622" opacity="0.5"/><path d="M1172.6076093831698,650A422.03471853381393,422.03471853381393 0,0,0 328.5381723155419,650" fill="none" stroke="gray" stroke-width="0.00009693867659318716" opacity="0.5"/><path d="M1172.6076093831698,650A415.97838637256507,415.97838637256507 0,0,0 340.65083663803966,650" fill="none" stroke="gray" stroke-width="0.8885479878762028" opacity="0.5"/><path d="M1172.6076093831698,650A409.6871218535641,409.6871218535641 0,0,0 353.2333656760416,650" fill="none" stroke="gray" stroke-width="0.015906021184332125" opacity="0.5"/><path d="M1172.6076093831698,650A405.2264643573394,405.2264643573394 0,0,0 362.154680668491,650" fill="none" stroke="gray" stroke-width="0.0013409850262057557" opacity="0.5"/><path d="M1172.6076093831698,650A400.79049203112777,400.79049203112777 0,0,0 371.02662532091426,650" fill="none" stroke="gray" stroke-width="0.012973626217388214" opacity="0.5"/><path d="M1172.6076093831698,650A395.3787310063464,395.3787310063464 0,0,0 381.850147370477,650" fill="none" stroke="gray" stroke-width="0.2699419014198285" opacity="0.5"/><path d="M1172.6076093831698,650A296.730294028985,296.730294028985 0,0,0 579.1470213251998,650" fill="none" stroke="gray" stroke-width="0.007763172350504404" opacity="0.5"/><path d="M1172.6076093831698,650A8.696670153568675,8.696670153568675 0,0,0 1155.2142690760325,650" fill="none" stroke="gray" stroke-width="0.2602561119835592" opacity="0.5"/><path d="M1172.6076093831698,650A231.72879981804044,231.72879981804044 0,0,0 709.1500097470889,650" fill="none" stroke="gray" stroke-width="0.0026981264985103757" opacity="0.5"/><path d="M1172.6076093831698,650A29.924359865740144,29.924359865740144 0,0,0 1112.7588896516895,650" fill="none" stroke="gray" stroke-width="0.531773266898027" opacity="0.5"/><path d="M1172.6076093831698,650A390.15691135465795,390.15691135465795 0,0,0 392.29378667385384,650" fill="none" stroke="gray" stroke-width="0.00039583292942218086" opacity="0.5"/><path d="M1172.6076093831698,650A385.61917816922534,385.61917816922534 0,0,0 401.36925304471913,650" fill="none" stroke="gray" stroke-width="0.03275719446544782" opacity="0.5"/><path d="M1172.6076093831698,650A381.0532114220613,381.0532114220613 0,0,0 410.5011865390473,650" fill="none" stroke="gray" stroke-width="0.0011471076730193812" opacity="0.5"/><path d="M1172.6076093831698,650A376.83144975063465,376.83144975063465 0,0,0 418.9447098819005,650" fill="none" stroke="gray" stroke-width="0.00011309512269205167" opacity="0.5"/><path d="M1172.6076093831698,650A372.1688252634235,372.1688252634235 0,0,0 428.2699588563227,650" fill="none" stroke="gray" stroke-width="0.06353522428378475" opacity="0.5"/><path d="M1172.6076093831698,650A21.47178565388856,21.47178565388856 0,0,0 1129.6640380753927,650" fill="none" stroke="gray" stroke-width="1.2531020376509818" opacity="0.5"/><path d="M1172.6076093831698,650A367.3188853907019,367.3188853907019 0,0,0 437.96983860176596,650" fill="none" stroke="gray" stroke-width="0.010679410871349451" opacity="0.5"/><path d="M1172.6076093831698,650A362.74187938260786,362.74187938260786 0,0,0 447.12385061795413,650" fill="none" stroke="gray" stroke-width="0.013684509845738253" opacity="0.5"/><path d="M1172.6076093831698,650A113.3110114200515,113.3110114200515 0,0,0 945.9855865430668,650" fill="none" stroke="gray" stroke-width="0.05263770139010062" opacity="0.5"/><path d="M1172.6076093831698,650A358.3382754510356,358.3382754510356 0,0,0 455.9310584810986,650" fill="none" stroke="gray" stroke-width="0.00030697247587842594" opacity="0.5"/><path d="M1172.6076093831698,650A240.61726261952435,240.61726261952435 0,0,0 691.3730841441211,650" fill="none" stroke="gray" stroke-width="0.05203991288444263" opacity="0.5"/><path d="M1172.6076093831698,650A353.85455570533634,353.85455570533634 0,0,0 464.8984979724971,650" fill="none" stroke="gray" stroke-width="0.02453356340112578" opacity="0.5"/><path d="M1172.6076093831698,650A226.21871495769494,226.21871495769494 0,0,0 720.1701794677799,650" fill="none" stroke="gray" stroke-width="0.3863006262238508" opacity="0.5"/><path d="M1172.6076093831698,650A291.8558599736064,291.8558599736064 0,0,0 588.895889435957,650" fill="none" stroke="gray" stroke-width="0.07745400259795654" opacity="0.5"/><path d="M1172.6076093831698,650A206.65015067068805,206.65015067068805 0,0,0 759.3073080417937,650" fill="none" stroke="gray" stroke-width="0.19592114361788066" opacity="0.5"/><path d="M1172.6076093831698,650A136.4914776794932,136.4914776794932 0,0,0 899.6246540241834,650" fill="none" stroke="gray" stroke-width="0.026536962717384982" opacity="0.5"/><path d="M1172.6076093831698,650A349.1111124944263,349.1111124944263 0,0,0 474.38538439431716,650" fill="none" stroke="gray" stroke-width="0.021334587073550605" opacity="0.5"/><path d="M1172.6076093831698,650A131.19097186048134,131.19097186048134 0,0,0 910.2256656622071,650" fill="none" stroke="gray" stroke-width="0.028726161163781128" opacity="0.5"/><path d="M1172.6076093831698,650A267.6405657438218,267.6405657438218 0,0,0 637.3264778955262,650" fill="none" stroke="gray" stroke-width="0.03152122633888469" opacity="0.5"/><path d="M1172.6076093831698,650A246.9195269605217,246.9195269605217 0,0,0 678.7685554621264,650" fill="none" stroke="gray" stroke-width="0.7112956177255602" opacity="0.5"/><path d="M1172.6076093831698,650A107.70680113089111,107.70680113089111 0,0,0 957.1940071213876,650" fill="none" stroke="gray" stroke-width="0.22121405998565308" opacity="0.5"/><path d="M1172.6076093831698,650A14.6346513315616,14.6346513315616 0,0,0 1143.3383067200466,650" fill="none" stroke="gray" stroke-width="0.04565003845234172" opacity="0.5"/><path d="M1172.6076093831698,650A344.39154782824386,344.39154782824386 0,0,0 483.8245137266821,650" fill="none" stroke="gray" stroke-width="0.020971067036326153" opacity="0.5"/><path d="M1172.6076093831698,650A55.234669135915624,55.234669135915624 0,0,0 1062.1382711113386,650" fill="none" stroke="gray" stroke-width="0.027490193037217992" opacity="0.5"/><path d="M1172.6076093831698,650A339.8917917883973,339.8917917883973 0,0,0 492.8240258063751,650" fill="none" stroke="gray" stroke-width="0.0013894543645023491" opacity="0.5"/><path d="M1172.6076093831698,650A334.48010555271844,334.48010555271844 0,0,0 503.647398277733,650" fill="none" stroke="gray" stroke-width="0.35539334483672297" opacity="0.5"/><path d="M1172.6076093831698,650A328.54764862185175,328.54764862185175 0,0,0 515.5123121394663,650" fill="none" stroke="gray" stroke-width="0.0870347751345832" opacity="0.5"/><path d="M1172.6076093831698,650A211.96803155416927,211.96803155416927 0,0,0 748.6715462748313,650" fill="none" stroke="gray" stroke-width="0.015413249578316756" opacity="0.5"/><path d="M1172.6076093831698,650A323.7333883786368,323.7333883786368 0,0,0 525.1408326258962,650" fill="none" stroke="gray" stroke-width="0.0018256784091716914" opacity="0.5"/><path d="M1172.6076093831698,650A93.07061694693806,93.07061694693806 0,0,0 986.4663754892937,650" fill="none" stroke="gray" stroke-width="1.0870460846468524" opacity="0.5"/><path d="M1172.6076093831698,650A319.1983722571901,319.1983722571901 0,0,0 534.2108648687896,650" fill="none" stroke="gray" stroke-width="0.02459011096247181" opacity="0.5"/><path d="M1172.6076093831698,650A313.65697874338025,313.65697874338025 0,0,0 545.2936518964093,650" fill="none" stroke="gray" stroke-width="0.29247206550469507" opacity="0.5"/><path d="M1172.6076093831698,650A69.0901889383938,69.0901889383938 0,0,0 1034.4272315063822,650" fill="none" stroke="gray" stroke-width="0.539043667642516" opacity="0.5"/><path d="M1172.6076093831698,650A287.06032596279823,287.06032596279823 0,0,0 598.4869574575733,650" fill="none" stroke="gray" stroke-width="0.0024880926992251365" opacity="0.5"/><path d="M1172.6076093831698,650A308.1596614185591,308.1596614185591 0,0,0 556.2882865460516,650" fill="none" stroke="gray" stroke-width="0.018224471199519185" opacity="0.5"/></g><g id="nodes"><g><circle cx="1.406074430623942" cy="650" r="1.406074430623942"/><text transform="translate(1.406074430623942,656.4060744306239) rotate(-90)" alignment-baseline="middle" font-family="Helvetica, Arial, sans-serif" font-size="12" text-anchor="end">Faeroe Isds</text></g><g><circle cx="10.106219394811268" cy="650" r="1.030387827858482"/><text transform="translate(10.106219394811268,656.0303878278585) rotate(-90)" alignment-baseline="middle" font-family="Helvetica, Arial, sans-serif" font-size="12" text-anchor="end">Ireland</text></g><g><circle cx="18.40028992837465" cy="650" r="1"/><text transform="translate(18.40028992837465,656) rotate(-90)" alignment-baseline="middle" font-family="Helvetica, Arial, sans-serif" font-size="12" text-anchor="end">Malta</text></g><g><circle cx="27.450038758514143" cy="650" r="1.7860661244345906"/><text transform="translate(27.450038758514143,656.7860661244346) rotate(-90)" alignment-baseline="middle" font-family="Helvetica, Arial, sans-serif" font-size="12" text-anchor="end">Rwanda</text></g><g><circle cx="36.614642782077894" cy="650" r="1.1148551934242623"/><text transform="translate(36.614642782077894,656.1148551934243) rotate(-90)" alignment-baseline="middle" font-family="Helvetica, Arial, sans-serif" font-size="12" text-anchor="end">Cabo Verde</text></g><g><circle cx="45.06015219198006" cy="650" r="1.0669715107730027"/><text transform="translate(45.06015219198006,656.066971510773) rotate(-90)" alignment-baseline="middle" font-family="Helvetica, Arial, sans-serif" font-size="12" text-anchor="end">Algeria</text></g><g><circle cx="53.48960858170242" cy="650" r="1.09880217324446"/><text transform="translate(53.48960858170242,656.0988021732445) rotate(-90)" alignment-baseline="middle" font-family="Helvetica, Arial, sans-serif" font-size="12" text-anchor="end">Angola</text></g><g><circle cx="62.08266365232841" cy="650" r="1.2305701916766227"/><text transform="translate(62.08266365232841,656.2305701916766) rotate(-90)" alignment-baseline="middle" font-family="Helvetica, Arial, sans-serif" font-size="12" text-anchor="end">Argentina</text></g><g><circle cx="70.61500970789113" cy="650" r="1.0380931581811974"/><text transform="translate(70.61500970789113,656.0380931581811) rotate(-90)" alignment-baseline="middle" font-family="Helvetica, Arial, sans-serif" font-size="12" text-anchor="end">Bahamas</text></g><g><circle cx="81.60660494476227" cy="650" r="3.689819372985023"/><text transform="translate(81.60660494476227,658.689819372985) rotate(-90)" alignment-baseline="middle" font-family="Helvetica, Arial, sans-serif" font-size="12" text-anchor="end">Bahrain</text></g><g><circle cx="92.99138789241927" cy="650" r="1.4312808689670786"/><text transform="translate(92.99138789241927,656.4312808689671) rotate(-90)" alignment-baseline="middle" font-family="Helvetica, Arial, sans-serif" font-size="12" text-anchor="end">Barbados</text></g><g><circle cx="102.09014547774846" cy="650" r="1.4037940106572229"/><text transform="translate(102.09014547774846,656.4037940106572) rotate(-90)" alignment-baseline="middle" font-family="Helvetica, Arial, sans-serif" font-size="12" text-anchor="end">Bosnia Herzegovina</text></g><g><circle cx="110.84878567768604" cy="650" r="1.0911634835754458"/><text transform="translate(110.84878567768604,656.0911634835754) rotate(-90)" alignment-baseline="middle" font-family="Helvetica, Arial, sans-serif" font-size="12" text-anchor="end">Belize</text></g><g><circle cx="119.27254498302095" cy="650" r="1.0689131160545573"/><text transform="translate(119.27254498302095,656.0689131160545) rotate(-90)" alignment-baseline="middle" font-family="Helvetica, Arial, sans-serif" font-size="12" text-anchor="end">Brunei Darussalam</text></g><g><circle cx="128.07995278562336" cy="650" r="1.4748119808429514"/><text transform="translate(128.07995278562336,656.4748119808429) rotate(-90)" alignment-baseline="middle" font-family="Helvetica, Arial, sans-serif" font-size="12" text-anchor="end">Cameroon</text></g><g><circle cx="136.8988461075682" cy="650" r="1.0803986353969837"/><text transform="translate(136.8988461075682,656.0803986353969) rotate(-90)" alignment-baseline="middle" font-family="Helvetica, Arial, sans-serif" font-size="12" text-anchor="end">Central African Rep.</text></g><g><circle cx="145.72408709604505" cy="650" r="1.4811596473749733"/><text transform="translate(145.72408709604505,656.481159647375) rotate(-90)" alignment-baseline="middle" font-family="Helvetica, Arial, sans-serif" font-size="12" text-anchor="end">Chile</text></g><g><circle cx="155.1382504908557" cy="650" r="1.669321041730782"/><text transform="translate(155.1382504908557,656.6693210417308) rotate(-90)" alignment-baseline="middle" font-family="Helvetica, Arial, sans-serif" font-size="12" text-anchor="end">Colombia</text></g><g><circle cx="164.2668455847869" cy="650" r="1.1955913464954973"/><text transform="translate(164.2668455847869,656.1955913464955) rotate(-90)" alignment-baseline="middle" font-family="Helvetica, Arial, sans-serif" font-size="12" text-anchor="end">Costa Rica</text></g><g><circle cx="173.04045377253317" cy="650" r="1.314334135545871"/><text transform="translate(173.04045377253317,656.3143341355459) rotate(-90)" alignment-baseline="middle" font-family="Helvetica, Arial, sans-serif" font-size="12" text-anchor="end">Benin</text></g><g><circle cx="182.03306445406443" cy="650" r="1.414593840280481"/><text transform="translate(182.03306445406443,656.4145938402805) rotate(-90)" alignment-baseline="middle" font-family="Helvetica, Arial, sans-serif" font-size="12" text-anchor="end">Dominican Rep.</text></g><g><circle cx="192.24223621789008" cy="650" r="2.530895217840261"/><text transform="translate(192.24223621789008,657.5308952178402) rotate(-90)" alignment-baseline="middle" font-family="Helvetica, Arial, sans-serif" font-size="12" text-anchor="end">Ecuador</text></g><g><circle cx="202.12941335874697" cy="650" r="1.0925992173117087"/><text transform="translate(202.12941335874697,656.0925992173117) rotate(-90)" alignment-baseline="middle" font-family="Helvetica, Arial, sans-serif" font-size="12" text-anchor="end">El Salvador</text></g><g><circle cx="210.50866632044844" cy="650" r="1.0229710386848525"/><text transform="translate(210.50866632044844,656.0229710386849) rotate(-90)" alignment-baseline="middle" font-family="Helvetica, Arial, sans-serif" font-size="12" text-anchor="end">Djibouti</text></g><g><circle cx="219.57903319580882" cy="650" r="1.7837131309706318"/><text transform="translate(219.57903319580882,656.7837131309707) rotate(-90)" alignment-baseline="middle" font-family="Helvetica, Arial, sans-serif" font-size="12" text-anchor="end">Georgia</text></g><g><circle cx="228.6545626943042" cy="650" r="1.028133661819811"/><text transform="translate(228.6545626943042,656.0281336618198) rotate(-90)" alignment-baseline="middle" font-family="Helvetica, Arial, sans-serif" font-size="12" text-anchor="end">Guatemala</text></g><g><circle cx="237.08081361905073" cy="650" r="1.1344345572218648"/><text transform="translate(237.08081361905073,656.1344345572219) rotate(-90)" alignment-baseline="middle" font-family="Helvetica, Arial, sans-serif" font-size="12" text-anchor="end">Haiti</text></g><g><circle cx="246.0877717514404" cy="650" r="1.6088408694629033"/><text transform="translate(246.0877717514404,656.6088408694629) rotate(-90)" alignment-baseline="middle" font-family="Helvetica, Arial, sans-serif" font-size="12" text-anchor="end">Honduras</text></g><g><circle cx="255.3253108414989" cy="650" r="1.3650155148906682"/><text transform="translate(255.3253108414989,656.3650155148906) rotate(-90)" alignment-baseline="middle" font-family="Helvetica, Arial, sans-serif" font-size="12" text-anchor="end">Côte d'Ivoire</text></g><g><circle cx="264.0027379937693" cy="650" r="1.0487289316748731"/><text transform="translate(264.0027379937693,656.0487289316749) rotate(-90)" alignment-baseline="middle" font-family="Helvetica, Arial, sans-serif" font-size="12" text-anchor="end">Jamaica</text></g><g><circle cx="273.35463672248017" cy="650" r="2.039487091331075"/><text transform="translate(273.35463672248017,657.0394870913311) rotate(-90)" alignment-baseline="middle" font-family="Helvetica, Arial, sans-serif" font-size="12" text-anchor="end">Kazakhstan</text></g><g><circle cx="285.7651224503629" cy="650" r="4.10731593084677"/><text transform="translate(285.7651224503629,659.1073159308468) rotate(-90)" alignment-baseline="middle" font-family="Helvetica, Arial, sans-serif" font-size="12" text-anchor="end">Jordan</text></g><g><circle cx="298.8907761727928" cy="650" r="2.7546550858782197"/><text transform="translate(298.8907761727928,657.7546550858782) rotate(-90)" alignment-baseline="middle" font-family="Helvetica, Arial, sans-serif" font-size="12" text-anchor="end">Kuwait</text></g><g><circle cx="309.13182644744893" cy="650" r="1.2227124830729812"/><text transform="translate(309.13182644744893,656.222712483073) rotate(-90)" alignment-baseline="middle" font-family="Helvetica, Arial, sans-serif" font-size="12" text-anchor="end">Kyrgyzstan</text></g><g><circle cx="318.9264621199795" cy="650" r="2.308240483752707"/><text transform="translate(318.9264621199795,657.3082404837527) rotate(-90)" alignment-baseline="middle" font-family="Helvetica, Arial, sans-serif" font-size="12" text-anchor="end">Lebanon</text></g><g><circle cx="328.5381723155419" cy="650" r="1.0397870061047947"/><text transform="translate(328.5381723155419,656.0397870061048) rotate(-90)" alignment-baseline="middle" font-family="Helvetica, Arial, sans-serif" font-size="12" text-anchor="end">Maldives</text></g><g><circle cx="340.65083663803966" cy="650" r="4.809194610688094"/><text transform="translate(340.65083663803966,659.8091946106881) rotate(-90)" alignment-baseline="middle" font-family="Helvetica, Arial, sans-serif" font-size="12" text-anchor="end">Mexico</text></g><g><circle cx="353.2333656760416" cy="650" r="1.5096517216089547"/><text transform="translate(353.2333656760416,656.509651721609) rotate(-90)" alignment-baseline="middle" font-family="Helvetica, Arial, sans-serif" font-size="12" text-anchor="end">Other Asia nes</text></g><g><circle cx="362.154680668491" cy="650" r="1.1479805651355306"/><text transform="translate(362.154680668491,656.1479805651355) rotate(-90)" alignment-baseline="middle" font-family="Helvetica, Arial, sans-serif" font-size="12" text-anchor="end">Mongolia</text></g><g><circle cx="371.02662532091426" cy="650" r="1.460281381582817"/><text transform="translate(371.02662532091426,656.4602813815828) rotate(-90)" alignment-baseline="middle" font-family="Helvetica, Arial, sans-serif" font-size="12" text-anchor="end">Rep. of Moldova</text></g><g><circle cx="381.850147370477" cy="650" r="3.0995579622749876"/><text transform="translate(381.850147370477,658.099557962275) rotate(-90)" alignment-baseline="middle" font-family="Helvetica, Arial, sans-serif" font-size="12" text-anchor="end">Morocco</text></g><g><circle cx="392.29378667385384" cy="650" r="1.0803986353969837"/><text transform="translate(392.29378667385384,656.0803986353969) rotate(-90)" alignment-baseline="middle" font-family="Helvetica, Arial, sans-serif" font-size="12" text-anchor="end">Pakistan</text></g><g><circle cx="401.36925304471913" cy="650" r="1.7313850297634463"/><text transform="translate(401.36925304471913,656.7313850297635) rotate(-90)" alignment-baseline="middle" font-family="Helvetica, Arial, sans-serif" font-size="12" text-anchor="end">Panama</text></g><g><circle cx="410.5011865390473" cy="650" r="1.136865758859786"/><text transform="translate(410.5011865390473,656.1368657588598) rotate(-90)" alignment-baseline="middle" font-family="Helvetica, Arial, sans-serif" font-size="12" text-anchor="end">Papua New Guinea</text></g><g><circle cx="418.9447098819005" cy="650" r="1.0429748782885242"/><text transform="translate(418.9447098819005,656.0429748782885) rotate(-90)" alignment-baseline="middle" font-family="Helvetica, Arial, sans-serif" font-size="12" text-anchor="end">Paraguay</text></g><g><circle cx="428.2699588563227" cy="650" r="2.0185913904287958"/><text transform="translate(428.2699588563227,657.0185913904288) rotate(-90)" alignment-baseline="middle" font-family="Helvetica, Arial, sans-serif" font-size="12" text-anchor="end">Philippines</text></g><g><circle cx="437.96983860176596" cy="650" r="1.417605649309557"/><text transform="translate(437.96983860176596,656.4176056493095) rotate(-90)" alignment-baseline="middle" font-family="Helvetica, Arial, sans-serif" font-size="12" text-anchor="end">Timor-Leste</text></g><g><circle cx="447.12385061795413" cy="650" r="1.4727236611737649"/><text transform="translate(447.12385061795413,656.4727236611737) rotate(-90)" alignment-baseline="middle" font-family="Helvetica, Arial, sans-serif" font-size="12" text-anchor="end">Qatar</text></g><g><circle cx="455.9310584810986" cy="650" r="1.0708014962658232"/><text transform="translate(455.9310584810986,656.0708014962659) rotate(-90)" alignment-baseline="middle" font-family="Helvetica, Arial, sans-serif" font-size="12" text-anchor="end">Saint Kitts and Nevis</text></g><g><circle cx="464.8984979724971" cy="650" r="1.6329552894278199"/><text transform="translate(464.8984979724971,656.6329552894279) rotate(-90)" alignment-baseline="middle" font-family="Helvetica, Arial, sans-serif" font-size="12" text-anchor="end">Senegal</text></g><g><circle cx="474.38538439431716" cy="650" r="1.590248426687287"/><text transform="translate(474.38538439431716,656.5902484266873) rotate(-90)" alignment-baseline="middle" font-family="Helvetica, Arial, sans-serif" font-size="12" text-anchor="end">Viet Nam</text></g><g><circle cx="483.8245137266821" cy="650" r="1.5851981999727798"/><text transform="translate(483.8245137266821,656.5851981999728) rotate(-90)" alignment-baseline="middle" font-family="Helvetica, Arial, sans-serif" font-size="12" text-anchor="end">Tajikistan</text></g><g><circle cx="492.8240258063751" cy="650" r="1.150631174015283"/><text transform="translate(492.8240258063751,656.1506311740153) rotate(-90)" alignment-baseline="middle" font-family="Helvetica, Arial, sans-serif" font-size="12" text-anchor="end">Togo</text></g><g><circle cx="503.647398277733" cy="650" r="3.409058591637713"/><text transform="translate(503.647398277733,658.4090585916377) rotate(-90)" alignment-baseline="middle" font-family="Helvetica, Arial, sans-serif" font-size="12" text-anchor="end">United Arab Emirates</text></g><g><circle cx="515.5123121394663" cy="650" r="2.1921725643907313"/><text transform="translate(515.5123121394663,657.1921725643907) rotate(-90)" alignment-baseline="middle" font-family="Helvetica, Arial, sans-serif" font-size="12" text-anchor="end">Tunisia</text></g><g><circle cx="525.1408326258962" cy="650" r="1.1726652163342284"/><text transform="translate(525.1408326258962,656.1726652163343) rotate(-90)" alignment-baseline="middle" font-family="Helvetica, Arial, sans-serif" font-size="12" text-anchor="end">Turks and Caicos Isds</text></g><g><circle cx="534.2108648687896" cy="650" r="1.633684320854329"/><text transform="translate(534.2108648687896,656.6336843208543) rotate(-90)" alignment-baseline="middle" font-family="Helvetica, Arial, sans-serif" font-size="12" text-anchor="end">North Macedonia</text></g><g><circle cx="545.2936518964093" cy="650" r="3.1854200010603844"/><text transform="translate(545.2936518964093,658.1854200010604) rotate(-90)" alignment-baseline="middle" font-family="Helvetica, Arial, sans-serif" font-size="12" text-anchor="end">Egypt</text></g><g><circle cx="556.2882865460516" cy="650" r="1.5455319428770395"/><text transform="translate(556.2882865460516,656.545531942877) rotate(-90)" alignment-baseline="middle" font-family="Helvetica, Arial, sans-serif" font-size="12" text-anchor="end">Uruguay</text></g><g><circle cx="567.8107348392933" cy="650" r="3.7132336446597467"/><text transform="translate(567.8107348392933,658.7132336446598) rotate(-90)" alignment-baseline="middle" font-family="Helvetica, Arial, sans-serif" font-size="12" text-anchor="end">Japan</text></g><g><circle cx="579.1470213251998" cy="650" r="1.3593701355418628"/><text transform="translate(579.1470213251998,656.3593701355419) rotate(-90)" alignment-baseline="middle" font-family="Helvetica, Arial, sans-serif" font-size="12" text-anchor="end">Oman</text></g><g><circle cx="588.895889435957" cy="650" r="2.125815269510453"/><text transform="translate(588.895889435957,657.1258152695104) rotate(-90)" alignment-baseline="middle" font-family="Helvetica, Arial, sans-serif" font-size="12" text-anchor="end">India</text></g><g><circle cx="598.4869574575733" cy="650" r="1.201570046400987"/><text transform="translate(598.4869574575733,656.201570046401) rotate(-90)" alignment-baseline="middle" font-family="Helvetica, Arial, sans-serif" font-size="12" text-anchor="end">Burkina Faso</text></g><g><circle cx="608.3586588339474" cy="650" r="2.4064486242681884"/><text transform="translate(608.3586588339474,657.4064486242681) rotate(-90)" alignment-baseline="middle" font-family="Helvetica, Arial, sans-serif" font-size="12" text-anchor="end">Brazil</text></g><g><circle cx="619.0353306484819" cy="650" r="2.0065404845614"/><text transform="translate(619.0353306484819,657.0065404845614) rotate(-90)" alignment-baseline="middle" font-family="Helvetica, Arial, sans-serif" font-size="12" text-anchor="end">Indonesia</text></g><g><circle cx="628.3254473418007" cy="650" r="1.0198935030523972"/><text transform="translate(628.3254473418007,656.0198935030523) rotate(-90)" alignment-baseline="middle" font-family="Helvetica, Arial, sans-serif" font-size="12" text-anchor="end">China, Hong Kong SAR</text></g><g><circle cx="637.3264778955262" cy="650" r="1.7174543449680924"/><text transform="translate(637.3264778955262,656.7174543449681) rotate(-90)" alignment-baseline="middle" font-family="Helvetica, Arial, sans-serif" font-size="12" text-anchor="end">South Africa</text></g><g><circle cx="647.0224904995549" cy="650" r="1.714875553355804"/><text transform="translate(647.0224904995549,656.7148755533558) rotate(-90)" alignment-baseline="middle" font-family="Helvetica, Arial, sans-serif" font-size="12" text-anchor="end">Croatia</text></g><g><circle cx="656.6402259075255" cy="650" r="1.6391771489098859"/><text transform="translate(656.6402259075255,656.6391771489099) rotate(-90)" alignment-baseline="middle" font-family="Helvetica, Arial, sans-serif" font-size="12" text-anchor="end">Cyprus</text></g><g><circle cx="666.3197820656122" cy="650" r="1.776696303471875"/><text transform="translate(666.3197820656122,656.7766963034719) rotate(-90)" alignment-baseline="middle" font-family="Helvetica, Arial, sans-serif" font-size="12" text-anchor="end">Greece</text></g><g><circle cx="678.7685554621264" cy="650" r="4.4083943873375215"/><text transform="translate(678.7685554621264,659.4083943873375) rotate(-90)" alignment-baseline="middle" font-family="Helvetica, Arial, sans-serif" font-size="12" text-anchor="end">Spain</text></g><g><circle cx="691.3730841441211" cy="650" r="1.9324515889522327"/><text transform="translate(691.3730841441211,656.9324515889522) rotate(-90)" alignment-baseline="middle" font-family="Helvetica, Arial, sans-serif" font-size="12" text-anchor="end">Saudi Arabia</text></g><g><circle cx="700.6073115969594" cy="650" r="1.0380931581811974"/><text transform="translate(700.6073115969594,656.0380931581811) rotate(-90)" alignment-baseline="middle" font-family="Helvetica, Arial, sans-serif" font-size="12" text-anchor="end">China</text></g><g><circle cx="709.1500097470889" cy="650" r="1.240922286243321"/><text transform="translate(709.1500097470889,656.2409222862433) rotate(-90)" alignment-baseline="middle" font-family="Helvetica, Arial, sans-serif" font-size="12" text-anchor="end">New Zealand</text></g><g><circle cx="720.1701794677799" cy="650" r="3.515564728742813"/><text transform="translate(720.1701794677799,658.5155647287428) rotate(-90)" alignment-baseline="middle" font-family="Helvetica, Arial, sans-serif" font-size="12" text-anchor="end">Serbia</text></g><g><circle cx="735.422915047049" cy="650" r="5.473488144821345"/><text transform="translate(735.422915047049,660.4734881448213) rotate(-90)" alignment-baseline="middle" font-family="Helvetica, Arial, sans-serif" font-size="12" text-anchor="end">Israel</text></g><g><circle cx="748.6715462748313" cy="650" r="1.5114603772560344"/><text transform="translate(748.6715462748313,656.5114603772561) rotate(-90)" alignment-baseline="middle" font-family="Helvetica, Arial, sans-serif" font-size="12" text-anchor="end">Türkiye</text></g><g><circle cx="759.3073080417937" cy="650" r="2.860618684001582"/><text transform="translate(759.3073080417937,657.8606186840016) rotate(-90)" alignment-baseline="middle" font-family="Helvetica, Arial, sans-serif" font-size="12" text-anchor="end">Singapore</text></g><g><circle cx="770.4892754802667" cy="650" r="2.0576660487664786"/><text transform="translate(770.4892754802667,657.0576660487665) rotate(-90)" alignment-baseline="middle" font-family="Helvetica, Arial, sans-serif" font-size="12" text-anchor="end">Belgium</text></g><g><circle cx="780.1061393042729" cy="650" r="1.2955150695348607"/><text transform="translate(780.1061393042729,656.2955150695349) rotate(-90)" alignment-baseline="middle" font-family="Helvetica, Arial, sans-serif" font-size="12" text-anchor="end">Bulgaria</text></g><g><circle cx="791.7512035250102" cy="650" r="4.085866445497428"/><text transform="translate(791.7512035250102,659.0858664454975) rotate(-90)" alignment-baseline="middle" font-family="Helvetica, Arial, sans-serif" font-size="12" text-anchor="end">Italy</text></g><g><circle cx="803.6705316837101" cy="650" r="1.569779007497708"/><text transform="translate(803.6705316837101,656.5697790074977) rotate(-90)" alignment-baseline="middle" font-family="Helvetica, Arial, sans-serif" font-size="12" text-anchor="end">Luxembourg</text></g><g><circle cx="812.5202363741377" cy="650" r="1.0162429772249577"/><text transform="translate(812.5202363741377,656.0162429772249) rotate(-90)" alignment-baseline="middle" font-family="Helvetica, Arial, sans-serif" font-size="12" text-anchor="end">Portugal</text></g><g><circle cx="827.6062893267679" cy="650" r="7.806127269700395"/><text transform="translate(827.6062893267679,662.8061272697004) rotate(-90)" alignment-baseline="middle" font-family="Helvetica, Arial, sans-serif" font-size="12" text-anchor="end">Rep. of Korea</text></g><g><circle cx="843.062702633926" cy="650" r="1.386603331752877"/><text transform="translate(843.062702633926,656.3866033317529) rotate(-90)" alignment-baseline="middle" font-family="Helvetica, Arial, sans-serif" font-size="12" text-anchor="end">Austria</text></g><g><circle cx="853.8009221489921" cy="650" r="3.0879334776083556"/><text transform="translate(853.8009221489921,658.0879334776083) rotate(-90)" alignment-baseline="middle" font-family="Helvetica, Arial, sans-serif" font-size="12" text-anchor="end">Finland</text></g><g><circle cx="867.2122384333009" cy="650" r="4.059700100995503"/><text transform="translate(867.2122384333009,659.0597001009955) rotate(-90)" alignment-baseline="middle" font-family="Helvetica, Arial, sans-serif" font-size="12" text-anchor="end">Hungary</text></g><g><circle cx="878.9289897978513" cy="650" r="1.3933685578500585"/><text transform="translate(878.9289897978513,656.3933685578501) rotate(-90)" alignment-baseline="middle" font-family="Helvetica, Arial, sans-serif" font-size="12" text-anchor="end">Latvia</text></g><g><circle cx="888.7199125657633" cy="650" r="2.1338715043570406"/><text transform="translate(888.7199125657633,657.133871504357) rotate(-90)" alignment-baseline="middle" font-family="Helvetica, Arial, sans-serif" font-size="12" text-anchor="end">Lithuania</text></g><g><circle cx="899.6246540241834" cy="650" r="2.5071872483581976"/><text transform="translate(899.6246540241834,657.5071872483582) rotate(-90)" alignment-baseline="middle" font-family="Helvetica, Arial, sans-serif" font-size="12" text-anchor="end">Slovakia</text></g><g><circle cx="910.2256656622071" cy="650" r="1.8301416839605458"/><text transform="translate(910.2256656622071,656.8301416839605) rotate(-90)" alignment-baseline="middle" font-family="Helvetica, Arial, sans-serif" font-size="12" text-anchor="end">Slovenia</text></g><g><circle cx="920.458121596784" cy="650" r="2.1386315449113678"/><text transform="translate(920.458121596784,657.1386315449114) rotate(-90)" alignment-baseline="middle" font-family="Helvetica, Arial, sans-serif" font-size="12" text-anchor="end">France</text></g><g><circle cx="933.3231437371736" cy="650" r="4.462707889773407"/><text transform="translate(933.3231437371736,659.4627078897734) rotate(-90)" alignment-baseline="middle" font-family="Helvetica, Arial, sans-serif" font-size="12" text-anchor="end">Czechia</text></g><g><circle cx="945.9855865430668" cy="650" r="1.936052210414767"/><text transform="translate(945.9855865430668,656.9360522104148) rotate(-90)" alignment-baseline="middle" font-family="Helvetica, Arial, sans-serif" font-size="12" text-anchor="end">Romania</text></g><g><circle cx="957.1940071213876" cy="650" r="3.008685662201194"/><text transform="translate(957.1940071213876,658.0086856622012) rotate(-90)" alignment-baseline="middle" font-family="Helvetica, Arial, sans-serif" font-size="12" text-anchor="end">Sweden</text></g><g><circle cx="986.4663754892937" cy="650" r="20"/><text transform="translate(986.4663754892937,675) rotate(-90)" alignment-baseline="middle" font-family="Helvetica, Arial, sans-serif" font-size="12" text-anchor="end">Ukraine</text></g><g><circle cx="1014.1440151780056" cy="650" r="1.4139569830069978"/><text transform="translate(1014.1440151780056,656.413956983007) rotate(-90)" alignment-baseline="middle" font-family="Helvetica, Arial, sans-serif" font-size="12" text-anchor="end">Estonia</text></g><g><circle cx="1023.0010644141611" cy="650" r="1.1794095474436082"/><text transform="translate(1023.0010644141611,656.1794095474436) rotate(-90)" alignment-baseline="middle" font-family="Helvetica, Arial, sans-serif" font-size="12" text-anchor="end">Malaysia</text></g><g><circle cx="1034.4272315063822" cy="650" r="3.983074839072575"/><text transform="translate(1034.4272315063822,658.9830748390726) rotate(-90)" alignment-baseline="middle" font-family="Helvetica, Arial, sans-serif" font-size="12" text-anchor="end">United Kingdom</text></g><g><circle cx="1049.4327031268076" cy="650" r="4.758714075647983"/><text transform="translate(1049.4327031268076,659.758714075648) rotate(-90)" alignment-baseline="middle" font-family="Helvetica, Arial, sans-serif" font-size="12" text-anchor="end">Germany</text></g><g><circle cx="1062.1382711113386" cy="650" r="1.683171203178123"/><text transform="translate(1062.1382711113386,656.6831712031782) rotate(-90)" alignment-baseline="middle" font-family="Helvetica, Arial, sans-serif" font-size="12" text-anchor="end">Thailand</text></g><g><circle cx="1072.0945447059132" cy="650" r="2.009419685691719"/><text transform="translate(1072.0945447059132,657.0094196856917) rotate(-90)" alignment-baseline="middle" font-family="Helvetica, Arial, sans-serif" font-size="12" text-anchor="end">Denmark</text></g><g><circle cx="1085.2671458351908" cy="650" r="4.899498737881067"/><text transform="translate(1085.2671458351908,659.8994987378811) rotate(-90)" alignment-baseline="middle" font-family="Helvetica, Arial, sans-serif" font-size="12" text-anchor="end">Australia</text></g><g><circle cx="1098.909820890017" cy="650" r="2.479493611240395"/><text transform="translate(1098.909820890017,657.4794936112404) rotate(-90)" alignment-baseline="middle" font-family="Helvetica, Arial, sans-serif" font-size="12" text-anchor="end">Canada</text></g><g><circle cx="1112.7588896516895" cy="650" r="5.105892444726939"/><text transform="translate(1112.7588896516895,660.1058924447269) rotate(-90)" alignment-baseline="middle" font-family="Helvetica, Arial, sans-serif" font-size="12" text-anchor="end">Norway</text></g><g><circle cx="1129.6640380753927" cy="650" r="5.535573273271391"/><text transform="translate(1129.6640380753927,660.5355732732714) rotate(-90)" alignment-baseline="middle" font-family="Helvetica, Arial, sans-serif" font-size="12" text-anchor="end">Poland</text></g><g><circle cx="1143.3383067200466" cy="650" r="1.8750126656778714"/><text transform="translate(1143.3383067200466,656.8750126656779) rotate(-90)" alignment-baseline="middle" font-family="Helvetica, Arial, sans-serif" font-size="12" text-anchor="end">Switzerland</text></g><g><circle cx="1155.2142690760325" cy="650" r="3.7372669846028725"/><text transform="translate(1155.2142690760325,658.7372669846029) rotate(-90)" alignment-baseline="middle" font-family="Helvetica, Arial, sans-serif" font-size="12" text-anchor="end">Netherlands</text></g><g><circle cx="1172.6076093831698" cy="650" r="7.392390616829586"/><text transform="translate(1172.6076093831698,662.3923906168296) rotate(-90)" alignment-baseline="middle" font-family="Helvetica, Arial, sans-serif" font-size="12" text-anchor="end">USA</text></g></g></g></svg>