<svg xmlns="http://www.w3.org/2000/svg" width="1700" height="900"><rect width="1700" height="900" x="0" y="0" fill="#FFFFFF" id="background"/><g transform="translate(10,10)" id="viz"><g id="arcs"><path d="M3.8335284595197074,740A693.9157902274038,693.9157902274038 0,0,1 1391.6651089143274,740" fill="none" stroke="gray" stroke-width="0.00046045871381763896" opacity="1"/><path d="M3.8335284595197074,740A7.854247901317069,7.854247901317069 0,0,1 19.542024262153845,740" fill="none" stroke="gray" stroke-width="0.0009209174276352779" opacity="1"/><path d="M3.8335284595197074,740A14.791731572874285,14.791731572874285 0,0,1 33.41699160526828,740" fill="none" stroke="gray" stroke-width="0.043719343143527406" opacity="1"/><path d="M3.8335284595197074,740A21.7292152444315,21.7292152444315 0,0,1 47.29195894838271,740" fill="none" stroke="gray" stroke-width="0.08376713391108785" opacity="1"/><path d="M3.8335284595197074,740A28.666698915988714,28.666698915988714 0,0,1 61.166926291497134,740" fill="none" stroke="gray" stroke-width="0.00021811202233467107" opacity="1"/><path d="M3.8335284595197074,740A35.60418258754593,35.60418258754593 0,0,1 75.04189363461157,740" fill="none" stroke="gray" stroke-width="0.0002423466914829679" opacity="1"/><path d="M3.8335284595197074,740A44.524395053666865,44.524395053666865 0,0,1 92.88231856685344,740" fill="none" stroke="gray" stroke-width="0.0016358401675100331" opacity="1"/><path d="M3.8335284595197074,740A53.444607519787795,53.444607519787795 0,0,1 110.7227434990953,740" fill="none" stroke="gray" stroke-width="0.0013450241377304718" opacity="1"/><path d="M3.8335284595197074,740A72.56377397586334,72.56377397586334 0,0,1 148.96107641124638,740" fill="none" stroke="gray" stroke-width="0.005610325907830706" opacity="1"/><path d="M187.3325325973658,740A7.004045308541393,7.004045308541393 0,0,1 201.34062321444858,740" fill="none" stroke="gray" stroke-width="0.0007270400744489036" opacity="1"/><path d="M1412.0621821784528,740A704.1143268594665,704.1143268594665 0,0,0 3.8335284595197074,740" fill="none" stroke="gray" stroke-width="0.000012117334574148395" opacity="1"/><path d="M1412.0621821784528,740A63.19517053643915,63.19517053643915 0,0,1 1538.452523251331,740" fill="none" stroke="gray" stroke-width="0.00883353690455418" opacity="1"/><path d="M1412.0621821784528,740A10.198536632062655,10.198536632062655 0,0,0 1391.6651089143274,740" fill="none" stroke="gray" stroke-width="0.0686083483588282" opacity="1"/><path d="M1412.0621821784528,740A598.4232958104449,598.4232958104449 0,0,0 215.21559055756302,740" fill="none" stroke="gray" stroke-width="0.0036836697105411117" opacity="1"/><path d="M1412.0621821784528,740A12.044915399756519,12.044915399756519 0,0,1 1436.1520129779658,740" fill="none" stroke="gray" stroke-width="0.27316107330502726" opacity="1"/><path d="M1412.0621821784528,740A25.038939229275115,25.038939229275115 0,0,1 1462.140060637003,740" fill="none" stroke="gray" stroke-width="0.0005089280521142325" opacity="1"/><path d="M1412.0621821784528,740A591.4858121388877,591.4858121388877 0,0,0 229.09055790067745,740" fill="none" stroke="gray" stroke-width="0.0002423466914829679" opacity="1"/><path d="M1412.0621821784528,740A584.5483284673304,584.5483284673304 0,0,0 242.9655252437919,740" fill="none" stroke="gray" stroke-width="0.00010905601116733554" opacity="1"/><path d="M1412.0621821784528,740A70.13265420799632,70.13265420799632 0,0,1 1552.3274905944454,740" fill="none" stroke="gray" stroke-width="0.6833570833090987" opacity="1"/><path d="M1412.0621821784528,740A650.6697193396787,650.6697193396787 0,0,0 110.7227434990953,740" fill="none" stroke="gray" stroke-width="0.0005089280521142325" opacity="1"/><path d="M1412.0621821784528,740A631.5505528836031,631.5505528836031 0,0,0 148.96107641124638,740" fill="none" stroke="gray" stroke-width="0.002835456290350724" opacity="1"/><path d="M1391.6651089143274,740A567.4123081637106,567.4123081637106 0,0,0 256.8404925869063,740" fill="none" stroke="gray" stroke-width="0.03488580623897322" opacity="1"/><path d="M1391.6651089143274,740A45.64377248227311,45.64377248227311 0,0,1 1482.9526538788737,740" fill="none" stroke="gray" stroke-width="0.015146668217685493" opacity="1"/><path d="M1391.6651089143274,740A560.4748244921534,560.4748244921534 0,0,0 270.71545993002076,740" fill="none" stroke="gray" stroke-width="0.02044194342658834" opacity="1"/><path d="M1391.6651089143274,740A553.5373408205961,553.5373408205961 0,0,0 284.59042727313516,740" fill="none" stroke="gray" stroke-width="0.015122433548537196" opacity="1"/><path d="M1391.6651089143274,740A80.33119084005898,80.33119084005898 0,0,1 1552.3274905944454,740" fill="none" stroke="gray" stroke-width="0.002435584249403827" opacity="1"/><path d="M1391.6651089143274,740A621.3520162515406,621.3520162515406 0,0,0 148.96107641124638,740" fill="none" stroke="gray" stroke-width="0.002156885554198414" opacity="1"/><path d="M1566.35129428255,740A708.6951089356519,708.6951089356519 0,0,0 148.96107641124638,740" fill="none" stroke="gray" stroke-width="0.0009088000930611295" opacity="1"/><path d="M298.4951618852476,740A6.952367306056232,6.952367306056232 0,0,1 312.3998964973601,740" fill="none" stroke="gray" stroke-width="0.000036352003722445184" opacity="1"/><path d="M298.4951618852476,740A13.889850977613435,13.889850977613435 0,0,1 326.2748638404745,740" fill="none" stroke="gray" stroke-width="0" opacity="1"/><path d="M298.4951618852476,740A20.827334649170638,20.827334649170638 0,0,1 340.1498311835889,740" fill="none" stroke="gray" stroke-width="0" opacity="1"/><path d="M1436.1520129779658,740A541.0636072256312,541.0636072256312 0,0,0 354.0247985267033,740" fill="none" stroke="gray" stroke-width="0.000036352003722445184" opacity="1"/><path d="M1436.1520129779658,740A534.1261235540741,534.1261235540741 0,0,0 367.8997658698177,740" fill="none" stroke="gray" stroke-width="0.00032716803350200664" opacity="1"/><path d="M1436.1520129779658,740A72.11154249634444,72.11154249634444 0,0,1 1580.3750979706547,740" fill="none" stroke="gray" stroke-width="0.000012117334574148395" opacity="1"/><path d="M1436.1520129779658,740A527.1886398825168,527.1886398825168 0,0,0 381.7747332129321,740" fill="none" stroke="gray" stroke-width="0.000012117334574148395" opacity="1"/><path d="M1436.1520129779658,740A520.2511562109596,520.2511562109596 0,0,0 395.6497005560465,740" fill="none" stroke="gray" stroke-width="0" opacity="1"/><path d="M1436.1520129779658,740A51.15025513668263,51.15025513668263 0,0,1 1538.452523251331,740" fill="none" stroke="gray" stroke-width="0.00006058667287074197" opacity="1"/><path d="M1436.1520129779658,740A22.243452031819174,22.243452031819174 0,0,0 1391.6651089143274,740" fill="none" stroke="gray" stroke-width="0.000036352003722445184" opacity="1"/><path d="M1436.1520129779658,740A65.09964065229212,65.09964065229212 0,0,1 1566.35129428255,740" fill="none" stroke="gray" stroke-width="0.000012117334574148395" opacity="1"/><path d="M1436.1520129779658,740A513.3136725394024,513.3136725394024 0,0,0 409.52466789916093,740" fill="none" stroke="gray" stroke-width="0.00002423466914829679" opacity="1"/><path d="M1436.1520129779658,740A708.304994357906,708.304994357906 0,0,0 19.542024262153845,740" fill="none" stroke="gray" stroke-width="0.02846361891467458" opacity="1"/><path d="M1436.1520129779658,740A610.4682112102014,610.4682112102014 0,0,0 215.21559055756302,740" fill="none" stroke="gray" stroke-width="0.0009330347622094262" opacity="1"/><path d="M1436.1520129779658,740A506.37618886784526,506.37618886784526 0,0,0 423.39963524227534,740" fill="none" stroke="gray" stroke-width="0.00014540801488978073" opacity="1"/><path d="M1436.1520129779658,740A30.337804122011107,30.337804122011107 0,0,1 1496.827621221988,740" fill="none" stroke="gray" stroke-width="0.000036352003722445184" opacity="1"/><path d="M1436.1520129779658,740A37.27528779356828,37.27528779356828 0,0,1 1510.7025885651024,740" fill="none" stroke="gray" stroke-width="0.00008482134201903875" opacity="1"/><path d="M1436.1520129779658,740A701.3675106863487,701.3675106863487 0,0,0 33.41699160526828,740" fill="none" stroke="gray" stroke-width="0.00007270400744489037" opacity="1"/><path d="M1436.1520129779658,740A499.438705196288,499.438705196288 0,0,0 437.27460258538974,740" fill="none" stroke="gray" stroke-width="0.00023022935690881948" opacity="1"/><path d="M1436.1520129779658,740A492.5012215247308,492.5012215247308 0,0,0 451.14956992850415,740" fill="none" stroke="gray" stroke-width="0" opacity="1"/><path d="M1436.1520129779658,740A485.5637378531736,485.5637378531736 0,0,0 465.02453727161856,740" fill="none" stroke="gray" stroke-width="0" opacity="1"/><path d="M1436.1520129779658,740A478.62625418161645,478.62625418161645 0,0,0 478.89950461473296,740" fill="none" stroke="gray" stroke-width="0" opacity="1"/><path d="M1436.1520129779658,740A44.212771465125456,44.212771465125456 0,0,1 1524.5775559082167,740" fill="none" stroke="gray" stroke-width="0" opacity="1"/><path d="M1436.1520129779658,740A12.994023829518596,12.994023829518596 0,0,1 1462.140060637003,740" fill="none" stroke="gray" stroke-width="0.7503659435041392" opacity="1"/><path d="M1436.1520129779658,740A93.04902616790162,93.04902616790162 0,0,1 1622.250065313769,740" fill="none" stroke="gray" stroke-width="0.00023022935690881948" opacity="1"/><path d="M1436.1520129779658,740A467.70696014260534,467.70696014260534 0,0,0 500.7380926927552,740" fill="none" stroke="gray" stroke-width="0.00002423466914829679" opacity="1"/><path d="M1436.1520129779658,740A603.5307275386442,603.5307275386442 0,0,0 229.09055790067745,740" fill="none" stroke="gray" stroke-width="0.00002423466914829679" opacity="1"/><path d="M1436.1520129779658,740A113.98650983945879,113.98650983945879 0,0,1 1664.1250326568834,740" fill="none" stroke="gray" stroke-width="0.00002423466914829679" opacity="1"/><path d="M1436.1520129779658,740A456.7876661035942,456.7876661035942 0,0,0 522.5766807707774,740" fill="none" stroke="gray" stroke-width="0.000012117334574148395" opacity="1"/><path d="M1436.1520129779658,740A449.85018243203695,449.85018243203695 0,0,0 536.4516481138919,740" fill="none" stroke="gray" stroke-width="0.00015752534946392912" opacity="1"/><path d="M1436.1520129779658,740A596.5932438670869,596.5932438670869 0,0,0 242.9655252437919,740" fill="none" stroke="gray" stroke-width="0.029542061691773782" opacity="1"/><path d="M1436.1520129779658,740A441.0732597633105,441.0732597633105 0,0,0 554.0054934513448,740" fill="none" stroke="gray" stroke-width="0.00027869869520541306" opacity="1"/><path d="M1436.1520129779658,740A662.7146347394353,662.7146347394353 0,0,0 110.7227434990953,740" fill="none" stroke="gray" stroke-width="0.001078442777099207" opacity="1"/><path d="M1436.1520129779658,740A643.5954682833597,643.5954682833597 0,0,0 148.96107641124638,740" fill="none" stroke="gray" stroke-width="0.2866476666860544" opacity="1"/><path d="M1462.140060637003,740A554.0576310551498,554.0576310551498 0,0,0 354.0247985267033,740" fill="none" stroke="gray" stroke-width="0.00010905601116733554" opacity="1"/><path d="M1462.140060637003,740A526.307696368921,526.307696368921 0,0,0 409.52466789916093,740" fill="none" stroke="gray" stroke-width="0.12376645534035169" opacity="1"/><path d="M1462.140060637003,740A623.46223503972,623.46223503972 0,0,0 215.21559055756302,740" fill="none" stroke="gray" stroke-width="0.000036352003722445184" opacity="1"/><path d="M1462.140060637003,740A17.34378029249251,17.34378029249251 0,0,1 1496.827621221988,740" fill="none" stroke="gray" stroke-width="0.8130004459179123" opacity="1"/><path d="M1462.140060637003,740A80.05500233838302,80.05500233838302 0,0,1 1622.250065313769,740" fill="none" stroke="gray" stroke-width="0.0002423466914829679" opacity="1"/><path d="M1462.140060637003,740A616.5247513681628,616.5247513681628 0,0,0 229.09055790067745,740" fill="none" stroke="gray" stroke-width="0.0009088000930611295" opacity="1"/><path d="M1462.140060637003,740A609.5872676966055,609.5872676966055 0,0,0 242.9655252437919,740" fill="none" stroke="gray" stroke-width="0.007124992729599255" opacity="1"/><path d="M1462.140060637003,740A454.0672835928291,454.0672835928291 0,0,0 554.0054934513448,740" fill="none" stroke="gray" stroke-width="0.001575253494639291" opacity="1"/><path d="M1462.140060637003,740A45.09371497872121,45.09371497872121 0,0,1 1552.3274905944454,740" fill="none" stroke="gray" stroke-width="0.8435240117101921" opacity="1"/><path d="M1462.140060637003,740A675.7086585689539,675.7086585689539 0,0,0 110.7227434990953,740" fill="none" stroke="gray" stroke-width="0.0010057387696543168" opacity="1"/><path d="M1462.140060637003,740A656.5894921128784,656.5894921128784 0,0,0 148.96107641124638,740" fill="none" stroke="gray" stroke-width="0.18327468543399444" opacity="1"/><path d="M1622.250065313769,740A20.937483671557175,20.937483671557175 0,0,0 1580.3750979706547,740" fill="none" stroke="gray" stroke-width="0.0077550941274549725" opacity="1"/><path d="M1622.250065313769,740A41.898771031218985,41.898771031218985 0,0,0 1538.452523251331,740" fill="none" stroke="gray" stroke-width="1.0023580333081292" opacity="1"/><path d="M1622.250065313769,740A27.949385515609492,27.949385515609492 0,0,0 1566.35129428255,740" fill="none" stroke="gray" stroke-width="0.012117334574148394" opacity="1"/><path d="M1622.250065313769,740A801.3540205258076,801.3540205258076 0,0,0 19.542024262153845,740" fill="none" stroke="gray" stroke-width="0.01546171891661335" opacity="1"/><path d="M1622.250065313769,740A703.517237378103,703.517237378103 0,0,0 215.21559055756302,740" fill="none" stroke="gray" stroke-width="0.4156245758932899" opacity="1"/><path d="M1622.250065313769,740A585.5502476926324,585.5502476926324 0,0,0 451.14956992850415,740" fill="none" stroke="gray" stroke-width="0.004544000465305648" opacity="1"/><path d="M1622.250065313769,740A578.6127640210752,578.6127640210752 0,0,0 465.02453727161856,740" fill="none" stroke="gray" stroke-width="0.0008724480893386843" opacity="1"/><path d="M1622.250065313769,740A27.87496734311435,27.87496734311435 0,0,1 1677.9999999999977,740" fill="none" stroke="gray" stroke-width="0.05675759514531108" opacity="1"/><path d="M1622.250065313769,740A525.3453632624856,525.3453632624856 0,0,0 571.5593387887977,740" fill="none" stroke="gray" stroke-width="0.0018054828515481106" opacity="1"/><path d="M1622.250065313769,740A20.937483671557175,20.937483671557175 0,0,1 1664.1250326568834,740" fill="none" stroke="gray" stroke-width="0.16852788925725587" opacity="1"/><path d="M1622.250065313769,740A549.8366922714958,549.8366922714958 0,0,0 522.5766807707774,740" fill="none" stroke="gray" stroke-width="0.019060567285135423" opacity="1"/><path d="M1622.250065313769,740A34.96128735966181,34.96128735966181 0,0,0 1552.3274905944454,740" fill="none" stroke="gray" stroke-width="30" opacity="1"/><path d="M1622.250065313769,740A736.6444944512614,736.6444944512614 0,0,0 148.96107641124638,740" fill="none" stroke="gray" stroke-width="0.4588471083192773" opacity="1"/><path d="M500.7380926927552,740A42.34810671957851,42.34810671957851 0,0,1 585.4343061319122,740" fill="none" stroke="gray" stroke-width="0.0012117334574148395" opacity="1"/><path d="M500.7380926927552,740A175.8885081407544,175.8885081407544 0,0,0 148.96107641124638,740" fill="none" stroke="gray" stroke-width="2.6005738769654316" opacity="1"/><path d="M554.0054934513448,740A275.08598249591256,275.08598249591256 0,0,0 3.8335284595197074,740" fill="none" stroke="gray" stroke-width="0.00009693867659318716" opacity="1"/><path d="M554.0054934513448,740A99.99034746232076,99.99034746232076 0,0,0 354.0247985267033,740" fill="none" stroke="gray" stroke-width="0.010214913046007095" opacity="1"/><path d="M554.0054934513448,740A93.05286379076355,93.05286379076355 0,0,0 367.8997658698177,740" fill="none" stroke="gray" stroke-width="0.002156885554198414" opacity="1"/><path d="M554.0054934513448,740A429.02834436355397,429.02834436355397 0,0,1 1412.0621821784528,740" fill="none" stroke="gray" stroke-width="0.052068186665115646" opacity="1"/><path d="M554.0054934513448,740A22.65189001184092,22.65189001184092 0,0,1 599.3092734750267,740" fill="none" stroke="gray" stroke-width="0.000012117334574148395" opacity="1"/><path d="M554.0054934513448,740A492.2235148999931,492.2235148999931 0,0,1 1538.452523251331,740" fill="none" stroke="gray" stroke-width="0.06343424649566684" opacity="1"/><path d="M554.0054934513448,740A418.8298077314913,418.8298077314913 0,0,1 1391.6651089143274,740" fill="none" stroke="gray" stroke-width="0.0002059946877605227" opacity="1"/><path d="M554.0054934513448,740A506.1729004156026,506.1729004156026 0,0,1 1566.35129428255,740" fill="none" stroke="gray" stroke-width="0.00013329068031563233" opacity="1"/><path d="M554.0054934513448,740A72.24041277609194,72.24041277609194 0,0,0 409.52466789916093,740" fill="none" stroke="gray" stroke-width="0.0005452800558366777" opacity="1"/><path d="M554.0054934513448,740A267.2317345945955,267.2317345945955 0,0,0 19.542024262153845,740" fill="none" stroke="gray" stroke-width="0.03463134221291611" opacity="1"/><path d="M554.0054934513448,740A169.3949514468909,169.3949514468909 0,0,0 215.21559055756302,740" fill="none" stroke="gray" stroke-width="0.11031621396304697" opacity="1"/><path d="M554.0054934513448,740A471.4110638853216,471.4110638853216 0,0,1 1496.827621221988,740" fill="none" stroke="gray" stroke-width="0.0004968107175400841" opacity="1"/><path d="M554.0054934513448,740A58.36544543297754,58.36544543297754 0,0,0 437.27460258538974,740" fill="none" stroke="gray" stroke-width="0.011559937183737568" opacity="1"/><path d="M554.0054934513448,740A134.70753308910483,134.70753308910483 0,0,0 284.59042727313516,740" fill="none" stroke="gray" stroke-width="0.007137110064173404" opacity="1"/><path d="M554.0054934513448,740A51.427961761420335,51.427961761420335 0,0,0 451.14956992850415,740" fill="none" stroke="gray" stroke-width="0.0019872428701603363" opacity="1"/><path d="M554.0054934513448,740A44.49047808986313,44.49047808986313 0,0,0 465.02453727161856,740" fill="none" stroke="gray" stroke-width="0.0011632641191182459" opacity="1"/><path d="M554.0054934513448,740A37.55299441830593,37.55299441830593 0,0,0 478.89950461473296,740" fill="none" stroke="gray" stroke-width="0.0003635200372244518" opacity="1"/><path d="M554.0054934513448,740A127.7551657830486,127.7551657830486 0,0,0 298.4951618852476,740" fill="none" stroke="gray" stroke-width="0.00026658136063126465" opacity="1"/><path d="M554.0054934513448,740A441.0732597633105,441.0732597633105 0,0,1 1436.1520129779658,740" fill="none" stroke="gray" stroke-width="0.024695127862114426" opacity="1"/><path d="M554.0054934513448,740A29.58937368339815,29.58937368339815 0,0,1 613.1842408181411,740" fill="none" stroke="gray" stroke-width="0.0012844374648597297" opacity="1"/><path d="M554.0054934513448,740A534.1222859312121,534.1222859312121 0,0,1 1622.250065313769,740" fill="none" stroke="gray" stroke-width="0.009475755636984044" opacity="1"/><path d="M554.0054934513448,740A162.45746777533367,162.45746777533367 0,0,0 229.09055790067745,740" fill="none" stroke="gray" stroke-width="0.0003514027026503034" opacity="1"/><path d="M554.0054934513448,740A36.52685735495538,36.52685735495538 0,0,1 627.0592081612556,740" fill="none" stroke="gray" stroke-width="0.001817600186122259" opacity="1"/><path d="M554.0054934513448,740A555.0597696027693,555.0597696027693 0,0,1 1664.1250326568834,740" fill="none" stroke="gray" stroke-width="0.0003029333643537099" opacity="1"/><path d="M554.0054934513448,740A15.714406340283688,15.714406340283688 0,0,0 522.5766807707774,740" fill="none" stroke="gray" stroke-width="0.001139029449969949" opacity="1"/><path d="M554.0054934513448,740A155.51998410377647,155.51998410377647 0,0,0 242.9655252437919,740" fill="none" stroke="gray" stroke-width="0.0020235948738827818" opacity="1"/><path d="M554.0054934513448,740A221.64137497612475,221.64137497612475 0,0,0 110.7227434990953,740" fill="none" stroke="gray" stroke-width="0.004895403167955951" opacity="1"/><path d="M554.0054934513448,740A202.52220852004922,202.52220852004922 0,0,0 148.96107641124638,740" fill="none" stroke="gray" stroke-width="0.21246534442311793" opacity="1"/><path d="M92.88231856685344,740A659.5899318057997,659.5899318057997 0,0,1 1412.0621821784528,740" fill="none" stroke="gray" stroke-width="0.00006058667287074197" opacity="1"/><path d="M92.88231856685344,740A109.75878896525333,109.75878896525333 0,0,1 312.3998964973601,740" fill="none" stroke="gray" stroke-width="0" opacity="1"/><path d="M92.88231856685344,740A95.85405435314087,95.85405435314087 0,0,1 284.59042727313516,740" fill="none" stroke="gray" stroke-width="0.6206135248841583" opacity="1"/><path d="M92.88231856685344,740A116.69627263681053,116.69627263681053 0,0,1 326.2748638404745,740" fill="none" stroke="gray" stroke-width="0.024113495802555306" opacity="1"/><path d="M92.88231856685344,740A54.22915232379757,54.22915232379757 0,0,1 201.34062321444858,740" fill="none" stroke="gray" stroke-width="0.0001817600186122259" opacity="1"/><path d="M92.88231856685344,740A28.03937892219647,28.03937892219647 0,0,1 148.96107641124638,740" fill="none" stroke="gray" stroke-width="0.00014540801488978073" opacity="1"/><path d="M148.96107641124638,740A245.98654954656183,245.98654954656183 0,0,1 640.93417550437,740" fill="none" stroke="gray" stroke-width="0.0004119893755210454" opacity="1"/><path d="M148.96107641124638,740A252.92403321811906,252.92403321811906 0,0,1 654.8091428474845,740" fill="none" stroke="gray" stroke-width="0.0008966827584869812" opacity="1"/><path d="M148.96107641124638,740A259.8615168896763,259.8615168896763 0,0,1 668.684110190599,740" fill="none" stroke="gray" stroke-width="0.004883285833381802" opacity="1"/><path d="M148.96107641124638,740A72.56377397586334,72.56377397586334 0,0,0 3.8335284595197074,740" fill="none" stroke="gray" stroke-width="1.396656100350918" opacity="1"/><path d="M148.96107641124638,740A102.53186105772846,102.53186105772846 0,0,1 354.0247985267033,740" fill="none" stroke="gray" stroke-width="0.0033686190116132535" opacity="1"/><path d="M148.96107641124638,740A266.7990005612335,266.7990005612335 0,0,1 682.5590775337134,740" fill="none" stroke="gray" stroke-width="0.00013329068031563233" opacity="1"/><path d="M148.96107641124638,740A273.73648423279076,273.73648423279076 0,0,1 696.4340448768279,740" fill="none" stroke="gray" stroke-width="0.6645873320537429" opacity="1"/><path d="M148.96107641124638,740A280.673967904348,280.673967904348 0,0,1 710.3090122199424,740" fill="none" stroke="gray" stroke-width="0.017085441749549235" opacity="1"/><path d="M148.96107641124638,740A109.46934472928567,109.46934472928567 0,0,1 367.8997658698177,740" fill="none" stroke="gray" stroke-width="0.10027094360107795" opacity="1"/><path d="M148.96107641124638,740A287.6114515759052,287.6114515759052 0,0,1 724.1839795630568,740" fill="none" stroke="gray" stroke-width="0.014977025533647414" opacity="1"/><path d="M148.96107641124638,740A53.939708087829956,53.939708087829956 0,0,1 256.8404925869063,740" fill="none" stroke="gray" stroke-width="0.14681362570038192" opacity="1"/><path d="M148.96107641124638,740A294.54893524746245,294.54893524746245 0,0,1 738.0589469061713,740" fill="none" stroke="gray" stroke-width="0.0007633920781713488" opacity="1"/><path d="M148.96107641124638,740A301.4864189190197,301.4864189190197 0,0,1 751.9339142492857,740" fill="none" stroke="gray" stroke-width="0.00043622404466934215" opacity="1"/><path d="M148.96107641124638,740A715.7070107797042,715.7070107797042 0,0,1 1580.3750979706547,740" fill="none" stroke="gray" stroke-width="0.00025446402605711624" opacity="1"/><path d="M148.96107641124638,740A308.4239025905769,308.4239025905769 0,0,1 765.8088815924002,740" fill="none" stroke="gray" stroke-width="0.020708524787219604" opacity="1"/><path d="M148.96107641124638,740A631.5505528836031,631.5505528836031 0,0,1 1412.0621821784528,740" fill="none" stroke="gray" stroke-width="0.1489341592508579" opacity="1"/><path d="M148.96107641124638,740A315.36138626213415,315.36138626213415 0,0,1 779.6838489355147,740" fill="none" stroke="gray" stroke-width="0.0005937493941332713" opacity="1"/><path d="M148.96107641124638,740A322.2988699336914,322.2988699336914 0,0,1 793.5588162786291,740" fill="none" stroke="gray" stroke-width="0.02126592217763043" opacity="1"/><path d="M148.96107641124638,740A225.17409853189014,225.17409853189014 0,0,1 599.3092734750267,740" fill="none" stroke="gray" stroke-width="0.00012117334574148395" opacity="1"/><path d="M148.96107641124638,740A329.2363536052486,329.2363536052486 0,0,1 807.4337836217436,740" fill="none" stroke="gray" stroke-width="0.041150468213807946" opacity="1"/><path d="M148.96107641124638,740A336.17383727680584,336.17383727680584 0,0,1 821.3087509648581,740" fill="none" stroke="gray" stroke-width="0.003514027026503034" opacity="1"/><path d="M148.96107641124638,740A116.40682840084287,116.40682840084287 0,0,1 381.7747332129321,740" fill="none" stroke="gray" stroke-width="0.046930436805676726" opacity="1"/><path d="M148.96107641124638,740A123.34431207240007,123.34431207240007 0,0,1 395.6497005560465,740" fill="none" stroke="gray" stroke-width="0.03752738517613757" opacity="1"/><path d="M148.96107641124638,740A694.7457234200424,694.7457234200424 0,0,1 1538.452523251331,740" fill="none" stroke="gray" stroke-width="0.02669448806684891" opacity="1"/><path d="M148.96107641124638,740A343.1113209483631,343.1113209483631 0,0,1 835.1837183079725,740" fill="none" stroke="gray" stroke-width="0.009075883596037147" opacity="1"/><path d="M148.96107641124638,740A621.3520162515406,621.3520162515406 0,0,1 1391.6651089143274,740" fill="none" stroke="gray" stroke-width="0.02428313848659338" opacity="1"/><path d="M148.96107641124638,740A350.0488046199203,350.0488046199203 0,0,1 849.058685651087,740" fill="none" stroke="gray" stroke-width="0.015788886950115356" opacity="1"/><path d="M148.96107641124638,740A356.98628829147754,356.98628829147754 0,0,1 862.9336529942015,740" fill="none" stroke="gray" stroke-width="0.21527656604432038" opacity="1"/><path d="M148.96107641124638,740A363.92377196303477,363.92377196303477 0,0,1 876.8086203373159,740" fill="none" stroke="gray" stroke-width="0.0007876267473196455" opacity="1"/><path d="M148.96107641124638,740A708.6951089356519,708.6951089356519 0,0,1 1566.35129428255,740" fill="none" stroke="gray" stroke-width="0.003477675022780589" opacity="1"/><path d="M148.96107641124638,740A130.28179574395728,130.28179574395728 0,0,1 409.52466789916093,740" fill="none" stroke="gray" stroke-width="0.2761055856065453" opacity="1"/><path d="M148.96107641124638,740A64.70952607454626,64.70952607454626 0,0,0 19.542024262153845,740" fill="none" stroke="gray" stroke-width="0.0396115667228911" opacity="1"/><path d="M148.96107641124638,740A370.861255634592,370.861255634592 0,0,1 890.6835876804304,740" fill="none" stroke="gray" stroke-width="0.00004846933829659358" opacity="1"/><path d="M148.96107641124638,740A377.79873930614923,377.79873930614923 0,0,1 904.5585550235448,740" fill="none" stroke="gray" stroke-width="0.05641830977723492" opacity="1"/><path d="M148.96107641124638,740A33.12725707315832,33.12725707315832 0,0,1 215.21559055756302,740" fill="none" stroke="gray" stroke-width="0.7671363345547606" opacity="1"/><path d="M148.96107641124638,740A137.21927941551448,137.21927941551448 0,0,1 423.39963524227534,740" fill="none" stroke="gray" stroke-width="0.05526716299269082" opacity="1"/><path d="M148.96107641124638,740A384.73622297770646,384.73622297770646 0,0,1 918.4335223666593,740" fill="none" stroke="gray" stroke-width="0.00007270400744489037" opacity="1"/><path d="M148.96107641124638,740A391.6737066492637,391.6737066492637 0,0,1 932.3084897097738,740" fill="none" stroke="gray" stroke-width="0.00166007483665833" opacity="1"/><path d="M148.96107641124638,740A398.6111903208209,398.6111903208209 0,0,1 946.1834570528882,740" fill="none" stroke="gray" stroke-width="0.034049710153356984" opacity="1"/><path d="M148.96107641124638,740A673.9332724053709,673.9332724053709 0,0,1 1496.827621221988,740" fill="none" stroke="gray" stroke-width="0.0463972740844142" opacity="1"/><path d="M148.96107641124638,740A60.87719175938719,60.87719175938719 0,0,1 270.71545993002076,740" fill="none" stroke="gray" stroke-width="0.07261918610287132" opacity="1"/><path d="M148.96107641124638,740A57.77204240298905,57.77204240298905 0,0,0 33.41699160526828,740" fill="none" stroke="gray" stroke-width="1.7944318424164873" opacity="1"/><path d="M148.96107641124638,740A144.15676308707168,144.15676308707168 0,0,1 437.27460258538974,740" fill="none" stroke="gray" stroke-width="0.8629117470288296" opacity="1"/><path d="M148.96107641124638,740A405.54867399237816,405.54867399237816 0,0,1 960.0584243960027,740" fill="none" stroke="gray" stroke-width="0.012238507919889879" opacity="1"/><path d="M148.96107641124638,740A412.4861576639354,412.4861576639354 0,0,1 973.9333917391172,740" fill="none" stroke="gray" stroke-width="0.00021811202233467107" opacity="1"/><path d="M148.96107641124638,740A50.83455873143184,50.83455873143184 0,0,0 47.29195894838271,740" fill="none" stroke="gray" stroke-width="0.5924407219992632" opacity="1"/><path d="M148.96107641124638,740A419.4236413354926,419.4236413354926 0,0,1 987.8083590822316,740" fill="none" stroke="gray" stroke-width="0.0992530874968495" opacity="1"/><path d="M148.96107641124638,740A426.36112500704985,426.36112500704985 0,0,1 1001.6833264253461,740" fill="none" stroke="gray" stroke-width="0.8869040694856434" opacity="1"/><path d="M148.96107641124638,740A67.81467543094439,67.81467543094439 0,0,1 284.59042727313516,740" fill="none" stroke="gray" stroke-width="3.6121895538882103" opacity="1"/><path d="M148.96107641124638,740A433.2986086786071,433.2986086786071 0,0,1 1015.5582937684605,740" fill="none" stroke="gray" stroke-width="0.2828064716260494" opacity="1"/><path d="M148.96107641124638,740A440.23609235016426,440.23609235016426 0,0,1 1029.433261111575,740" fill="none" stroke="gray" stroke-width="0.004556117799879796" opacity="1"/><path d="M148.96107641124638,740A447.17357602172143,447.17357602172143 0,0,1 1043.3082284546892,740" fill="none" stroke="gray" stroke-width="0.15721029876500126" opacity="1"/><path d="M148.96107641124638,740A151.09424675862888,151.09424675862888 0,0,1 451.14956992850415,740" fill="none" stroke="gray" stroke-width="0.007682390120010082" opacity="1"/><path d="M148.96107641124638,740A158.0317304301861,158.0317304301861 0,0,1 465.02453727161856,740" fill="none" stroke="gray" stroke-width="0.11605983055119332" opacity="1"/><path d="M148.96107641124638,740A164.9692141017433,164.9692141017433 0,0,1 478.89950461473296,740" fill="none" stroke="gray" stroke-width="0.029457240349754745" opacity="1"/><path d="M148.96107641124638,740A74.76704273700062,74.76704273700062 0,0,1 298.4951618852476,740" fill="none" stroke="gray" stroke-width="0.0026900482754609436" opacity="1"/><path d="M148.96107641124638,740A454.1110596932786,454.1110596932786 0,0,1 1057.1831957978036,740" fill="none" stroke="gray" stroke-width="0.00014540801488978073" opacity="1"/><path d="M148.96107641124638,740A461.0485433648358,461.0485433648358 0,0,1 1071.058163140918,740" fill="none" stroke="gray" stroke-width="1.3328219818143043" opacity="1"/><path d="M148.96107641124638,740A467.98602703639295,467.98602703639295 0,0,1 1084.9331304840323,740" fill="none" stroke="gray" stroke-width="0.023859031776498188" opacity="1"/><path d="M148.96107641124638,740A474.92351070795013,474.92351070795013 0,0,1 1098.8080978271466,740" fill="none" stroke="gray" stroke-width="0.0020114775393086336" opacity="1"/><path d="M148.96107641124638,740A481.8609943795073,481.8609943795073 0,0,1 1112.683065170261,740" fill="none" stroke="gray" stroke-width="0.01946043932608232" opacity="1"/><path d="M148.96107641124638,740A488.7984780510645,488.7984780510645 0,0,1 1126.5580325133753,740" fill="none" stroke="gray" stroke-width="0.4049128521297427" opacity="1"/><path d="M148.96107641124638,740A43.89707505987462,43.89707505987462 0,0,0 61.166926291497134,740" fill="none" stroke="gray" stroke-width="0.011644758525756606" opacity="1"/><path d="M148.96107641124638,740A643.5954682833597,643.5954682833597 0,0,1 1436.1520129779658,740" fill="none" stroke="gray" stroke-width="0.3903841679753388" opacity="1"/><path d="M148.96107641124638,740A232.11158220344737,232.11158220344737 0,0,1 613.1842408181411,740" fill="none" stroke="gray" stroke-width="0.0040471897477655635" opacity="1"/><path d="M148.96107641124638,740A656.5894921128784,656.5894921128784 0,0,1 1462.140060637003,740" fill="none" stroke="gray" stroke-width="0.7976599003470405" opacity="1"/><path d="M148.96107641124638,740A495.73596172262165,495.73596172262165 0,0,1 1140.4329998564897,740" fill="none" stroke="gray" stroke-width="0.0005937493941332713" opacity="1"/><path d="M148.96107641124638,740A502.6734453941788,502.6734453941788 0,0,1 1154.307967199604,740" fill="none" stroke="gray" stroke-width="0.049135791698171734" opacity="1"/><path d="M148.96107641124638,740A509.610929065736,509.610929065736 0,0,1 1168.1829345427184,740" fill="none" stroke="gray" stroke-width="0.0017206615095290718" opacity="1"/><path d="M148.96107641124638,740A516.5484127372931,516.5484127372931 0,0,1 1182.0579018858327,740" fill="none" stroke="gray" stroke-width="0.0001696426840380775" opacity="1"/><path d="M148.96107641124638,740A523.4858964088503,523.4858964088503 0,0,1 1195.932869228947,740" fill="none" stroke="gray" stroke-width="0.09530283642567712" opacity="1"/><path d="M148.96107641124638,740A736.6444944512614,736.6444944512614 0,0,1 1622.250065313769,740" fill="none" stroke="gray" stroke-width="1.8796530564764728" opacity="1"/><path d="M148.96107641124638,740A530.4233800804075,530.4233800804075 0,0,1 1209.8078365720614,740" fill="none" stroke="gray" stroke-width="0.016019116307024177" opacity="1"/><path d="M148.96107641124638,740A537.3608637519646,537.3608637519646 0,0,1 1223.6828039151758,740" fill="none" stroke="gray" stroke-width="0.02052676476860738" opacity="1"/><path d="M148.96107641124638,740A40.064740744715536,40.064740744715536 0,0,1 229.09055790067745,740" fill="none" stroke="gray" stroke-width="0.07895655208515093" opacity="1"/><path d="M148.96107641124638,740A544.2983474235218,544.2983474235218 0,0,1 1237.5577712582901,740" fill="none" stroke="gray" stroke-width="0.00046045871381763896" opacity="1"/><path d="M148.96107641124638,740A211.29913118877568,211.29913118877568 0,0,1 571.5593387887977,740" fill="none" stroke="gray" stroke-width="0.07805986932666395" opacity="1"/><path d="M148.96107641124638,740A551.235831095079,551.235831095079 0,0,1 1251.4327386014045,740" fill="none" stroke="gray" stroke-width="0.03680034510168867" opacity="1"/><path d="M148.96107641124638,740A239.0490658750046,239.0490658750046 0,0,1 627.0592081612556,740" fill="none" stroke="gray" stroke-width="0.5794509393357762" opacity="1"/><path d="M148.96107641124638,740A36.959591388317406,36.959591388317406 0,0,0 75.04189363461157,740" fill="none" stroke="gray" stroke-width="0.1161810038969348" opacity="1"/><path d="M148.96107641124638,740A88.65689371461406,88.65689371461406 0,0,1 326.2748638404745,740" fill="none" stroke="gray" stroke-width="0.29388171542682096" opacity="1"/><path d="M148.96107641124638,740A757.5819781228186,757.5819781228186 0,0,1 1664.1250326568834,740" fill="none" stroke="gray" stroke-width="0.03980544407607747" opacity="1"/><path d="M148.96107641124638,740A558.1733147666362,558.1733147666362 0,0,1 1265.3077059445188,740" fill="none" stroke="gray" stroke-width="0.032001880610325904" opacity="1"/><path d="M148.96107641124638,740A186.80780217976553,186.80780217976553 0,0,1 522.5766807707774,740" fill="none" stroke="gray" stroke-width="0.04308924174567169" opacity="1"/><path d="M148.96107641124638,740A95.59437738617126,95.59437738617126 0,0,1 340.1498311835889,740" fill="none" stroke="gray" stroke-width="0.04728183950832703" opacity="1"/><path d="M148.96107641124638,740A193.74528585132276,193.74528585132276 0,0,1 536.4516481138919,740" fill="none" stroke="gray" stroke-width="1.0669434265883402" opacity="1"/><path d="M148.96107641124638,740A47.00222441627275,47.00222441627275 0,0,1 242.9655252437919,740" fill="none" stroke="gray" stroke-width="0.3318210899784796" opacity="1"/><path d="M148.96107641124638,740A202.52220852004922,202.52220852004922 0,0,1 554.0054934513448,740" fill="none" stroke="gray" stroke-width="0.06847505767851257" opacity="1"/><path d="M148.96107641124638,740A565.1107984381933,565.1107984381933 0,0,1 1279.1826732876332,740" fill="none" stroke="gray" stroke-width="0.031456600554489234" opacity="1"/><path d="M148.96107641124638,740A28.03937892219647,28.03937892219647 0,0,0 92.88231856685344,740" fill="none" stroke="gray" stroke-width="0.04123528955582699" opacity="1"/><path d="M148.96107641124638,740A572.0482821097505,572.0482821097505 0,0,1 1293.0576406307475,740" fill="none" stroke="gray" stroke-width="0.0020841815467535236" opacity="1"/><path d="M148.96107641124638,740A578.9857657813077,578.9857657813077 0,0,1 1306.9326079738619,740" fill="none" stroke="gray" stroke-width="0.5330900172550844" opacity="1"/><path d="M148.96107641124638,740A585.9232494528649,585.9232494528649 0,0,1 1320.8075753169762,740" fill="none" stroke="gray" stroke-width="0.1305521627018748" opacity="1"/><path d="M148.96107641124638,740A26.1897734016011,26.1897734016011 0,0,1 201.34062321444858,740" fill="none" stroke="gray" stroke-width="0.023119874367475136" opacity="1"/><path d="M148.96107641124638,740A592.860733124422,592.860733124422 0,0,1 1334.6825426600906,740" fill="none" stroke="gray" stroke-width="0.002738517613757537" opacity="1"/><path d="M148.96107641124638,740A701.6832070915996,701.6832070915996 0,0,1 1552.3274905944454,740" fill="none" stroke="gray" stroke-width="1.6305691269702787" opacity="1"/><path d="M148.96107641124638,740A599.7982167959792,599.7982167959792 0,0,1 1348.557510003205,740" fill="none" stroke="gray" stroke-width="0.03688516644370771" opacity="1"/><path d="M148.96107641124638,740A606.7357004675364,606.7357004675364 0,0,1 1362.4324773463193,740" fill="none" stroke="gray" stroke-width="0.43870809825704254" opacity="1"/><path d="M148.96107641124638,740A19.11916645607554,19.11916645607554 0,0,0 110.7227434990953,740" fill="none" stroke="gray" stroke-width="0.808565501463774" opacity="1"/><path d="M148.96107641124638,740A19.18572809305971,19.18572809305971 0,0,1 187.3325325973658,740" fill="none" stroke="gray" stroke-width="0.003732139048837705" opacity="1"/><path d="M148.96107641124638,740A613.6731841390936,613.6731841390936 0,0,1 1376.3074446894336,740" fill="none" stroke="gray" stroke-width="0.027336706799278777" opacity="1"/></g><g id="nodes"><g><circle cx="3.8335284595197074" cy="740" r="3.8335284595197074"/><text transform="translate(3.8335284595197074,748.8335284595197) rotate(-90)" alignment-baseline="middle" font-family="Helvetica, Arial, sans-serif" font-size="12" text-anchor="end">Australia</text></g><g><circle cx="19.542024262153845" cy="740" r="2"/><text transform="translate(19.542024262153845,747) rotate(-90)" alignment-baseline="middle" font-family="Helvetica, Arial, sans-serif" font-size="12" text-anchor="end">France</text></g><g><circle cx="33.41699160526828" cy="740" r="2"/><text transform="translate(33.41699160526828,747) rotate(-90)" alignment-baseline="middle" font-family="Helvetica, Arial, sans-serif" font-size="12" text-anchor="end">Israel</text></g><g><circle cx="47.29195894838271" cy="740" r="2"/><text transform="translate(47.29195894838271,747) rotate(-90)" alignment-baseline="middle" font-family="Helvetica, Arial, sans-serif" font-size="12" text-anchor="end">Japan</text></g><g><circle cx="61.166926291497134" cy="740" r="2"/><text transform="translate(61.166926291497134,747) rotate(-90)" alignment-baseline="middle" font-family="Helvetica, Arial, sans-serif" font-size="12" text-anchor="end">Oman</text></g><g><circle cx="75.04189363461157" cy="740" r="2"/><text transform="translate(75.04189363461157,747) rotate(-90)" alignment-baseline="middle" font-family="Helvetica, Arial, sans-serif" font-size="12" text-anchor="end">India</text></g><g><circle cx="92.88231856685344" cy="740" r="5.965457589127435"/><text transform="translate(92.88231856685344,750.9654575891275) rotate(-90)" alignment-baseline="middle" font-family="Helvetica, Arial, sans-serif" font-size="12" text-anchor="end">Thailand</text></g><g><circle cx="110.7227434990953" cy="740" r="2"/><text transform="translate(110.7227434990953,747) rotate(-90)" alignment-baseline="middle" font-family="Helvetica, Arial, sans-serif" font-size="12" text-anchor="end">United Kingdom</text></g><g><circle cx="148.96107641124638" cy="740" r="26.36336556903663"/><text transform="translate(148.96107641124638,771.3633655690367) rotate(-90)" alignment-baseline="middle" font-family="Helvetica, Arial, sans-serif" font-size="12" text-anchor="end">USA</text></g><g><circle cx="187.3325325973658" cy="740" r="2.133123273968357"/><text transform="translate(187.3325325973658,747.1331232739684) rotate(-90)" alignment-baseline="middle" font-family="Helvetica, Arial, sans-serif" font-size="12" text-anchor="end">Burkina Faso</text></g><g><circle cx="201.34062321444858" cy="740" r="2"/><text transform="translate(201.34062321444858,747) rotate(-90)" alignment-baseline="middle" font-family="Helvetica, Arial, sans-serif" font-size="12" text-anchor="end">Türkiye</text></g><g><circle cx="215.21559055756302" cy="740" r="2"/><text transform="translate(215.21559055756302,747) rotate(-90)" alignment-baseline="middle" font-family="Helvetica, Arial, sans-serif" font-size="12" text-anchor="end">Germany</text></g><g><circle cx="229.09055790067745" cy="740" r="2"/><text transform="translate(229.09055790067745,747) rotate(-90)" alignment-baseline="middle" font-family="Helvetica, Arial, sans-serif" font-size="12" text-anchor="end">Romania</text></g><g><circle cx="242.9655252437919" cy="740" r="2"/><text transform="translate(242.9655252437919,747) rotate(-90)" alignment-baseline="middle" font-family="Helvetica, Arial, sans-serif" font-size="12" text-anchor="end">Sweden</text></g><g><circle cx="256.8404925869063" cy="740" r="2"/><text transform="translate(256.8404925869063,747) rotate(-90)" alignment-baseline="middle" font-family="Helvetica, Arial, sans-serif" font-size="12" text-anchor="end">Brazil</text></g><g><circle cx="270.71545993002076" cy="740" r="2"/><text transform="translate(270.71545993002076,747) rotate(-90)" alignment-baseline="middle" font-family="Helvetica, Arial, sans-serif" font-size="12" text-anchor="end">Indonesia</text></g><g><circle cx="284.59042727313516" cy="740" r="2"/><text transform="translate(284.59042727313516,747) rotate(-90)" alignment-baseline="middle" font-family="Helvetica, Arial, sans-serif" font-size="12" text-anchor="end">Rep. of Korea</text></g><g><circle cx="298.4951618852476" cy="740" r="2.0297672689980577"/><text transform="translate(298.4951618852476,747.0297672689981) rotate(-90)" alignment-baseline="middle" font-family="Helvetica, Arial, sans-serif" font-size="12" text-anchor="end">Malaysia</text></g><g><circle cx="312.3998964973601" cy="740" r="2"/><text transform="translate(312.3998964973601,747) rotate(-90)" alignment-baseline="middle" font-family="Helvetica, Arial, sans-serif" font-size="12" text-anchor="end">China. Hong Kong SAR</text></g><g><circle cx="326.2748638404745" cy="740" r="2"/><text transform="translate(326.2748638404745,747) rotate(-90)" alignment-baseline="middle" font-family="Helvetica, Arial, sans-serif" font-size="12" text-anchor="end">Singapore</text></g><g><circle cx="340.1498311835889" cy="740" r="2"/><text transform="translate(340.1498311835889,747) rotate(-90)" alignment-baseline="middle" font-family="Helvetica, Arial, sans-serif" font-size="12" text-anchor="end">South Africa</text></g><g><circle cx="354.0247985267033" cy="740" r="2"/><text transform="translate(354.0247985267033,747) rotate(-90)" alignment-baseline="middle" font-family="Helvetica, Arial, sans-serif" font-size="12" text-anchor="end">Austria</text></g><g><circle cx="367.8997658698177" cy="740" r="2"/><text transform="translate(367.8997658698177,747) rotate(-90)" alignment-baseline="middle" font-family="Helvetica, Arial, sans-serif" font-size="12" text-anchor="end">Belgium</text></g><g><circle cx="381.7747332129321" cy="740" r="2"/><text transform="translate(381.7747332129321,747) rotate(-90)" alignment-baseline="middle" font-family="Helvetica, Arial, sans-serif" font-size="12" text-anchor="end">Croatia</text></g><g><circle cx="395.6497005560465" cy="740" r="2"/><text transform="translate(395.6497005560465,747) rotate(-90)" alignment-baseline="middle" font-family="Helvetica, Arial, sans-serif" font-size="12" text-anchor="end">Cyprus</text></g><g><circle cx="409.52466789916093" cy="740" r="2"/><text transform="translate(409.52466789916093,747) rotate(-90)" alignment-baseline="middle" font-family="Helvetica, Arial, sans-serif" font-size="12" text-anchor="end">Finland</text></g><g><circle cx="423.39963524227534" cy="740" r="2"/><text transform="translate(423.39963524227534,747) rotate(-90)" alignment-baseline="middle" font-family="Helvetica, Arial, sans-serif" font-size="12" text-anchor="end">Greece</text></g><g><circle cx="437.27460258538974" cy="740" r="2"/><text transform="translate(437.27460258538974,747) rotate(-90)" alignment-baseline="middle" font-family="Helvetica, Arial, sans-serif" font-size="12" text-anchor="end">Italy</text></g><g><circle cx="451.14956992850415" cy="740" r="2"/><text transform="translate(451.14956992850415,747) rotate(-90)" alignment-baseline="middle" font-family="Helvetica, Arial, sans-serif" font-size="12" text-anchor="end">Latvia</text></g><g><circle cx="465.02453727161856" cy="740" r="2"/><text transform="translate(465.02453727161856,747) rotate(-90)" alignment-baseline="middle" font-family="Helvetica, Arial, sans-serif" font-size="12" text-anchor="end">Lithuania</text></g><g><circle cx="478.89950461473296" cy="740" r="2"/><text transform="translate(478.89950461473296,747) rotate(-90)" alignment-baseline="middle" font-family="Helvetica, Arial, sans-serif" font-size="12" text-anchor="end">Luxembourg</text></g><g><circle cx="500.7380926927552" cy="740" r="9.963620734907817"/><text transform="translate(500.7380926927552,754.9636207349079) rotate(-90)" alignment-baseline="middle" font-family="Helvetica, Arial, sans-serif" font-size="12" text-anchor="end">Portugal</text></g><g><circle cx="522.5766807707774" cy="740" r="2"/><text transform="translate(522.5766807707774,747) rotate(-90)" alignment-baseline="middle" font-family="Helvetica, Arial, sans-serif" font-size="12" text-anchor="end">Slovenia</text></g><g><circle cx="536.4516481138919" cy="740" r="2"/><text transform="translate(536.4516481138919,747) rotate(-90)" alignment-baseline="middle" font-family="Helvetica, Arial, sans-serif" font-size="12" text-anchor="end">Spain</text></g><g><circle cx="554.0054934513448" cy="740" r="5.67887799433848"/><text transform="translate(554.0054934513448,750.6788779943384) rotate(-90)" alignment-baseline="middle" font-family="Helvetica, Arial, sans-serif" font-size="12" text-anchor="end">Switzerland</text></g><g><circle cx="571.5593387887977" cy="740" r="2"/><text transform="translate(571.5593387887977,747) rotate(-90)" alignment-baseline="middle" font-family="Helvetica, Arial, sans-serif" font-size="12" text-anchor="end">Saudi Arabia</text></g><g><circle cx="585.4343061319122" cy="740" r="2"/><text transform="translate(585.4343061319122,747) rotate(-90)" alignment-baseline="middle" font-family="Helvetica, Arial, sans-serif" font-size="12" text-anchor="end">Cabo Verde</text></g><g><circle cx="599.3092734750267" cy="740" r="2"/><text transform="translate(599.3092734750267,747) rotate(-90)" alignment-baseline="middle" font-family="Helvetica, Arial, sans-serif" font-size="12" text-anchor="end">China</text></g><g><circle cx="613.1842408181411" cy="740" r="2"/><text transform="translate(613.1842408181411,747) rotate(-90)" alignment-baseline="middle" font-family="Helvetica, Arial, sans-serif" font-size="12" text-anchor="end">New Zealand</text></g><g><circle cx="627.0592081612556" cy="740" r="2"/><text transform="translate(627.0592081612556,747) rotate(-90)" alignment-baseline="middle" font-family="Helvetica, Arial, sans-serif" font-size="12" text-anchor="end">Serbia</text></g><g><circle cx="640.93417550437" cy="740" r="2"/><text transform="translate(640.93417550437,747) rotate(-90)" alignment-baseline="middle" font-family="Helvetica, Arial, sans-serif" font-size="12" text-anchor="end">Algeria</text></g><g><circle cx="654.8091428474845" cy="740" r="2"/><text transform="translate(654.8091428474845,747) rotate(-90)" alignment-baseline="middle" font-family="Helvetica, Arial, sans-serif" font-size="12" text-anchor="end">Angola</text></g><g><circle cx="668.684110190599" cy="740" r="2"/><text transform="translate(668.684110190599,747) rotate(-90)" alignment-baseline="middle" font-family="Helvetica, Arial, sans-serif" font-size="12" text-anchor="end">Argentina</text></g><g><circle cx="682.5590775337134" cy="740" r="2"/><text transform="translate(682.5590775337134,747) rotate(-90)" alignment-baseline="middle" font-family="Helvetica, Arial, sans-serif" font-size="12" text-anchor="end">Bahamas</text></g><g><circle cx="696.4340448768279" cy="740" r="2"/><text transform="translate(696.4340448768279,747) rotate(-90)" alignment-baseline="middle" font-family="Helvetica, Arial, sans-serif" font-size="12" text-anchor="end">Bahrain</text></g><g><circle cx="710.3090122199424" cy="740" r="2"/><text transform="translate(710.3090122199424,747) rotate(-90)" alignment-baseline="middle" font-family="Helvetica, Arial, sans-serif" font-size="12" text-anchor="end">Barbados</text></g><g><circle cx="724.1839795630568" cy="740" r="2"/><text transform="translate(724.1839795630568,747) rotate(-90)" alignment-baseline="middle" font-family="Helvetica, Arial, sans-serif" font-size="12" text-anchor="end">Bosnia Herzegovina</text></g><g><circle cx="738.0589469061713" cy="740" r="2"/><text transform="translate(738.0589469061713,747) rotate(-90)" alignment-baseline="middle" font-family="Helvetica, Arial, sans-serif" font-size="12" text-anchor="end">Belize</text></g><g><circle cx="751.9339142492857" cy="740" r="2"/><text transform="translate(751.9339142492857,747) rotate(-90)" alignment-baseline="middle" font-family="Helvetica, Arial, sans-serif" font-size="12" text-anchor="end">Brunei Darussalam</text></g><g><circle cx="765.8088815924002" cy="740" r="2"/><text transform="translate(765.8088815924002,747) rotate(-90)" alignment-baseline="middle" font-family="Helvetica, Arial, sans-serif" font-size="12" text-anchor="end">Cameroon</text></g><g><circle cx="779.6838489355147" cy="740" r="2"/><text transform="translate(779.6838489355147,747) rotate(-90)" alignment-baseline="middle" font-family="Helvetica, Arial, sans-serif" font-size="12" text-anchor="end">Central African Rep.</text></g><g><circle cx="793.5588162786291" cy="740" r="2"/><text transform="translate(793.5588162786291,747) rotate(-90)" alignment-baseline="middle" font-family="Helvetica, Arial, sans-serif" font-size="12" text-anchor="end">Chile</text></g><g><circle cx="807.4337836217436" cy="740" r="2"/><text transform="translate(807.4337836217436,747) rotate(-90)" alignment-baseline="middle" font-family="Helvetica, Arial, sans-serif" font-size="12" text-anchor="end">Colombia</text></g><g><circle cx="821.3087509648581" cy="740" r="2"/><text transform="translate(821.3087509648581,747) rotate(-90)" alignment-baseline="middle" font-family="Helvetica, Arial, sans-serif" font-size="12" text-anchor="end">Costa Rica</text></g><g><circle cx="835.1837183079725" cy="740" r="2"/><text transform="translate(835.1837183079725,747) rotate(-90)" alignment-baseline="middle" font-family="Helvetica, Arial, sans-serif" font-size="12" text-anchor="end">Benin</text></g><g><circle cx="849.058685651087" cy="740" r="2"/><text transform="translate(849.058685651087,747) rotate(-90)" alignment-baseline="middle" font-family="Helvetica, Arial, sans-serif" font-size="12" text-anchor="end">Dominican Rep.</text></g><g><circle cx="862.9336529942015" cy="740" r="2"/><text transform="translate(862.9336529942015,747) rotate(-90)" alignment-baseline="middle" font-family="Helvetica, Arial, sans-serif" font-size="12" text-anchor="end">Ecuador</text></g><g><circle cx="876.8086203373159" cy="740" r="2"/><text transform="translate(876.8086203373159,747) rotate(-90)" alignment-baseline="middle" font-family="Helvetica, Arial, sans-serif" font-size="12" text-anchor="end">El Salvador</text></g><g><circle cx="890.6835876804304" cy="740" r="2"/><text transform="translate(890.6835876804304,747) rotate(-90)" alignment-baseline="middle" font-family="Helvetica, Arial, sans-serif" font-size="12" text-anchor="end">Djibouti</text></g><g><circle cx="904.5585550235448" cy="740" r="2"/><text transform="translate(904.5585550235448,747) rotate(-90)" alignment-baseline="middle" font-family="Helvetica, Arial, sans-serif" font-size="12" text-anchor="end">Georgia</text></g><g><circle cx="918.4335223666593" cy="740" r="2"/><text transform="translate(918.4335223666593,747) rotate(-90)" alignment-baseline="middle" font-family="Helvetica, Arial, sans-serif" font-size="12" text-anchor="end">Guatemala</text></g><g><circle cx="932.3084897097738" cy="740" r="2"/><text transform="translate(932.3084897097738,747) rotate(-90)" alignment-baseline="middle" font-family="Helvetica, Arial, sans-serif" font-size="12" text-anchor="end">Haiti</text></g><g><circle cx="946.1834570528882" cy="740" r="2"/><text transform="translate(946.1834570528882,747) rotate(-90)" alignment-baseline="middle" font-family="Helvetica, Arial, sans-serif" font-size="12" text-anchor="end">Honduras</text></g><g><circle cx="960.0584243960027" cy="740" r="2"/><text transform="translate(960.0584243960027,747) rotate(-90)" alignment-baseline="middle" font-family="Helvetica, Arial, sans-serif" font-size="12" text-anchor="end">Côte d'Ivoire</text></g><g><circle cx="973.9333917391172" cy="740" r="2"/><text transform="translate(973.9333917391172,747) rotate(-90)" alignment-baseline="middle" font-family="Helvetica, Arial, sans-serif" font-size="12" text-anchor="end">Jamaica</text></g><g><circle cx="987.8083590822316" cy="740" r="2"/><text transform="translate(987.8083590822316,747) rotate(-90)" alignment-baseline="middle" font-family="Helvetica, Arial, sans-serif" font-size="12" text-anchor="end">Kazakhstan</text></g><g><circle cx="1001.6833264253461" cy="740" r="2"/><text transform="translate(1001.6833264253461,747) rotate(-90)" alignment-baseline="middle" font-family="Helvetica, Arial, sans-serif" font-size="12" text-anchor="end">Jordan</text></g><g><circle cx="1015.5582937684605" cy="740" r="2"/><text transform="translate(1015.5582937684605,747) rotate(-90)" alignment-baseline="middle" font-family="Helvetica, Arial, sans-serif" font-size="12" text-anchor="end">Kuwait</text></g><g><circle cx="1029.433261111575" cy="740" r="2"/><text transform="translate(1029.433261111575,747) rotate(-90)" alignment-baseline="middle" font-family="Helvetica, Arial, sans-serif" font-size="12" text-anchor="end">Kyrgyzstan</text></g><g><circle cx="1043.3082284546892" cy="740" r="2"/><text transform="translate(1043.3082284546892,747) rotate(-90)" alignment-baseline="middle" font-family="Helvetica, Arial, sans-serif" font-size="12" text-anchor="end">Lebanon</text></g><g><circle cx="1057.1831957978036" cy="740" r="2"/><text transform="translate(1057.1831957978036,747) rotate(-90)" alignment-baseline="middle" font-family="Helvetica, Arial, sans-serif" font-size="12" text-anchor="end">Maldives</text></g><g><circle cx="1071.058163140918" cy="740" r="2"/><text transform="translate(1071.058163140918,747) rotate(-90)" alignment-baseline="middle" font-family="Helvetica, Arial, sans-serif" font-size="12" text-anchor="end">Mexico</text></g><g><circle cx="1084.9331304840323" cy="740" r="2"/><text transform="translate(1084.9331304840323,747) rotate(-90)" alignment-baseline="middle" font-family="Helvetica, Arial, sans-serif" font-size="12" text-anchor="end">Other Asia nes</text></g><g><circle cx="1098.8080978271466" cy="740" r="2"/><text transform="translate(1098.8080978271466,747) rotate(-90)" alignment-baseline="middle" font-family="Helvetica, Arial, sans-serif" font-size="12" text-anchor="end">Mongolia</text></g><g><circle cx="1112.683065170261" cy="740" r="2"/><text transform="translate(1112.683065170261,747) rotate(-90)" alignment-baseline="middle" font-family="Helvetica, Arial, sans-serif" font-size="12" text-anchor="end">Rep. of Moldova</text></g><g><circle cx="1126.5580325133753" cy="740" r="2"/><text transform="translate(1126.5580325133753,747) rotate(-90)" alignment-baseline="middle" font-family="Helvetica, Arial, sans-serif" font-size="12" text-anchor="end">Morocco</text></g><g><circle cx="1140.4329998564897" cy="740" r="2"/><text transform="translate(1140.4329998564897,747) rotate(-90)" alignment-baseline="middle" font-family="Helvetica, Arial, sans-serif" font-size="12" text-anchor="end">Pakistan</text></g><g><circle cx="1154.307967199604" cy="740" r="2"/><text transform="translate(1154.307967199604,747) rotate(-90)" alignment-baseline="middle" font-family="Helvetica, Arial, sans-serif" font-size="12" text-anchor="end">Panama</text></g><g><circle cx="1168.1829345427184" cy="740" r="2"/><text transform="translate(1168.1829345427184,747) rotate(-90)" alignment-baseline="middle" font-family="Helvetica, Arial, sans-serif" font-size="12" text-anchor="end">Papua New Guinea</text></g><g><circle cx="1182.0579018858327" cy="740" r="2"/><text transform="translate(1182.0579018858327,747) rotate(-90)" alignment-baseline="middle" font-family="Helvetica, Arial, sans-serif" font-size="12" text-anchor="end">Paraguay</text></g><g><circle cx="1195.932869228947" cy="740" r="2"/><text transform="translate(1195.932869228947,747) rotate(-90)" alignment-baseline="middle" font-family="Helvetica, Arial, sans-serif" font-size="12" text-anchor="end">Philippines</text></g><g><circle cx="1209.8078365720614" cy="740" r="2"/><text transform="translate(1209.8078365720614,747) rotate(-90)" alignment-baseline="middle" font-family="Helvetica, Arial, sans-serif" font-size="12" text-anchor="end">Timor-Leste</text></g><g><circle cx="1223.6828039151758" cy="740" r="2"/><text transform="translate(1223.6828039151758,747) rotate(-90)" alignment-baseline="middle" font-family="Helvetica, Arial, sans-serif" font-size="12" text-anchor="end">Qatar</text></g><g><circle cx="1237.5577712582901" cy="740" r="2"/><text transform="translate(1237.5577712582901,747) rotate(-90)" alignment-baseline="middle" font-family="Helvetica, Arial, sans-serif" font-size="12" text-anchor="end">Saint Kitts and Nevis</text></g><g><circle cx="1251.4327386014045" cy="740" r="2"/><text transform="translate(1251.4327386014045,747) rotate(-90)" alignment-baseline="middle" font-family="Helvetica, Arial, sans-serif" font-size="12" text-anchor="end">Senegal</text></g><g><circle cx="1265.3077059445188" cy="740" r="2"/><text transform="translate(1265.3077059445188,747) rotate(-90)" alignment-baseline="middle" font-family="Helvetica, Arial, sans-serif" font-size="12" text-anchor="end">Viet Nam</text></g><g><circle cx="1279.1826732876332" cy="740" r="2"/><text transform="translate(1279.1826732876332,747) rotate(-90)" alignment-baseline="middle" font-family="Helvetica, Arial, sans-serif" font-size="12" text-anchor="end">Tajikistan</text></g><g><circle cx="1293.0576406307475" cy="740" r="2"/><text transform="translate(1293.0576406307475,747) rotate(-90)" alignment-baseline="middle" font-family="Helvetica, Arial, sans-serif" font-size="12" text-anchor="end">Togo</text></g><g><circle cx="1306.9326079738619" cy="740" r="2"/><text transform="translate(1306.9326079738619,747) rotate(-90)" alignment-baseline="middle" font-family="Helvetica, Arial, sans-serif" font-size="12" text-anchor="end">United Arab Emirates</text></g><g><circle cx="1320.8075753169762" cy="740" r="2"/><text transform="translate(1320.8075753169762,747) rotate(-90)" alignment-baseline="middle" font-family="Helvetica, Arial, sans-serif" font-size="12" text-anchor="end">Tunisia</text></g><g><circle cx="1334.6825426600906" cy="740" r="2"/><text transform="translate(1334.6825426600906,747) rotate(-90)" alignment-baseline="middle" font-family="Helvetica, Arial, sans-serif" font-size="12" text-anchor="end">Turks and Caicos Isds</text></g><g><circle cx="1348.557510003205" cy="740" r="2"/><text transform="translate(1348.557510003205,747) rotate(-90)" alignment-baseline="middle" font-family="Helvetica, Arial, sans-serif" font-size="12" text-anchor="end">North Macedonia</text></g><g><circle cx="1362.4324773463193" cy="740" r="2"/><text transform="translate(1362.4324773463193,747) rotate(-90)" alignment-baseline="middle" font-family="Helvetica, Arial, sans-serif" font-size="12" text-anchor="end">Egypt</text></g><g><circle cx="1376.3074446894336" cy="740" r="2"/><text transform="translate(1376.3074446894336,747) rotate(-90)" alignment-baseline="middle" font-family="Helvetica, Arial, sans-serif" font-size="12" text-anchor="end">Uruguay</text></g><g><circle cx="1391.6651089143274" cy="740" r="3.482696881779396"/><text transform="translate(1391.6651089143274,748.4826968817794) rotate(-90)" alignment-baseline="middle" font-family="Helvetica, Arial, sans-serif" font-size="12" text-anchor="end">Denmark</text></g><g><circle cx="1412.0621821784528" cy="740" r="7.039409039231527"/><text transform="translate(1412.0621821784528,752.0394090392315) rotate(-90)" alignment-baseline="middle" font-family="Helvetica, Arial, sans-serif" font-size="12" text-anchor="end">Canada</text></g><g><circle cx="1436.1520129779658" cy="740" r="7.175454417166867"/><text transform="translate(1436.1520129779658,752.1754544171669) rotate(-90)" alignment-baseline="middle" font-family="Helvetica, Arial, sans-serif" font-size="12" text-anchor="end">Netherlands</text></g><g><circle cx="1462.140060637003" cy="740" r="8.937625898756176"/><text transform="translate(1462.140060637003,753.9376258987562) rotate(-90)" alignment-baseline="middle" font-family="Helvetica, Arial, sans-serif" font-size="12" text-anchor="end">Norway</text></g><g><circle cx="1482.9526538788737" cy="740" r="2"/><text transform="translate(1482.9526538788737,747) rotate(-90)" alignment-baseline="middle" font-family="Helvetica, Arial, sans-serif" font-size="12" text-anchor="end">Faeroe Isds</text></g><g><circle cx="1496.827621221988" cy="740" r="2"/><text transform="translate(1496.827621221988,747) rotate(-90)" alignment-baseline="middle" font-family="Helvetica, Arial, sans-serif" font-size="12" text-anchor="end">Hungary</text></g><g><circle cx="1510.7025885651024" cy="740" r="2"/><text transform="translate(1510.7025885651024,747) rotate(-90)" alignment-baseline="middle" font-family="Helvetica, Arial, sans-serif" font-size="12" text-anchor="end">Ireland</text></g><g><circle cx="1524.5775559082167" cy="740" r="2"/><text transform="translate(1524.5775559082167,747) rotate(-90)" alignment-baseline="middle" font-family="Helvetica, Arial, sans-serif" font-size="12" text-anchor="end">Malta</text></g><g><circle cx="1538.452523251331" cy="740" r="2"/><text transform="translate(1538.452523251331,747) rotate(-90)" alignment-baseline="middle" font-family="Helvetica, Arial, sans-serif" font-size="12" text-anchor="end">Czechia</text></g><g><circle cx="1552.3274905944454" cy="740" r="2"/><text transform="translate(1552.3274905944454,747) rotate(-90)" alignment-baseline="middle" font-family="Helvetica, Arial, sans-serif" font-size="12" text-anchor="end">Ukraine</text></g><g><circle cx="1566.35129428255" cy="740" r="2.1488363449902876"/><text transform="translate(1566.35129428255,747.1488363449903) rotate(-90)" alignment-baseline="middle" font-family="Helvetica, Arial, sans-serif" font-size="12" text-anchor="end">Estonia</text></g><g><circle cx="1580.3750979706547" cy="740" r="2"/><text transform="translate(1580.3750979706547,747) rotate(-90)" alignment-baseline="middle" font-family="Helvetica, Arial, sans-serif" font-size="12" text-anchor="end">Bulgaria</text></g><g><circle cx="1622.250065313769" cy="740" r="30"/><text transform="translate(1622.250065313769,775) rotate(-90)" alignment-baseline="middle" font-family="Helvetica, Arial, sans-serif" font-size="12" text-anchor="end">Poland</text></g><g><circle cx="1664.1250326568834" cy="740" r="2"/><text transform="translate(1664.1250326568834,747) rotate(-90)" alignment-baseline="middle" font-family="Helvetica, Arial, sans-serif" font-size="12" text-anchor="end">Slovakia</text></g><g><circle cx="1677.9999999999977" cy="740" r="2"/><text transform="translate(1677.9999999999977,747) rotate(-90)" alignment-baseline="middle" font-family="Helvetica, Arial, sans-serif" font-size="12" text-anchor="end">Rwanda</text></g></g></g></svg>