<svg xmlns="http://www.w3.org/2000/svg" width="1200" height="800"><rect width="1200" height="800" x="0" y="0" fill="#FFFFFF" id="background"/><g transform="translate(10,10)" id="viz"><g id="arcs"><path d="M1019.6672677827379,650A6.0212181528467,6.0212181528467 0,0,0 1007.6248314770445,650" fill="none" stroke="gray" stroke-width="0.00030697247587842594" opacity="0.5"/><path d="M1019.6672677827379,650A58.29702024605223,58.29702024605223 0,0,0 903.0732272906334,650" fill="none" stroke="gray" stroke-width="0.0006139449517568519" opacity="0.5"/><path d="M1019.6672677827379,650A142.03803005180566,142.03803005180566 0,0,0 735.5912076791266,650" fill="none" stroke="gray" stroke-width="0.0291462287623516" opacity="0.5"/><path d="M1019.6672677827379,650A220.46548800906447,220.46548800906447 0,0,0 578.736291764609,650" fill="none" stroke="gray" stroke-width="0.05584475594072523" opacity="0.5"/><path d="M1019.6672677827379,650A215.56941773987285,215.56941773987285 0,0,0 588.5284323029922,650" fill="none" stroke="gray" stroke-width="0.00014540801488978073" opacity="0.5"/><path d="M1019.6672677827379,650A210.67334747068122,210.67334747068122 0,0,0 598.3205728413755,650" fill="none" stroke="gray" stroke-width="0.00016156446098864526" opacity="0.5"/><path d="M1019.6672677827379,650A12.765769403238778,12.765769403238778 0,0,0 994.1357289762603,650" fill="none" stroke="gray" stroke-width="0.0010905601116733554" opacity="0.5"/><path d="M1019.6672677827379,650A23.90333305221884,23.90333305221884 0,0,0 971.8606016783002,650" fill="none" stroke="gray" stroke-width="0.0008966827584869811" opacity="0.5"/><path d="M1019.6672677827379,650A71.4002242191371,71.4002242191371 0,0,1 1162.467716221012,650" fill="none" stroke="gray" stroke-width="0.0037402172718871375" opacity="0.5"/><path d="M608.2030470299516,650A68.59015059377913,68.59015059377913 0,0,1 745.3833482175098,650" fill="none" stroke="gray" stroke-width="0.0004846933829659358" opacity="0.5"/><path d="M1034.123187338131,650A7.227959777696526,7.227959777696526 0,0,0 1019.6672677827379,650" fill="none" stroke="gray" stroke-width="0.000008078223049432263" opacity="0.5"/><path d="M1034.123187338131,650A60.62890975455713,60.62890975455713 0,0,0 912.8653678290167,650" fill="none" stroke="gray" stroke-width="0.005889024603036119" opacity="0.5"/><path d="M1034.123187338131,650A13.249177930543226,13.249177930543226 0,0,0 1007.6248314770445,650" fill="none" stroke="gray" stroke-width="0.045738898905885464" opacity="0.5"/><path d="M1034.123187338131,650A26.23522256072374,26.23522256072374 0,0,0 981.6527422166835,650" fill="none" stroke="gray" stroke-width="0.0024557798070274075" opacity="0.5"/><path d="M1034.123187338131,650A49.254094534072806,49.254094534072806 0,0,1 1132.6313764062766,650" fill="none" stroke="gray" stroke-width="0.1821073822033515" opacity="0.5"/><path d="M1034.123187338131,650A8.959707123151702,8.959707123151702 0,0,1 1052.0426015844344,650" fill="none" stroke="gray" stroke-width="0.000339285368076155" opacity="0.5"/><path d="M1034.123187338131,650A55.7328394853655,55.7328394853655 0,0,0 922.6575083673999,650" fill="none" stroke="gray" stroke-width="0.00016156446098864526" opacity="0.5"/><path d="M1034.123187338131,650A50.83676921617388,50.83676921617388 0,0,0 932.4496489057832,650" fill="none" stroke="gray" stroke-width="0.00007270400744489037" opacity="0.5"/><path d="M1034.123187338131,650A45.94069894698225,45.94069894698225 0,0,0 942.2417894441664,650" fill="none" stroke="gray" stroke-width="0.45557138887273246" opacity="0.5"/><path d="M1034.123187338131,650A31.131292829915367,31.131292829915367 0,0,0 971.8606016783002,650" fill="none" stroke="gray" stroke-width="0.000339285368076155" opacity="0.5"/><path d="M1034.123187338131,650A64.17226444144057,64.17226444144057 0,0,1 1162.467716221012,650" fill="none" stroke="gray" stroke-width="0.0018903041935671493" opacity="0.5"/><path d="M1007.6248314770445,650A194.76965512925847,194.76965512925847 0,0,0 618.0855212185276,650" fill="none" stroke="gray" stroke-width="0.02325720415931548" opacity="0.5"/><path d="M1007.6248314770445,650A503.31241573852225,503.31241573852225 0,0,0 1,650" fill="none" stroke="gray" stroke-width="0.010097778811790328" opacity="0.5"/><path d="M1007.6248314770445,650A189.87358486006684,189.87358486006684 0,0,0 627.8776617569108,650" fill="none" stroke="gray" stroke-width="0.013627962284392227" opacity="0.5"/><path d="M1007.6248314770445,650A91.44436424673853,91.44436424673853 0,0,0 824.7361029835674,650" fill="none" stroke="gray" stroke-width="0.010081622365691463" opacity="0.5"/><path d="M1007.6248314770445,650A32.691521016439026,32.691521016439026 0,0,0 942.2417894441664,650" fill="none" stroke="gray" stroke-width="0.0016237228329358847" opacity="0.5"/><path d="M1007.6248314770445,650A77.4214423719838,77.4214423719838 0,0,1 1162.467716221012,650" fill="none" stroke="gray" stroke-width="0.0014379237027989425" opacity="0.5"/><path d="M952.134926073793,650A105.16639507360952,105.16639507360952 0,0,1 1162.467716221012,650" fill="none" stroke="gray" stroke-width="0.0006058667287074196" opacity="0.5"/><path d="M962.0482619216683,650A162.18922981318713,162.18922981318713 0,0,0 637.6698022952941,650" fill="none" stroke="gray" stroke-width="0.00002423466914829679" opacity="0.5"/><path d="M962.0482619216683,650A103.43638658288762,103.43638658288762 0,0,0 755.1754887558931,650" fill="none" stroke="gray" stroke-width="0" opacity="0.5"/><path d="M962.0482619216683,650A157.2931595439955,157.2931595439955 0,0,0 647.4619428336773,650" fill="none" stroke="gray" stroke-width="0" opacity="0.5"/><path d="M1132.6313764062766,650A149.05156644216294,149.05156644216294 0,0,0 834.5282435219507,650" fill="none" stroke="gray" stroke-width="0.00002423466914829679" opacity="0.5"/><path d="M1132.6313764062766,650A183.83187355600012,183.83187355600012 0,0,0 764.9676292942763,650" fill="none" stroke="gray" stroke-width="0.0002181120223346711" opacity="0.5"/><path d="M1132.6313764062766,650A178.9358032868085,178.9358032868085 0,0,0 774.7597698326596,650" fill="none" stroke="gray" stroke-width="0.000008078223049432263" opacity="0.5"/><path d="M1132.6313764062766,650A237.688646517108,237.688646517108 0,0,0 657.2540833720606,650" fill="none" stroke="gray" stroke-width="0.000008078223049432263" opacity="0.5"/><path d="M1132.6313764062766,650A232.79257624791637,232.79257624791637 0,0,0 667.0462239104438,650" fill="none" stroke="gray" stroke-width="0" opacity="0.5"/><path d="M1132.6313764062766,650A109.88300428862993,109.88300428862993 0,0,0 912.8653678290167,650" fill="none" stroke="gray" stroke-width="0.000040391115247161315" opacity="0.5"/><path d="M1132.6313764062766,650A62.50327246461603,62.50327246461603 0,0,0 1007.6248314770445,650" fill="none" stroke="gray" stroke-width="0.00002423466914829679" opacity="0.5"/><path d="M1132.6313764062766,650A90.24822516624175,90.24822516624175 0,0,0 952.134926073793,650" fill="none" stroke="gray" stroke-width="0.000008078223049432263" opacity="0.5"/><path d="M1132.6313764062766,650A144.1554961729713,144.1554961729713 0,0,0 844.3203840603339,650" fill="none" stroke="gray" stroke-width="0.000016156446098864526" opacity="0.5"/><path d="M1132.6313764062766,650A114.77907455782156,114.77907455782156 0,0,0 903.0732272906334,650" fill="none" stroke="gray" stroke-width="0.018975745943116386" opacity="0.5"/><path d="M1132.6313764062766,650A75.48931709479655,75.48931709479655 0,0,0 981.6527422166835,650" fill="none" stroke="gray" stroke-width="0.0006220231748062841" opacity="0.5"/><path d="M1132.6313764062766,650A227.89650597872475,227.89650597872475 0,0,0 676.8383644488271,650" fill="none" stroke="gray" stroke-width="0.00009693867659318716" opacity="0.5"/><path d="M1132.6313764062766,650A139.2594259037797,139.2594259037797 0,0,0 854.1125245987172,650" fill="none" stroke="gray" stroke-width="0.00002423466914829679" opacity="0.5"/><path d="M1132.6313764062766,650A560.9196179339467,560.9196179339467 0,0,0 10.792140538383205,650" fill="none" stroke="gray" stroke-width="0.000056547561346025834" opacity="0.5"/><path d="M1132.6313764062766,650A198.520084363575,198.520084363575 0,0,0 735.5912076791266,650" fill="none" stroke="gray" stroke-width="0.00004846933829659358" opacity="0.5"/><path d="M1132.6313764062766,650A174.03973301761687,174.03973301761687 0,0,0 784.5519103710428,650" fill="none" stroke="gray" stroke-width="0.00015348623793921297" opacity="0.5"/><path d="M1132.6313764062766,650A134.36335563458806,134.36335563458806 0,0,0 863.9046651371004,650" fill="none" stroke="gray" stroke-width="0" opacity="0.5"/><path d="M1132.6313764062766,650A129.46728536539644,129.46728536539644 0,0,0 873.6968056754837,650" fill="none" stroke="gray" stroke-width="0" opacity="0.5"/><path d="M1132.6313764062766,650A169.14366274842524,169.14366274842524 0,0,0 794.3440509094261,650" fill="none" stroke="gray" stroke-width="0" opacity="0.5"/><path d="M1132.6313764062766,650A556.023547664755,556.023547664755 0,0,0 20.58428107676641,650" fill="none" stroke="gray" stroke-width="0" opacity="0.5"/><path d="M1132.6313764062766,650A40.294387410921104,40.294387410921104 0,0,0 1052.0426015844344,650" fill="none" stroke="gray" stroke-width="0.5002439623360928" opacity="0.5"/><path d="M1132.6313764062766,650A23.544479783222982,23.544479783222982 0,0,0 1085.5424168398306,650" fill="none" stroke="gray" stroke-width="0.00015348623793921297" opacity="0.5"/><path d="M1132.6313764062766,650A161.54564972988987,161.54564972988987 0,0,0 809.5400769464968,650" fill="none" stroke="gray" stroke-width="0.000016156446098864526" opacity="0.5"/><path d="M1132.6313764062766,650A104.98693401943831,104.98693401943831 0,0,0 922.6575083673999,650" fill="none" stroke="gray" stroke-width="0.000016156446098864526" opacity="0.5"/><path d="M1132.6313764062766,650A124.57121509620481,124.57121509620481 0,0,0 883.4889462138669,650" fill="none" stroke="gray" stroke-width="0.000016156446098864526" opacity="0.5"/><path d="M1132.6313764062766,650A119.67514482701318,119.67514482701318 0,0,0 893.2810867522502,650" fill="none" stroke="gray" stroke-width="0.000008078223049432263" opacity="0.5"/><path d="M1132.6313764062766,650A223.00043570953312,223.00043570953312 0,0,0 686.6305049872103,650" fill="none" stroke="gray" stroke-width="0.0001050168996426194" opacity="0.5"/><path d="M1132.6313764062766,650A100.09086375024668,100.09086375024668 0,0,0 932.4496489057832,650" fill="none" stroke="gray" stroke-width="0.019694707794515855" opacity="0.5"/><path d="M1132.6313764062766,650A7.9002187659523315,7.9002187659523315 0,0,0 1116.830938874372,650" fill="none" stroke="gray" stroke-width="0.00018579913013694202" opacity="0.5"/><path d="M1132.6313764062766,650A80.38538736398817,80.38538736398817 0,0,0 971.8606016783002,650" fill="none" stroke="gray" stroke-width="0.0007189618513994713" opacity="0.5"/><path d="M1132.6313764062766,650A14.91816990736777,14.91816990736777 0,0,1 1162.467716221012,650" fill="none" stroke="gray" stroke-width="0.1910984444573696" opacity="0.5"/><path d="M1052.0426015844344,650A108.75717903124183,108.75717903124183 0,0,0 834.5282435219507,650" fill="none" stroke="gray" stroke-width="0.00007270400744489037" opacity="0.5"/><path d="M1052.0426015844344,650A103.86110876205021,103.86110876205021 0,0,0 844.3203840603339,650" fill="none" stroke="gray" stroke-width="0.08251097022690113" opacity="0.5"/><path d="M1052.0426015844344,650A35.19492968387544,35.19492968387544 0,0,0 981.6527422166835,650" fill="none" stroke="gray" stroke-width="0.00002423466914829679" opacity="0.5"/><path d="M1052.0426015844344,650A98.96503849285858,98.96503849285858 0,0,0 854.1125245987172,650" fill="none" stroke="gray" stroke-width="0.5420002972786082" opacity="0.5"/><path d="M1052.0426015844344,650A16.74990762769812,16.74990762769812 0,0,1 1085.5424168398306,650" fill="none" stroke="gray" stroke-width="0.00016156446098864526" opacity="0.5"/><path d="M1052.0426015844344,650A64.6925466085172,64.6925466085172 0,0,0 922.6575083673999,650" fill="none" stroke="gray" stroke-width="0.0006058667287074196" opacity="0.5"/><path d="M1052.0426015844344,650A59.79647633932558,59.79647633932558 0,0,0 932.4496489057832,650" fill="none" stroke="gray" stroke-width="0.00474999515306617" opacity="0.5"/><path d="M1052.0426015844344,650A32.39416864496877,32.39416864496877 0,0,1 1116.830938874372,650" fill="none" stroke="gray" stroke-width="0.0010501689964261941" opacity="0.5"/><path d="M1052.0426015844344,650A54.900406070133954,54.900406070133954 0,0,0 942.2417894441664,650" fill="none" stroke="gray" stroke-width="0.562349341140128" opacity="0.5"/><path d="M1052.0426015844344,650A40.09099995306707,40.09099995306707 0,0,0 971.8606016783002,650" fill="none" stroke="gray" stroke-width="0.0006704925131028779" opacity="0.5"/><path d="M1052.0426015844344,650A55.21255731828887,55.21255731828887 0,0,1 1162.467716221012,650" fill="none" stroke="gray" stroke-width="0.12218312362266297" opacity="0.5"/><path d="M1085.5424168398306,650A155.3913235035855,155.3913235035855 0,0,0 774.7597698326596,650" fill="none" stroke="gray" stroke-width="0.005170062751636648" opacity="0.5"/><path d="M1085.5424168398306,650A86.33852450540695,86.33852450540695 0,0,0 912.8653678290167,650" fill="none" stroke="gray" stroke-width="0.6682386888720862" opacity="0.5"/><path d="M1085.5424168398306,650A66.70374538301877,66.70374538301877 0,0,0 952.134926073793,650" fill="none" stroke="gray" stroke-width="0.008078223049432263" opacity="0.5"/><path d="M1085.5424168398306,650A91.23459477459858,91.23459477459858 0,0,0 903.0732272906334,650" fill="none" stroke="gray" stroke-width="0.010307812611075568" opacity="0.5"/><path d="M1085.5424168398306,650A51.944837311573565,51.944837311573565 0,0,0 981.6527422166835,650" fill="none" stroke="gray" stroke-width="0.2770830505955266" opacity="0.5"/><path d="M1085.5424168398306,650A110.81887585136508,110.81887585136508 0,0,0 863.9046651371004,650" fill="none" stroke="gray" stroke-width="0.003029333643537098" opacity="0.5"/><path d="M1085.5424168398306,650A105.92280558217345,105.92280558217345 0,0,0 873.6968056754837,650" fill="none" stroke="gray" stroke-width="0.0005816320595591229" opacity="0.5"/><path d="M1085.5424168398306,650A527.5829976123405,527.5829976123405 0,0,0 30.376421615149614,650" fill="none" stroke="gray" stroke-width="0.03783839676354072" opacity="0.5"/><path d="M1085.5424168398306,650A194.5598856571185,194.5598856571185 0,0,0 696.4226455255936,650" fill="none" stroke="gray" stroke-width="0.0012036552343654072" opacity="0.5"/><path d="M1085.5424168398306,650A101.02673531298183,101.02673531298183 0,0,0 883.4889462138669,650" fill="none" stroke="gray" stroke-width="0.11235192617150391" opacity="0.5"/><path d="M1085.5424168398306,650A96.1306650437902,96.1306650437902 0,0,0 893.2810867522502,650" fill="none" stroke="gray" stroke-width="0.012707044856756949" opacity="0.5"/><path d="M1085.5424168398306,650A71.65031369783208,71.65031369783208 0,0,0 942.2417894441664,650" fill="none" stroke="gray" stroke-width="20" opacity="0.5"/><path d="M1085.5424168398306,650A38.46264969059075,38.46264969059075 0,0,1 1162.467716221012,650" fill="none" stroke="gray" stroke-width="0.3058980722128515" opacity="0.5"/><path d="M809.5400769464968,650A384.685757396482,384.685757396482 0,0,0 40.16856215353282,650" fill="none" stroke="gray" stroke-width="0.0008078223049432263" opacity="0.5"/><path d="M809.5400769464968,650A176.46381963725764,176.46381963725764 0,0,1 1162.467716221012,650" fill="none" stroke="gray" stroke-width="1.7337159179769546" opacity="0.5"/><path d="M1116.830938874372,650A48.581835545817,48.581835545817 0,0,0 1019.6672677827379,650" fill="none" stroke="gray" stroke-width="0.0000646257843954581" opacity="0.5"/><path d="M1116.830938874372,650A141.1513476762106,141.1513476762106 0,0,0 834.5282435219507,650" fill="none" stroke="gray" stroke-width="0.006809942030671397" opacity="0.5"/><path d="M1116.830938874372,650A175.9316547900478,175.9316547900478 0,0,0 764.9676292942763,650" fill="none" stroke="gray" stroke-width="0.0014379237027989425" opacity="0.5"/><path d="M1116.830938874372,650A41.353875768120474,41.353875768120474 0,0,0 1034.123187338131,650" fill="none" stroke="gray" stroke-width="0.03471212444341043" opacity="0.5"/><path d="M1116.830938874372,650A205.30807640519754,205.30807640519754 0,0,0 706.2147860639768,650" fill="none" stroke="gray" stroke-width="0.000008078223049432263" opacity="0.5"/><path d="M1116.830938874372,650A101.9827855226776,101.9827855226776 0,0,0 912.8653678290167,650" fill="none" stroke="gray" stroke-width="0.042289497663777896" opacity="0.5"/><path d="M1116.830938874372,650A54.6030536986637,54.6030536986637 0,0,0 1007.6248314770445,650" fill="none" stroke="gray" stroke-width="0.00013732979184034847" opacity="0.5"/><path d="M1116.830938874372,650A82.34800640028942,82.34800640028942 0,0,0 952.134926073793,650" fill="none" stroke="gray" stroke-width="0.00008886045354375489" opacity="0.5"/><path d="M1116.830938874372,650A136.25527740701898,136.25527740701898 0,0,0 844.3203840603339,650" fill="none" stroke="gray" stroke-width="0.0003635200372244518" opacity="0.5"/><path d="M1116.830938874372,650A106.87885579186923,106.87885579186923 0,0,0 903.0732272906334,650" fill="none" stroke="gray" stroke-width="0.023087561475277407" opacity="0.5"/><path d="M1116.830938874372,650A67.58909832884422,67.58909832884422 0,0,0 981.6527422166835,650" fill="none" stroke="gray" stroke-width="0.07354414264203132" opacity="0.5"/><path d="M1116.830938874372,650A131.35920713782735,131.35920713782735 0,0,0 854.1125245987172,650" fill="none" stroke="gray" stroke-width="0.00033120714502672276" opacity="0.5"/><path d="M1116.830938874372,650A166.13951425166454,166.13951425166454 0,0,0 784.5519103710428,650" fill="none" stroke="gray" stroke-width="0.007706624789158378" opacity="0.5"/><path d="M1116.830938874372,650A146.04741794540223,146.04741794540223 0,0,0 824.7361029835674,650" fill="none" stroke="gray" stroke-width="0.004758073376115603" opacity="0.5"/><path d="M1116.830938874372,650A126.46313686863573,126.46313686863573 0,0,0 863.9046651371004,650" fill="none" stroke="gray" stroke-width="0.001324828580106891" opacity="0.5"/><path d="M1116.830938874372,650A121.5670665994441,121.5670665994441 0,0,0 873.6968056754837,650" fill="none" stroke="gray" stroke-width="0.0007755094127454972" opacity="0.5"/><path d="M1116.830938874372,650A161.2434439824729,161.2434439824729 0,0,0 794.3440509094261,650" fill="none" stroke="gray" stroke-width="0.0002423466914829679" opacity="0.5"/><path d="M1116.830938874372,650A77.39133847635179,77.39133847635179 0,0,0 962.0482619216683,650" fill="none" stroke="gray" stroke-width="0.00017772090708750979" opacity="0.5"/><path d="M1116.830938874372,650A7.9002187659523315,7.9002187659523315 0,0,1 1132.6313764062766,650" fill="none" stroke="gray" stroke-width="0.01646341857474295" opacity="0.5"/><path d="M1116.830938874372,650A200.4120061360059,200.4120061360059 0,0,0 716.0069266023601,650" fill="none" stroke="gray" stroke-width="0.0008562916432398198" opacity="0.5"/><path d="M1116.830938874372,650A15.64426101727065,15.64426101727065 0,0,0 1085.5424168398306,650" fill="none" stroke="gray" stroke-width="0.0063171704246560295" opacity="0.5"/><path d="M1116.830938874372,650A97.08671525348598,97.08671525348598 0,0,0 922.6575083673999,650" fill="none" stroke="gray" stroke-width="0.0002342684684335356" opacity="0.5"/><path d="M1116.830938874372,650A195.5159358668143,195.5159358668143 0,0,0 725.7990671407433,650" fill="none" stroke="gray" stroke-width="0.0012117334574148393" opacity="0.5"/><path d="M1116.830938874372,650A116.67099633025248,116.67099633025248 0,0,0 883.4889462138669,650" fill="none" stroke="gray" stroke-width="0.00020195557623580658" opacity="0.5"/><path d="M1116.830938874372,650A111.77492606106085,111.77492606106085 0,0,0 893.2810867522502,650" fill="none" stroke="gray" stroke-width="0.0007593529666466327" opacity="0.5"/><path d="M1116.830938874372,650A92.19064498429435,92.19064498429435 0,0,0 932.4496489057832,650" fill="none" stroke="gray" stroke-width="0.0013490632492551878" opacity="0.5"/><path d="M1116.830938874372,650A72.48516859803584,72.48516859803584 0,0,0 971.8606016783002,650" fill="none" stroke="gray" stroke-width="0.003263602111970634" opacity="0.5"/><path d="M1116.830938874372,650A22.8183886733201,22.8183886733201 0,0,1 1162.467716221012,650" fill="none" stroke="gray" stroke-width="0.14164356294874528" opacity="0.5"/><path d="M994.1357289762603,650A19.993729180935304,19.993729180935304 0,0,1 1034.123187338131,650" fill="none" stroke="gray" stroke-width="0.000040391115247161315" opacity="0.5"/><path d="M994.1357289762603,650A178.23296334048314,178.23296334048314 0,0,0 637.6698022952941,650" fill="none" stroke="gray" stroke-width="0" opacity="0.5"/><path d="M994.1357289762603,650A84.69981299634645,84.69981299634645 0,0,0 824.7361029835674,650" fill="none" stroke="gray" stroke-width="0.4137423499227722" opacity="0.5"/><path d="M994.1357289762603,650A119.48012011018363,119.48012011018363 0,0,0 755.1754887558931,650" fill="none" stroke="gray" stroke-width="0.016075663868370203" opacity="0.5"/><path d="M994.1357289762603,650A124.37619037937526,124.37619037937526 0,0,0 745.3833482175098,650" fill="none" stroke="gray" stroke-width="0.00012117334574148395" opacity="0.5"/><path d="M994.1357289762603,650A84.16599362237588,84.16599362237588 0,0,1 1162.467716221012,650" fill="none" stroke="gray" stroke-width="0.00009693867659318716" opacity="0.5"/><path d="M1162.467716221012,650A556.2535067645481,556.2535067645481 0,0,0 49.960702691916026,650" fill="none" stroke="gray" stroke-width="0.00027465958368069694" opacity="0.5"/><path d="M1162.467716221012,650A551.3574364953564,551.3574364953564 0,0,0 59.752843230299234,650" fill="none" stroke="gray" stroke-width="0.0005977885056579874" opacity="0.5"/><path d="M1162.467716221012,650A546.4613662261648,546.4613662261648 0,0,0 69.54498376868244,650" fill="none" stroke="gray" stroke-width="0.0032555238889212016" opacity="0.5"/><path d="M1162.467716221012,650A71.4002242191371,71.4002242191371 0,0,0 1019.6672677827379,650" fill="none" stroke="gray" stroke-width="0.931104066900612" opacity="0.5"/><path d="M1162.467716221012,650A163.9697363495307,163.9697363495307 0,0,0 834.5282435219507,650" fill="none" stroke="gray" stroke-width="0.0022457460077421687" opacity="0.5"/><path d="M1162.467716221012,650A541.5652959569733,541.5652959569733 0,0,0 79.33712430706565,650" fill="none" stroke="gray" stroke-width="0.00008886045354375489" opacity="0.5"/><path d="M1162.467716221012,650A536.6692256877816,536.6692256877816 0,0,0 89.12926484544886,650" fill="none" stroke="gray" stroke-width="0.4430582213691619" opacity="0.5"/><path d="M1162.467716221012,650A531.77315541859,531.77315541859 0,0,0 98.92140538383207,650" fill="none" stroke="gray" stroke-width="0.01139029449969949" opacity="0.5"/><path d="M1162.467716221012,650A198.7500434633679,198.7500434633679 0,0,0 764.9676292942763,650" fill="none" stroke="gray" stroke-width="0.06684729573405197" opacity="0.5"/><path d="M1162.467716221012,650A526.8770851493985,526.8770851493985 0,0,0 108.71354592221527,650" fill="none" stroke="gray" stroke-width="0.009984683689098276" opacity="0.5"/><path d="M1162.467716221012,650A272.19109750124227,272.19109750124227 0,0,0 618.0855212185276,650" fill="none" stroke="gray" stroke-width="0.09787575046692129" opacity="0.5"/><path d="M1162.467716221012,650A521.9810148802068,521.9810148802068 0,0,0 118.50568646059848,650" fill="none" stroke="gray" stroke-width="0.0005089280521142325" opacity="0.5"/><path d="M1162.467716221012,650A517.0849446110152,517.0849446110152 0,0,0 128.2978269989817,650" fill="none" stroke="gray" stroke-width="0.00029081602977956147" opacity="0.5"/><path d="M1162.467716221012,650A193.85397319417626,193.85397319417626 0,0,0 774.7597698326596,650" fill="none" stroke="gray" stroke-width="0.0001696426840380775" opacity="0.5"/><path d="M1162.467716221012,650A512.1888743418236,512.1888743418236 0,0,0 138.08996753736488,650" fill="none" stroke="gray" stroke-width="0.013805683191479737" opacity="0.5"/><path d="M1162.467716221012,650A64.17226444144057,64.17226444144057 0,0,0 1034.123187338131,650" fill="none" stroke="gray" stroke-width="0.09928943950057194" opacity="0.5"/><path d="M1162.467716221012,650A507.292804072632,507.292804072632 0,0,0 147.88210807574808,650" fill="none" stroke="gray" stroke-width="0.00039583292942218086" opacity="0.5"/><path d="M1162.467716221012,650A502.3967338034404,502.3967338034404 0,0,0 157.67424861413127,650" fill="none" stroke="gray" stroke-width="0.01417728145175362" opacity="0.5"/><path d="M1162.467716221012,650A228.12646507851764,228.12646507851764 0,0,0 706.2147860639768,650" fill="none" stroke="gray" stroke-width="0.00008078223049432263" opacity="0.5"/><path d="M1162.467716221012,650A497.5006635342488,497.5006635342488 0,0,0 167.46638915251447,650" fill="none" stroke="gray" stroke-width="0.027433645475871963" opacity="0.5"/><path d="M1162.467716221012,650A492.60459326505725,492.60459326505725 0,0,0 177.25852969089766,650" fill="none" stroke="gray" stroke-width="0.002342684684335356" opacity="0.5"/><path d="M1162.467716221012,650A252.60681642447577,252.60681642447577 0,0,0 657.2540833720606,650" fill="none" stroke="gray" stroke-width="0.03128695787045115" opacity="0.5"/><path d="M1162.467716221012,650A247.71074615528414,247.71074615528414 0,0,0 667.0462239104438,650" fill="none" stroke="gray" stroke-width="0.025018256784091718" opacity="0.5"/><path d="M1162.467716221012,650A124.8011741959977,124.8011741959977 0,0,0 912.8653678290167,650" fill="none" stroke="gray" stroke-width="0.017796325377899273" opacity="0.5"/><path d="M1162.467716221012,650A487.7085229958656,487.7085229958656 0,0,0 187.05067022928085,650" fill="none" stroke="gray" stroke-width="0.006050589064024764" opacity="0.5"/><path d="M1162.467716221012,650A77.4214423719838,77.4214423719838 0,0,0 1007.6248314770445,650" fill="none" stroke="gray" stroke-width="0.016188758991062254" opacity="0.5"/><path d="M1162.467716221012,650A482.812452726674,482.812452726674 0,0,0 196.84281076766405,650" fill="none" stroke="gray" stroke-width="0.010525924633410236" opacity="0.5"/><path d="M1162.467716221012,650A477.9163824574824,477.9163824574824 0,0,0 206.63495130604724,650" fill="none" stroke="gray" stroke-width="0.14351771069621358" opacity="0.5"/><path d="M1162.467716221012,650A473.02031218829086,473.02031218829086 0,0,0 216.42709184443044,650" fill="none" stroke="gray" stroke-width="0.0005250844982130971" opacity="0.5"/><path d="M1162.467716221012,650A105.16639507360952,105.16639507360952 0,0,0 952.134926073793,650" fill="none" stroke="gray" stroke-width="0.002318450015187059" opacity="0.5"/><path d="M1162.467716221012,650A159.07366608033908,159.07366608033908 0,0,0 844.3203840603339,650" fill="none" stroke="gray" stroke-width="0.18407039040436352" opacity="0.5"/><path d="M1162.467716221012,650A129.69724446518933,129.69724446518933 0,0,0 903.0732272906334,650" fill="none" stroke="gray" stroke-width="0.026407711148594068" opacity="0.5"/><path d="M1162.467716221012,650A468.12424191909923,468.12424191909923 0,0,0 226.21923238281363,650" fill="none" stroke="gray" stroke-width="0.00003231289219772905" opacity="0.5"/><path d="M1162.467716221012,650A463.2281716499076,463.2281716499076 0,0,0 236.01137292119682,650" fill="none" stroke="gray" stroke-width="0.03761220651815661" opacity="0.5"/><path d="M1162.467716221012,650A90.40748700216432,90.40748700216432 0,0,0 981.6527422166835,650" fill="none" stroke="gray" stroke-width="0.5114242230365071" opacity="0.5"/><path d="M1162.467716221012,650A242.81467588609252,242.81467588609252 0,0,0 676.8383644488271,650" fill="none" stroke="gray" stroke-width="0.03684477532846055" opacity="0.5"/><path d="M1162.467716221012,650A458.33210138071604,458.33210138071604 0,0,0 245.80351345958002,650" fill="none" stroke="gray" stroke-width="0.00004846933829659358" opacity="0.5"/><path d="M1162.467716221012,650A453.43603111152447,453.43603111152447 0,0,0 255.5956539979632,650" fill="none" stroke="gray" stroke-width="0.00110671655777222" opacity="0.5"/><path d="M1162.467716221012,650A448.53996084233285,448.53996084233285 0,0,0 265.3877945363464,650" fill="none" stroke="gray" stroke-width="0.022699806768904655" opacity="0.5"/><path d="M1162.467716221012,650A154.17759581114746,154.17759581114746 0,0,0 854.1125245987172,650" fill="none" stroke="gray" stroke-width="0.030931516056276132" opacity="0.5"/><path d="M1162.467716221012,650A267.29502723205064,267.29502723205064 0,0,0 627.8776617569108,650" fill="none" stroke="gray" stroke-width="0.048412790735247554" opacity="0.5"/><path d="M1162.467716221012,650A213.43825427094276,213.43825427094276 0,0,0 735.5912076791266,650" fill="none" stroke="gray" stroke-width="1.196287894944325" opacity="0.5"/><path d="M1162.467716221012,650A188.95790292498464,188.95790292498464 0,0,0 784.5519103710428,650" fill="none" stroke="gray" stroke-width="0.5752744980192197" opacity="0.5"/><path d="M1162.467716221012,650A443.6438905731412,443.6438905731412 0,0,0 275.1799350747296,650" fill="none" stroke="gray" stroke-width="0.008159005279926586" opacity="0.5"/><path d="M1162.467716221012,650A438.74782030394965,438.74782030394965 0,0,0 284.9720756131128,650" fill="none" stroke="gray" stroke-width="0.00014540801488978073" opacity="0.5"/><path d="M1162.467716221012,650A291.8657122282016,291.8657122282016 0,0,0 578.736291764609,650" fill="none" stroke="gray" stroke-width="0.3949604813328422" opacity="0.5"/><path d="M1162.467716221012,650A433.8517500347581,433.8517500347581 0,0,0 294.764216151496,650" fill="none" stroke="gray" stroke-width="0.06616872499789966" opacity="0.5"/><path d="M1162.467716221012,650A428.95567976556646,428.95567976556646 0,0,0 304.5563566898792,650" fill="none" stroke="gray" stroke-width="0.5912693796570956" opacity="0.5"/><path d="M1162.467716221012,650A168.86580661872233,168.86580661872233 0,0,0 824.7361029835674,650" fill="none" stroke="gray" stroke-width="2.408126369258807" opacity="0.5"/><path d="M1162.467716221012,650A424.05960949637483,424.05960949637483 0,0,0 314.3484972282624,650" fill="none" stroke="gray" stroke-width="0.1885376477506996" opacity="0.5"/><path d="M1162.467716221012,650A419.16353922718326,419.16353922718326 0,0,0 324.14063776664557,650" fill="none" stroke="gray" stroke-width="0.0030374118665865307" opacity="0.5"/><path d="M1162.467716221012,650A414.2674689579917,414.2674689579917 0,0,0 333.93277830502876,650" fill="none" stroke="gray" stroke-width="0.10480686584333418" opacity="0.5"/><path d="M1162.467716221012,650A149.28152554195583,149.28152554195583 0,0,0 863.9046651371004,650" fill="none" stroke="gray" stroke-width="0.005121593413340054" opacity="0.5"/><path d="M1162.467716221012,650A144.3854552727642,144.3854552727642 0,0,0 873.6968056754837,650" fill="none" stroke="gray" stroke-width="0.0773732203674622" opacity="0.5"/><path d="M1162.467716221012,650A184.061832655793,184.061832655793 0,0,0 794.3440509094261,650" fill="none" stroke="gray" stroke-width="0.019638160233169832" opacity="0.5"/><path d="M1162.467716221012,650A100.20972714967189,100.20972714967189 0,0,0 962.0482619216683,650" fill="none" stroke="gray" stroke-width="0.0017933655169739622" opacity="0.5"/><path d="M1162.467716221012,650A409.37139868880007,409.37139868880007 0,0,0 343.72491884341196,650" fill="none" stroke="gray" stroke-width="0.00009693867659318716" opacity="0.5"/><path d="M1162.467716221012,650A404.47532841960845,404.47532841960845 0,0,0 353.51705938179515,650" fill="none" stroke="gray" stroke-width="0.8885479878762028" opacity="0.5"/><path d="M1162.467716221012,650A399.5792581504169,399.5792581504169 0,0,0 363.30919992017834,650" fill="none" stroke="gray" stroke-width="0.015906021184332125" opacity="0.5"/><path d="M1162.467716221012,650A394.6831878812253,394.6831878812253 0,0,0 373.10134045856154,650" fill="none" stroke="gray" stroke-width="0.0013409850262057557" opacity="0.5"/><path d="M1162.467716221012,650A389.7871176120337,389.7871176120337 0,0,0 382.89348099694473,650" fill="none" stroke="gray" stroke-width="0.012973626217388214" opacity="0.5"/><path d="M1162.467716221012,650A384.89104734284206,384.89104734284206 0,0,0 392.6856215353279,650" fill="none" stroke="gray" stroke-width="0.2699419014198285" opacity="0.5"/><path d="M1162.467716221012,650A286.96964195900995,286.96964195900995 0,0,0 588.5284323029922,650" fill="none" stroke="gray" stroke-width="0.007763172350504404" opacity="0.5"/><path d="M1162.467716221012,650A14.91816990736777,14.91816990736777 0,0,0 1132.6313764062766,650" fill="none" stroke="gray" stroke-width="0.2602561119835592" opacity="0.5"/><path d="M1162.467716221012,650A223.23039480932601,223.23039480932601 0,0,0 716.0069266023601,650" fill="none" stroke="gray" stroke-width="0.0026981264985103757" opacity="0.5"/><path d="M1162.467716221012,650A55.21255731828887,55.21255731828887 0,0,0 1052.0426015844344,650" fill="none" stroke="gray" stroke-width="0.531773266898027" opacity="0.5"/><path d="M1162.467716221012,650A379.9949770736505,379.9949770736505 0,0,0 402.4777620737111,650" fill="none" stroke="gray" stroke-width="0.00039583292942218086" opacity="0.5"/><path d="M1162.467716221012,650A375.0989068044589,375.0989068044589 0,0,0 412.2699026120943,650" fill="none" stroke="gray" stroke-width="0.03275719446544782" opacity="0.5"/><path d="M1162.467716221012,650A370.2028365352673,370.2028365352673 0,0,0 422.0620431504775,650" fill="none" stroke="gray" stroke-width="0.0011471076730193812" opacity="0.5"/><path d="M1162.467716221012,650A365.30676626607567,365.30676626607567 0,0,0 431.8541836888607,650" fill="none" stroke="gray" stroke-width="0.00011309512269205167" opacity="0.5"/><path d="M1162.467716221012,650A360.4106959968841,360.4106959968841 0,0,0 441.6463242272439,650" fill="none" stroke="gray" stroke-width="0.06353522428378475" opacity="0.5"/><path d="M1162.467716221012,650A38.46264969059075,38.46264969059075 0,0,0 1085.5424168398306,650" fill="none" stroke="gray" stroke-width="1.2531020376509818" opacity="0.5"/><path d="M1162.467716221012,650A355.51462572769253,355.51462572769253 0,0,0 451.4384647656271,650" fill="none" stroke="gray" stroke-width="0.010679410871349451" opacity="0.5"/><path d="M1162.467716221012,650A350.6185554585009,350.6185554585009 0,0,0 461.2306053040103,650" fill="none" stroke="gray" stroke-width="0.013684509845738253" opacity="0.5"/><path d="M1162.467716221012,650A119.90510392680608,119.90510392680608 0,0,0 922.6575083673999,650" fill="none" stroke="gray" stroke-width="0.05263770139010062" opacity="0.5"/><path d="M1162.467716221012,650A345.7224851893093,345.7224851893093 0,0,0 471.0227458423935,650" fill="none" stroke="gray" stroke-width="0.00030697247587842594" opacity="0.5"/><path d="M1162.467716221012,650A233.02253534770927,233.02253534770927 0,0,0 696.4226455255936,650" fill="none" stroke="gray" stroke-width="0.05203991288444263" opacity="0.5"/><path d="M1162.467716221012,650A340.8264149201177,340.8264149201177 0,0,0 480.81488638077667,650" fill="none" stroke="gray" stroke-width="0.02453356340112578" opacity="0.5"/><path d="M1162.467716221012,650A218.3343245401344,218.3343245401344 0,0,0 725.7990671407433,650" fill="none" stroke="gray" stroke-width="0.3863006262238508" opacity="0.5"/><path d="M1162.467716221012,650A282.0735716898183,282.0735716898183 0,0,0 598.3205728413755,650" fill="none" stroke="gray" stroke-width="0.07745400259795654" opacity="0.5"/><path d="M1162.467716221012,650A203.6461137325595,203.6461137325595 0,0,0 755.1754887558931,650" fill="none" stroke="gray" stroke-width="0.19592114361788066" opacity="0.5"/><path d="M1162.467716221012,650A139.48938500357258,139.48938500357258 0,0,0 883.4889462138669,650" fill="none" stroke="gray" stroke-width="0.026536962717384982" opacity="0.5"/><path d="M1162.467716221012,650A335.93034465092614,335.93034465092614 0,0,0 490.60702691915986,650" fill="none" stroke="gray" stroke-width="0.021334587073550605" opacity="0.5"/><path d="M1162.467716221012,650A134.59331473438095,134.59331473438095 0,0,0 893.2810867522502,650" fill="none" stroke="gray" stroke-width="0.028726161163781128" opacity="0.5"/><path d="M1162.467716221012,650A257.5028866936674,257.5028866936674 0,0,0 647.4619428336773,650" fill="none" stroke="gray" stroke-width="0.03152122633888469" opacity="0.5"/><path d="M1162.467716221012,650A237.9186056169009,237.9186056169009 0,0,0 686.6305049872103,650" fill="none" stroke="gray" stroke-width="0.7112956177255602" opacity="0.5"/><path d="M1162.467716221012,650A115.00903365761445,115.00903365761445 0,0,0 932.4496489057832,650" fill="none" stroke="gray" stroke-width="0.22121405998565308" opacity="0.5"/><path d="M1162.467716221012,650A22.8183886733201,22.8183886733201 0,0,0 1116.830938874372,650" fill="none" stroke="gray" stroke-width="0.04565003845234172" opacity="0.5"/><path d="M1162.467716221012,650A331.0342743817345,331.0342743817345 0,0,0 500.39916745754306,650" fill="none" stroke="gray" stroke-width="0.020971067036326153" opacity="0.5"/><path d="M1162.467716221012,650A84.16599362237588,84.16599362237588 0,0,0 994.1357289762603,650" fill="none" stroke="gray" stroke-width="0.027490193037217992" opacity="0.5"/><path d="M1162.467716221012,650A326.1382041125429,326.1382041125429 0,0,0 510.19130799592625,650" fill="none" stroke="gray" stroke-width="0.0013894543645023491" opacity="0.5"/><path d="M1162.467716221012,650A321.2421338433513,321.2421338433513 0,0,0 519.9834485343094,650" fill="none" stroke="gray" stroke-width="0.35539334483672297" opacity="0.5"/><path d="M1162.467716221012,650A316.3460635741597,316.3460635741597 0,0,0 529.7755890726927,650" fill="none" stroke="gray" stroke-width="0.0870347751345832" opacity="0.5"/><path d="M1162.467716221012,650A208.54218400175114,208.54218400175114 0,0,0 745.3833482175098,650" fill="none" stroke="gray" stroke-width="0.015413249578316756" opacity="0.5"/><path d="M1162.467716221012,650A311.4499933049681,311.4499933049681 0,0,0 539.567729611076,650" fill="none" stroke="gray" stroke-width="0.0018256784091716914" opacity="0.5"/><path d="M1162.467716221012,650A110.11296338842283,110.11296338842283 0,0,0 942.2417894441664,650" fill="none" stroke="gray" stroke-width="1.0870460846468524" opacity="0.5"/><path d="M1162.467716221012,650A306.55392303577645,306.55392303577645 0,0,0 549.3598701494592,650" fill="none" stroke="gray" stroke-width="0.02459011096247181" opacity="0.5"/><path d="M1162.467716221012,650A301.6578527665848,301.6578527665848 0,0,0 559.1520106878424,650" fill="none" stroke="gray" stroke-width="0.29247206550469507" opacity="0.5"/><path d="M1162.467716221012,650A95.30355727135594,95.30355727135594 0,0,0 971.8606016783002,650" fill="none" stroke="gray" stroke-width="0.539043667642516" opacity="0.5"/><path d="M1162.467716221012,650A277.13233459553027,277.13233459553027 0,0,0 608.2030470299516,650" fill="none" stroke="gray" stroke-width="0.0024880926992251365" opacity="0.5"/><path d="M1162.467716221012,650A296.7617824973932,296.7617824973932 0,0,0 568.9441512262257,650" fill="none" stroke="gray" stroke-width="0.018224471199519185" opacity="0.5"/></g><g id="nodes"><g><circle cx="1" cy="650" r="1"/><text transform="translate(1,656) rotate(-90)" alignment-baseline="middle" font-family="Helvetica, Arial, sans-serif" font-size="12" text-anchor="end">Faeroe Isds</text></g><g><circle cx="10.792140538383205" cy="650" r="1"/><text transform="translate(10.792140538383205,656) rotate(-90)" alignment-baseline="middle" font-family="Helvetica, Arial, sans-serif" font-size="12" text-anchor="end">Ireland</text></g><g><circle cx="20.58428107676641" cy="650" r="1"/><text transform="translate(20.58428107676641,656) rotate(-90)" alignment-baseline="middle" font-family="Helvetica, Arial, sans-serif" font-size="12" text-anchor="end">Malta</text></g><g><circle cx="30.376421615149614" cy="650" r="1"/><text transform="translate(30.376421615149614,656) rotate(-90)" alignment-baseline="middle" font-family="Helvetica, Arial, sans-serif" font-size="12" text-anchor="end">Rwanda</text></g><g><circle cx="40.16856215353282" cy="650" r="1"/><text transform="translate(40.16856215353282,656) rotate(-90)" alignment-baseline="middle" font-family="Helvetica, Arial, sans-serif" font-size="12" text-anchor="end">Cabo Verde</text></g><g><circle cx="49.960702691916026" cy="650" r="1"/><text transform="translate(49.960702691916026,656) rotate(-90)" alignment-baseline="middle" font-family="Helvetica, Arial, sans-serif" font-size="12" text-anchor="end">Algeria</text></g><g><circle cx="59.752843230299234" cy="650" r="1"/><text transform="translate(59.752843230299234,656) rotate(-90)" alignment-baseline="middle" font-family="Helvetica, Arial, sans-serif" font-size="12" text-anchor="end">Angola</text></g><g><circle cx="69.54498376868244" cy="650" r="1"/><text transform="translate(69.54498376868244,656) rotate(-90)" alignment-baseline="middle" font-family="Helvetica, Arial, sans-serif" font-size="12" text-anchor="end">Argentina</text></g><g><circle cx="79.33712430706565" cy="650" r="1"/><text transform="translate(79.33712430706565,656) rotate(-90)" alignment-baseline="middle" font-family="Helvetica, Arial, sans-serif" font-size="12" text-anchor="end">Bahamas</text></g><g><circle cx="89.12926484544886" cy="650" r="1"/><text transform="translate(89.12926484544886,656) rotate(-90)" alignment-baseline="middle" font-family="Helvetica, Arial, sans-serif" font-size="12" text-anchor="end">Bahrain</text></g><g><circle cx="98.92140538383207" cy="650" r="1"/><text transform="translate(98.92140538383207,656) rotate(-90)" alignment-baseline="middle" font-family="Helvetica, Arial, sans-serif" font-size="12" text-anchor="end">Barbados</text></g><g><circle cx="108.71354592221527" cy="650" r="1"/><text transform="translate(108.71354592221527,656) rotate(-90)" alignment-baseline="middle" font-family="Helvetica, Arial, sans-serif" font-size="12" text-anchor="end">Bosnia Herzegovina</text></g><g><circle cx="118.50568646059848" cy="650" r="1"/><text transform="translate(118.50568646059848,656) rotate(-90)" alignment-baseline="middle" font-family="Helvetica, Arial, sans-serif" font-size="12" text-anchor="end">Belize</text></g><g><circle cx="128.2978269989817" cy="650" r="1"/><text transform="translate(128.2978269989817,656) rotate(-90)" alignment-baseline="middle" font-family="Helvetica, Arial, sans-serif" font-size="12" text-anchor="end">Brunei Darussalam</text></g><g><circle cx="138.08996753736488" cy="650" r="1"/><text transform="translate(138.08996753736488,656) rotate(-90)" alignment-baseline="middle" font-family="Helvetica, Arial, sans-serif" font-size="12" text-anchor="end">Cameroon</text></g><g><circle cx="147.88210807574808" cy="650" r="1"/><text transform="translate(147.88210807574808,656) rotate(-90)" alignment-baseline="middle" font-family="Helvetica, Arial, sans-serif" font-size="12" text-anchor="end">Central African Rep.</text></g><g><circle cx="157.67424861413127" cy="650" r="1"/><text transform="translate(157.67424861413127,656) rotate(-90)" alignment-baseline="middle" font-family="Helvetica, Arial, sans-serif" font-size="12" text-anchor="end">Chile</text></g><g><circle cx="167.46638915251447" cy="650" r="1"/><text transform="translate(167.46638915251447,656) rotate(-90)" alignment-baseline="middle" font-family="Helvetica, Arial, sans-serif" font-size="12" text-anchor="end">Colombia</text></g><g><circle cx="177.25852969089766" cy="650" r="1"/><text transform="translate(177.25852969089766,656) rotate(-90)" alignment-baseline="middle" font-family="Helvetica, Arial, sans-serif" font-size="12" text-anchor="end">Costa Rica</text></g><g><circle cx="187.05067022928085" cy="650" r="1"/><text transform="translate(187.05067022928085,656) rotate(-90)" alignment-baseline="middle" font-family="Helvetica, Arial, sans-serif" font-size="12" text-anchor="end">Benin</text></g><g><circle cx="196.84281076766405" cy="650" r="1"/><text transform="translate(196.84281076766405,656) rotate(-90)" alignment-baseline="middle" font-family="Helvetica, Arial, sans-serif" font-size="12" text-anchor="end">Dominican Rep.</text></g><g><circle cx="206.63495130604724" cy="650" r="1"/><text transform="translate(206.63495130604724,656) rotate(-90)" alignment-baseline="middle" font-family="Helvetica, Arial, sans-serif" font-size="12" text-anchor="end">Ecuador</text></g><g><circle cx="216.42709184443044" cy="650" r="1"/><text transform="translate(216.42709184443044,656) rotate(-90)" alignment-baseline="middle" font-family="Helvetica, Arial, sans-serif" font-size="12" text-anchor="end">El Salvador</text></g><g><circle cx="226.21923238281363" cy="650" r="1"/><text transform="translate(226.21923238281363,656) rotate(-90)" alignment-baseline="middle" font-family="Helvetica, Arial, sans-serif" font-size="12" text-anchor="end">Djibouti</text></g><g><circle cx="236.01137292119682" cy="650" r="1"/><text transform="translate(236.01137292119682,656) rotate(-90)" alignment-baseline="middle" font-family="Helvetica, Arial, sans-serif" font-size="12" text-anchor="end">Georgia</text></g><g><circle cx="245.80351345958002" cy="650" r="1"/><text transform="translate(245.80351345958002,656) rotate(-90)" alignment-baseline="middle" font-family="Helvetica, Arial, sans-serif" font-size="12" text-anchor="end">Guatemala</text></g><g><circle cx="255.5956539979632" cy="650" r="1"/><text transform="translate(255.5956539979632,656) rotate(-90)" alignment-baseline="middle" font-family="Helvetica, Arial, sans-serif" font-size="12" text-anchor="end">Haiti</text></g><g><circle cx="265.3877945363464" cy="650" r="1"/><text transform="translate(265.3877945363464,656) rotate(-90)" alignment-baseline="middle" font-family="Helvetica, Arial, sans-serif" font-size="12" text-anchor="end">Honduras</text></g><g><circle cx="275.1799350747296" cy="650" r="1"/><text transform="translate(275.1799350747296,656) rotate(-90)" alignment-baseline="middle" font-family="Helvetica, Arial, sans-serif" font-size="12" text-anchor="end">Côte d'Ivoire</text></g><g><circle cx="284.9720756131128" cy="650" r="1"/><text transform="translate(284.9720756131128,656) rotate(-90)" alignment-baseline="middle" font-family="Helvetica, Arial, sans-serif" font-size="12" text-anchor="end">Jamaica</text></g><g><circle cx="294.764216151496" cy="650" r="1"/><text transform="translate(294.764216151496,656) rotate(-90)" alignment-baseline="middle" font-family="Helvetica, Arial, sans-serif" font-size="12" text-anchor="end">Kazakhstan</text></g><g><circle cx="304.5563566898792" cy="650" r="1"/><text transform="translate(304.5563566898792,656) rotate(-90)" alignment-baseline="middle" font-family="Helvetica, Arial, sans-serif" font-size="12" text-anchor="end">Jordan</text></g><g><circle cx="314.3484972282624" cy="650" r="1"/><text transform="translate(314.3484972282624,656) rotate(-90)" alignment-baseline="middle" font-family="Helvetica, Arial, sans-serif" font-size="12" text-anchor="end">Kuwait</text></g><g><circle cx="324.14063776664557" cy="650" r="1"/><text transform="translate(324.14063776664557,656) rotate(-90)" alignment-baseline="middle" font-family="Helvetica, Arial, sans-serif" font-size="12" text-anchor="end">Kyrgyzstan</text></g><g><circle cx="333.93277830502876" cy="650" r="1"/><text transform="translate(333.93277830502876,656) rotate(-90)" alignment-baseline="middle" font-family="Helvetica, Arial, sans-serif" font-size="12" text-anchor="end">Lebanon</text></g><g><circle cx="343.72491884341196" cy="650" r="1"/><text transform="translate(343.72491884341196,656) rotate(-90)" alignment-baseline="middle" font-family="Helvetica, Arial, sans-serif" font-size="12" text-anchor="end">Maldives</text></g><g><circle cx="353.51705938179515" cy="650" r="1"/><text transform="translate(353.51705938179515,656) rotate(-90)" alignment-baseline="middle" font-family="Helvetica, Arial, sans-serif" font-size="12" text-anchor="end">Mexico</text></g><g><circle cx="363.30919992017834" cy="650" r="1"/><text transform="translate(363.30919992017834,656) rotate(-90)" alignment-baseline="middle" font-family="Helvetica, Arial, sans-serif" font-size="12" text-anchor="end">Other Asia nes</text></g><g><circle cx="373.10134045856154" cy="650" r="1"/><text transform="translate(373.10134045856154,656) rotate(-90)" alignment-baseline="middle" font-family="Helvetica, Arial, sans-serif" font-size="12" text-anchor="end">Mongolia</text></g><g><circle cx="382.89348099694473" cy="650" r="1"/><text transform="translate(382.89348099694473,656) rotate(-90)" alignment-baseline="middle" font-family="Helvetica, Arial, sans-serif" font-size="12" text-anchor="end">Rep. of Moldova</text></g><g><circle cx="392.6856215353279" cy="650" r="1"/><text transform="translate(392.6856215353279,656) rotate(-90)" alignment-baseline="middle" font-family="Helvetica, Arial, sans-serif" font-size="12" text-anchor="end">Morocco</text></g><g><circle cx="402.4777620737111" cy="650" r="1"/><text transform="translate(402.4777620737111,656) rotate(-90)" alignment-baseline="middle" font-family="Helvetica, Arial, sans-serif" font-size="12" text-anchor="end">Pakistan</text></g><g><circle cx="412.2699026120943" cy="650" r="1"/><text transform="translate(412.2699026120943,656) rotate(-90)" alignment-baseline="middle" font-family="Helvetica, Arial, sans-serif" font-size="12" text-anchor="end">Panama</text></g><g><circle cx="422.0620431504775" cy="650" r="1"/><text transform="translate(422.0620431504775,656) rotate(-90)" alignment-baseline="middle" font-family="Helvetica, Arial, sans-serif" font-size="12" text-anchor="end">Papua New Guinea</text></g><g><circle cx="431.8541836888607" cy="650" r="1"/><text transform="translate(431.8541836888607,656) rotate(-90)" alignment-baseline="middle" font-family="Helvetica, Arial, sans-serif" font-size="12" text-anchor="end">Paraguay</text></g><g><circle cx="441.6463242272439" cy="650" r="1"/><text transform="translate(441.6463242272439,656) rotate(-90)" alignment-baseline="middle" font-family="Helvetica, Arial, sans-serif" font-size="12" text-anchor="end">Philippines</text></g><g><circle cx="451.4384647656271" cy="650" r="1"/><text transform="translate(451.4384647656271,656) rotate(-90)" alignment-baseline="middle" font-family="Helvetica, Arial, sans-serif" font-size="12" text-anchor="end">Timor-Leste</text></g><g><circle cx="461.2306053040103" cy="650" r="1"/><text transform="translate(461.2306053040103,656) rotate(-90)" alignment-baseline="middle" font-family="Helvetica, Arial, sans-serif" font-size="12" text-anchor="end">Qatar</text></g><g><circle cx="471.0227458423935" cy="650" r="1"/><text transform="translate(471.0227458423935,656) rotate(-90)" alignment-baseline="middle" font-family="Helvetica, Arial, sans-serif" font-size="12" text-anchor="end">Saint Kitts and Nevis</text></g><g><circle cx="480.81488638077667" cy="650" r="1"/><text transform="translate(480.81488638077667,656) rotate(-90)" alignment-baseline="middle" font-family="Helvetica, Arial, sans-serif" font-size="12" text-anchor="end">Senegal</text></g><g><circle cx="490.60702691915986" cy="650" r="1"/><text transform="translate(490.60702691915986,656) rotate(-90)" alignment-baseline="middle" font-family="Helvetica, Arial, sans-serif" font-size="12" text-anchor="end">Viet Nam</text></g><g><circle cx="500.39916745754306" cy="650" r="1"/><text transform="translate(500.39916745754306,656) rotate(-90)" alignment-baseline="middle" font-family="Helvetica, Arial, sans-serif" font-size="12" text-anchor="end">Tajikistan</text></g><g><circle cx="510.19130799592625" cy="650" r="1"/><text transform="translate(510.19130799592625,656) rotate(-90)" alignment-baseline="middle" font-family="Helvetica, Arial, sans-serif" font-size="12" text-anchor="end">Togo</text></g><g><circle cx="519.9834485343094" cy="650" r="1"/><text transform="translate(519.9834485343094,656) rotate(-90)" alignment-baseline="middle" font-family="Helvetica, Arial, sans-serif" font-size="12" text-anchor="end">United Arab Emirates</text></g><g><circle cx="529.7755890726927" cy="650" r="1"/><text transform="translate(529.7755890726927,656) rotate(-90)" alignment-baseline="middle" font-family="Helvetica, Arial, sans-serif" font-size="12" text-anchor="end">Tunisia</text></g><g><circle cx="539.567729611076" cy="650" r="1"/><text transform="translate(539.567729611076,656) rotate(-90)" alignment-baseline="middle" font-family="Helvetica, Arial, sans-serif" font-size="12" text-anchor="end">Turks and Caicos Isds</text></g><g><circle cx="549.3598701494592" cy="650" r="1"/><text transform="translate(549.3598701494592,656) rotate(-90)" alignment-baseline="middle" font-family="Helvetica, Arial, sans-serif" font-size="12" text-anchor="end">North Macedonia</text></g><g><circle cx="559.1520106878424" cy="650" r="1"/><text transform="translate(559.1520106878424,656) rotate(-90)" alignment-baseline="middle" font-family="Helvetica, Arial, sans-serif" font-size="12" text-anchor="end">Egypt</text></g><g><circle cx="568.9441512262257" cy="650" r="1"/><text transform="translate(568.9441512262257,656) rotate(-90)" alignment-baseline="middle" font-family="Helvetica, Arial, sans-serif" font-size="12" text-anchor="end">Uruguay</text></g><g><circle cx="578.736291764609" cy="650" r="1"/><text transform="translate(578.736291764609,656) rotate(-90)" alignment-baseline="middle" font-family="Helvetica, Arial, sans-serif" font-size="12" text-anchor="end">Japan</text></g><g><circle cx="588.5284323029922" cy="650" r="1"/><text transform="translate(588.5284323029922,656) rotate(-90)" alignment-baseline="middle" font-family="Helvetica, Arial, sans-serif" font-size="12" text-anchor="end">Oman</text></g><g><circle cx="598.3205728413755" cy="650" r="1"/><text transform="translate(598.3205728413755,656) rotate(-90)" alignment-baseline="middle" font-family="Helvetica, Arial, sans-serif" font-size="12" text-anchor="end">India</text></g><g><circle cx="608.2030470299516" cy="650" r="1.090333650192814"/><text transform="translate(608.2030470299516,656.0903336501929) rotate(-90)" alignment-baseline="middle" font-family="Helvetica, Arial, sans-serif" font-size="12" text-anchor="end">Burkina Faso</text></g><g><circle cx="618.0855212185276" cy="650" r="1"/><text transform="translate(618.0855212185276,656) rotate(-90)" alignment-baseline="middle" font-family="Helvetica, Arial, sans-serif" font-size="12" text-anchor="end">Brazil</text></g><g><circle cx="627.8776617569108" cy="650" r="1"/><text transform="translate(627.8776617569108,656) rotate(-90)" alignment-baseline="middle" font-family="Helvetica, Arial, sans-serif" font-size="12" text-anchor="end">Indonesia</text></g><g><circle cx="637.6698022952941" cy="650" r="1"/><text transform="translate(637.6698022952941,656) rotate(-90)" alignment-baseline="middle" font-family="Helvetica, Arial, sans-serif" font-size="12" text-anchor="end">China, Hong Kong SAR</text></g><g><circle cx="647.4619428336773" cy="650" r="1"/><text transform="translate(647.4619428336773,656) rotate(-90)" alignment-baseline="middle" font-family="Helvetica, Arial, sans-serif" font-size="12" text-anchor="end">South Africa</text></g><g><circle cx="657.2540833720606" cy="650" r="1"/><text transform="translate(657.2540833720606,656) rotate(-90)" alignment-baseline="middle" font-family="Helvetica, Arial, sans-serif" font-size="12" text-anchor="end">Croatia</text></g><g><circle cx="667.0462239104438" cy="650" r="1"/><text transform="translate(667.0462239104438,656) rotate(-90)" alignment-baseline="middle" font-family="Helvetica, Arial, sans-serif" font-size="12" text-anchor="end">Cyprus</text></g><g><circle cx="676.8383644488271" cy="650" r="1"/><text transform="translate(676.8383644488271,656) rotate(-90)" alignment-baseline="middle" font-family="Helvetica, Arial, sans-serif" font-size="12" text-anchor="end">Greece</text></g><g><circle cx="686.6305049872103" cy="650" r="1"/><text transform="translate(686.6305049872103,656) rotate(-90)" alignment-baseline="middle" font-family="Helvetica, Arial, sans-serif" font-size="12" text-anchor="end">Spain</text></g><g><circle cx="696.4226455255936" cy="650" r="1"/><text transform="translate(696.4226455255936,656) rotate(-90)" alignment-baseline="middle" font-family="Helvetica, Arial, sans-serif" font-size="12" text-anchor="end">Saudi Arabia</text></g><g><circle cx="706.2147860639768" cy="650" r="1"/><text transform="translate(706.2147860639768,656) rotate(-90)" alignment-baseline="middle" font-family="Helvetica, Arial, sans-serif" font-size="12" text-anchor="end">China</text></g><g><circle cx="716.0069266023601" cy="650" r="1"/><text transform="translate(716.0069266023601,656) rotate(-90)" alignment-baseline="middle" font-family="Helvetica, Arial, sans-serif" font-size="12" text-anchor="end">New Zealand</text></g><g><circle cx="725.7990671407433" cy="650" r="1"/><text transform="translate(725.7990671407433,656) rotate(-90)" alignment-baseline="middle" font-family="Helvetica, Arial, sans-serif" font-size="12" text-anchor="end">Serbia</text></g><g><circle cx="735.5912076791266" cy="650" r="1"/><text transform="translate(735.5912076791266,656) rotate(-90)" alignment-baseline="middle" font-family="Helvetica, Arial, sans-serif" font-size="12" text-anchor="end">Israel</text></g><g><circle cx="745.3833482175098" cy="650" r="1"/><text transform="translate(745.3833482175098,656) rotate(-90)" alignment-baseline="middle" font-family="Helvetica, Arial, sans-serif" font-size="12" text-anchor="end">Türkiye</text></g><g><circle cx="755.1754887558931" cy="650" r="1"/><text transform="translate(755.1754887558931,656) rotate(-90)" alignment-baseline="middle" font-family="Helvetica, Arial, sans-serif" font-size="12" text-anchor="end">Singapore</text></g><g><circle cx="764.9676292942763" cy="650" r="1"/><text transform="translate(764.9676292942763,656) rotate(-90)" alignment-baseline="middle" font-family="Helvetica, Arial, sans-serif" font-size="12" text-anchor="end">Belgium</text></g><g><circle cx="774.7597698326596" cy="650" r="1"/><text transform="translate(774.7597698326596,656) rotate(-90)" alignment-baseline="middle" font-family="Helvetica, Arial, sans-serif" font-size="12" text-anchor="end">Bulgaria</text></g><g><circle cx="784.5519103710428" cy="650" r="1"/><text transform="translate(784.5519103710428,656) rotate(-90)" alignment-baseline="middle" font-family="Helvetica, Arial, sans-serif" font-size="12" text-anchor="end">Italy</text></g><g><circle cx="794.3440509094261" cy="650" r="1"/><text transform="translate(794.3440509094261,656) rotate(-90)" alignment-baseline="middle" font-family="Helvetica, Arial, sans-serif" font-size="12" text-anchor="end">Luxembourg</text></g><g><circle cx="809.5400769464968" cy="650" r="6.403885498687448"/><text transform="translate(809.5400769464968,661.4038854986875) rotate(-90)" alignment-baseline="middle" font-family="Helvetica, Arial, sans-serif" font-size="12" text-anchor="end">Portugal</text></g><g><circle cx="824.7361029835674" cy="650" r="1"/><text transform="translate(824.7361029835674,656) rotate(-90)" alignment-baseline="middle" font-family="Helvetica, Arial, sans-serif" font-size="12" text-anchor="end">Rep. of Korea</text></g><g><circle cx="834.5282435219507" cy="650" r="1"/><text transform="translate(834.5282435219507,656) rotate(-90)" alignment-baseline="middle" font-family="Helvetica, Arial, sans-serif" font-size="12" text-anchor="end">Austria</text></g><g><circle cx="844.3203840603339" cy="650" r="1"/><text transform="translate(844.3203840603339,656) rotate(-90)" alignment-baseline="middle" font-family="Helvetica, Arial, sans-serif" font-size="12" text-anchor="end">Finland</text></g><g><circle cx="854.1125245987172" cy="650" r="1"/><text transform="translate(854.1125245987172,656) rotate(-90)" alignment-baseline="middle" font-family="Helvetica, Arial, sans-serif" font-size="12" text-anchor="end">Hungary</text></g><g><circle cx="863.9046651371004" cy="650" r="1"/><text transform="translate(863.9046651371004,656) rotate(-90)" alignment-baseline="middle" font-family="Helvetica, Arial, sans-serif" font-size="12" text-anchor="end">Latvia</text></g><g><circle cx="873.6968056754837" cy="650" r="1"/><text transform="translate(873.6968056754837,656) rotate(-90)" alignment-baseline="middle" font-family="Helvetica, Arial, sans-serif" font-size="12" text-anchor="end">Lithuania</text></g><g><circle cx="883.4889462138669" cy="650" r="1"/><text transform="translate(883.4889462138669,656) rotate(-90)" alignment-baseline="middle" font-family="Helvetica, Arial, sans-serif" font-size="12" text-anchor="end">Slovakia</text></g><g><circle cx="893.2810867522502" cy="650" r="1"/><text transform="translate(893.2810867522502,656) rotate(-90)" alignment-baseline="middle" font-family="Helvetica, Arial, sans-serif" font-size="12" text-anchor="end">Slovenia</text></g><g><circle cx="903.0732272906334" cy="650" r="1"/><text transform="translate(903.0732272906334,656) rotate(-90)" alignment-baseline="middle" font-family="Helvetica, Arial, sans-serif" font-size="12" text-anchor="end">France</text></g><g><circle cx="912.8653678290167" cy="650" r="1"/><text transform="translate(912.8653678290167,656) rotate(-90)" alignment-baseline="middle" font-family="Helvetica, Arial, sans-serif" font-size="12" text-anchor="end">Czechia</text></g><g><circle cx="922.6575083673999" cy="650" r="1"/><text transform="translate(922.6575083673999,656) rotate(-90)" alignment-baseline="middle" font-family="Helvetica, Arial, sans-serif" font-size="12" text-anchor="end">Romania</text></g><g><circle cx="932.4496489057832" cy="650" r="1"/><text transform="translate(932.4496489057832,656) rotate(-90)" alignment-baseline="middle" font-family="Helvetica, Arial, sans-serif" font-size="12" text-anchor="end">Sweden</text></g><g><circle cx="942.2417894441664" cy="650" r="1"/><text transform="translate(942.2417894441664,656) rotate(-90)" alignment-baseline="middle" font-family="Helvetica, Arial, sans-serif" font-size="12" text-anchor="end">Ukraine</text></g><g><circle cx="952.134926073793" cy="650" r="1.1009960912434096"/><text transform="translate(952.134926073793,656.1009960912434) rotate(-90)" alignment-baseline="middle" font-family="Helvetica, Arial, sans-serif" font-size="12" text-anchor="end">Estonia</text></g><g><circle cx="962.0482619216683" cy="650" r="1.0201992182486819"/><text transform="translate(962.0482619216683,656.0201992182486) rotate(-90)" alignment-baseline="middle" font-family="Helvetica, Arial, sans-serif" font-size="12" text-anchor="end">Malaysia</text></g><g><circle cx="971.8606016783002" cy="650" r="1"/><text transform="translate(971.8606016783002,656) rotate(-90)" alignment-baseline="middle" font-family="Helvetica, Arial, sans-serif" font-size="12" text-anchor="end">United Kingdom</text></g><g><circle cx="981.6527422166835" cy="650" r="1"/><text transform="translate(981.6527422166835,656) rotate(-90)" alignment-baseline="middle" font-family="Helvetica, Arial, sans-serif" font-size="12" text-anchor="end">Germany</text></g><g><circle cx="994.1357289762603" cy="650" r="3.6908462211936164"/><text transform="translate(994.1357289762603,658.6908462211936) rotate(-90)" alignment-baseline="middle" font-family="Helvetica, Arial, sans-serif" font-size="12" text-anchor="end">Thailand</text></g><g><circle cx="1007.6248314770445" cy="650" r="2.0061157412074473"/><text transform="translate(1007.6248314770445,657.0061157412074) rotate(-90)" alignment-baseline="middle" font-family="Helvetica, Arial, sans-serif" font-size="12" text-anchor="end">Denmark</text></g><g><circle cx="1019.6672677827379" cy="650" r="2.2441800261026588"/><text transform="translate(1019.6672677827379,657.2441800261026) rotate(-90)" alignment-baseline="middle" font-family="Helvetica, Arial, sans-serif" font-size="12" text-anchor="end">Australia</text></g><g><circle cx="1034.123187338131" cy="650" r="4.419598990907108"/><text transform="translate(1034.123187338131,659.4195989909072) rotate(-90)" alignment-baseline="middle" font-family="Helvetica, Arial, sans-serif" font-size="12" text-anchor="end">Canada</text></g><g><circle cx="1052.0426015844344" cy="650" r="5.70767471701312"/><text transform="translate(1052.0426015844344,660.7076747170131) rotate(-90)" alignment-baseline="middle" font-family="Helvetica, Arial, sans-serif" font-size="12" text-anchor="end">Norway</text></g><g><circle cx="1085.5424168398306" cy="650" r="20"/><text transform="translate(1085.5424168398306,675) rotate(-90)" alignment-baseline="middle" font-family="Helvetica, Arial, sans-serif" font-size="12" text-anchor="end">Poland</text></g><g><circle cx="1116.830938874372" cy="650" r="3.496381496158254"/><text transform="translate(1116.830938874372,658.4963814961583) rotate(-90)" alignment-baseline="middle" font-family="Helvetica, Arial, sans-serif" font-size="12" text-anchor="end">Switzerland</text></g><g><circle cx="1132.6313764062766" cy="650" r="4.511915497363231"/><text transform="translate(1132.6313764062766,659.5119154973632) rotate(-90)" alignment-baseline="middle" font-family="Helvetica, Arial, sans-serif" font-size="12" text-anchor="end">Netherlands</text></g><g><circle cx="1162.467716221012" cy="650" r="17.53228377898914"/><text transform="translate(1162.467716221012,672.5322837789892) rotate(-90)" alignment-baseline="middle" font-family="Helvetica, Arial, sans-serif" font-size="12" text-anchor="end">USA</text></g></g></g></svg>